<?xml version="1.0" encoding="UTF-8"?>
<svg width="286px" height="73px" viewBox="0 0 286 73" version="1.1" xmlns="http://www.w3.org/2000/svg" xmlns:xlink="http://www.w3.org/1999/xlink">
    <!-- Generator: Sketch 54.1 (76490) - https://sketchapp.com -->
    <title>Group 134</title>
    <desc>Created with Sketch.</desc>
    <g id="Page-1" stroke="none" stroke-width="1" fill="none" fill-rule="evenodd">
        <g id="Version-1" transform="translate(-557.000000, -18032.000000)">
            <g id="Group-134" transform="translate(561.000000, 18034.000000)">
                <g id="Group-119">
                    <g id="Group-118" fill="#F3CE18" fill-rule="nonzero" stroke="#FFFFFF" stroke-width="4">
                        <path d="M222,69 L56,69 L1.44019795e-15,34.5 L56,1.71450552e-15 L222,0 L278,34.5 L222,69 Z" id="Combined-Shape"></path>
                    </g>
                    <path d="M72.4243164,42.0239258 L64,42.0239258 L64,23 L72.2792969,23 C75.8520508,23 78.0932617,24.8325195 78.0932617,27.7460938 C78.0932617,29.8291016 76.5375977,31.5693359 74.5205078,31.8725586 L74.5205078,31.9780273 C77.1044922,32.1757812 79.0029297,34.0610352 79.0029297,36.5791016 C79.0029297,39.9277344 76.4848633,42.0239258 72.4243164,42.0239258 Z M67.9814453,25.9663086 L67.9814453,30.9101562 L70.8422852,30.9101562 C72.9648438,30.9101562 74.1777344,29.9741211 74.1777344,28.3657227 C74.1777344,26.8364258 73.1098633,25.9663086 71.2509766,25.9663086 L67.9814453,25.9663086 Z M67.9814453,39.0576172 L71.4091797,39.0576172 C73.703125,39.0576172 74.9423828,38.0820312 74.9423828,36.2626953 C74.9423828,34.4829102 73.6635742,33.5336914 71.3168945,33.5336914 L67.9814453,33.5336914 L67.9814453,39.0576172 Z M87.5582748,39.4663086 C89.2325912,39.4663086 90.6168685,38.3720703 90.6168685,36.8427734 L90.6168685,35.8144531 L87.6373763,35.9990234 C86.2003646,36.1044922 85.3829818,36.7504883 85.3829818,37.7524414 C85.3829818,38.8071289 86.253099,39.4663086 87.5582748,39.4663086 Z M86.2926498,42.2480469 C83.6031967,42.2480469 81.5597396,40.5078125 81.5597396,37.9633789 C81.5597396,35.3925781 83.5372787,33.902832 87.0572982,33.6918945 L90.6168685,33.480957 L90.6168685,32.5449219 C90.6168685,31.2265625 89.694017,30.4619141 88.2438217,30.4619141 C86.8068099,30.4619141 85.897142,31.1738281 85.7125717,32.215332 L82.1925521,32.215332 C82.3375717,29.4731445 84.6710678,27.5878906 88.4152084,27.5878906 C92.0406967,27.5878906 94.4005599,29.4599609 94.4005599,32.3076172 L94.4005599,42.0239258 L90.6827865,42.0239258 L90.6827865,39.8618164 L90.6036849,39.8618164 C89.8126693,41.3647461 88.0592513,42.2480469 86.2926498,42.2480469 Z M110.879245,33.1513672 L107.306491,33.1513672 C107.08237,31.6616211 106.0936,30.6069336 104.511569,30.6069336 C102.613132,30.6069336 101.426608,32.215332 101.426608,34.9443359 C101.426608,37.7260742 102.613132,39.3081055 104.524753,39.3081055 C106.067233,39.3081055 107.069186,38.3852539 107.306491,36.8427734 L110.892428,36.8427734 C110.694675,40.1782227 108.202975,42.3271484 104.485202,42.3271484 C100.226901,42.3271484 97.5242644,39.5585938 97.5242644,34.9443359 C97.5242644,30.4091797 100.226901,27.5878906 104.458835,27.5878906 C108.282077,27.5878906 110.707858,29.9477539 110.879245,33.1513672 Z M117.905293,33.5600586 L122.704121,27.8911133 L127.067891,27.8911133 L121.675801,33.9555664 L127.331563,42.0239258 L122.901875,42.0239258 L118.854512,36.2758789 L117.852559,37.3569336 L117.852559,42.0239258 L114.002949,42.0239258 L114.002949,23 L117.852559,23 L117.852559,33.5600586 L117.905293,33.5600586 Z M137.125358,24.6347656 L140.974968,24.6347656 L140.974968,27.8911133 L143.585319,27.8911133 L143.585319,30.7915039 L140.974968,30.7915039 L140.974968,37.5546875 C140.974968,38.6357422 141.502311,39.1499023 142.6361,39.1499023 C142.978874,39.1499023 143.334831,39.1235352 143.572136,39.0839844 L143.572136,41.918457 C143.176628,42.0107422 142.517448,42.0766602 141.739616,42.0766602 C138.41735,42.0766602 137.125358,40.9692383 137.125358,38.2138672 L137.125358,30.7915039 L135.134636,30.7915039 L135.134636,27.8911133 L137.125358,27.8911133 L137.125358,24.6347656 Z M153.142617,42.3271484 C148.871133,42.3271484 146.142129,39.5849609 146.142129,34.9443359 C146.142129,30.3696289 148.910684,27.5878906 153.142617,27.5878906 C157.374551,27.5878906 160.143106,30.3564453 160.143106,34.9443359 C160.143106,39.5981445 157.414102,42.3271484 153.142617,42.3271484 Z M153.142617,39.387207 C155.027871,39.387207 156.227578,37.7919922 156.227578,34.9575195 C156.227578,32.1494141 155.014688,30.527832 153.142617,30.527832 C151.270547,30.527832 150.044473,32.1494141 150.044473,34.9575195 C150.044473,37.7919922 151.24418,39.387207 153.142617,39.387207 Z M178.638073,42.0239258 L174.656628,42.0239258 L174.656628,26.2827148 L169.159069,26.2827148 L169.159069,23 L184.148815,23 L184.148815,26.2827148 L178.638073,26.2827148 L178.638073,42.0239258 Z M190.568418,42.3271484 C186.296934,42.3271484 183.56793,39.5849609 183.56793,34.9443359 C183.56793,30.3696289 186.336485,27.5878906 190.568418,27.5878906 C194.800352,27.5878906 197.568907,30.3564453 197.568907,34.9443359 C197.568907,39.5981445 194.839903,42.3271484 190.568418,42.3271484 Z M190.568418,39.387207 C192.453672,39.387207 193.653379,37.7919922 193.653379,34.9575195 C193.653379,32.1494141 192.440489,30.527832 190.568418,30.527832 C188.696348,30.527832 187.470274,32.1494141 187.470274,34.9575195 C187.470274,37.7919922 188.669981,39.387207 190.568418,39.387207 Z M208.958724,27.6669922 C212.544662,27.6669922 214.746322,30.3959961 214.746322,34.9575195 C214.746322,39.5058594 212.557845,42.2480469 209.024642,42.2480469 C206.968002,42.2480469 205.38597,41.2460938 204.634506,39.6508789 L204.555404,39.6508789 L204.555404,46.6381836 L200.705795,46.6381836 L200.705795,27.8911133 L204.50267,27.8911133 L204.50267,30.3564453 L204.581771,30.3564453 C205.34642,28.6953125 206.915267,27.6669922 208.958724,27.6669922 Z M207.666732,39.1499023 C209.591537,39.1499023 210.804428,37.5283203 210.804428,34.9575195 C210.804428,32.3999023 209.591537,30.7519531 207.666732,30.7519531 C205.781478,30.7519531 204.54222,32.4262695 204.54222,34.9575195 C204.54222,37.5151367 205.781478,39.1499023 207.666732,39.1499023 Z" id="Back-to-Top" fill="#000000"></path>
                </g>
            </g>
        </g>
    </g>
</svg>