<?xml version="1.0" encoding="UTF-8"?>
<svg width="69px" height="77px" viewBox="0 0 69 77" version="1.1" xmlns="http://www.w3.org/2000/svg" xmlns:xlink="http://www.w3.org/1999/xlink">
    <!-- Generator: Sketch 54.1 (76490) - https://sketchapp.com -->
    <title>Group 143</title>
    <desc>Created with Sketch.</desc>
    <g id="Page-1" stroke="none" stroke-width="1" fill="none" fill-rule="evenodd">
        <g id="Version-1" transform="translate(-666.000000, -6185.000000)" fill-rule="nonzero">
            <g id="Group-95" transform="translate(663.000000, 6188.000000)">
                <g id="Group-143">
                    <polygon id="Polygon" stroke="#FFFFFF" stroke-width="4" fill="#F3CE18" points="37.5 0 69.9759526 17.75 69.9759526 53.25 37.5 71 5.02404736 53.25 5.02404736 17.75"></polygon>
                    <path d="M38.078125,48.546875 C31.8125,48.546875 27.90625,44.03125 27.90625,36.734375 C27.90625,29.421875 31.796875,24.90625 38.0625,24.90625 C43.03125,24.90625 46.875,28.125 47.4375,32.71875 L43.953125,32.71875 C43.296875,29.953125 41.03125,28.171875 38.0625,28.171875 C34.015625,28.171875 31.484375,31.46875 31.484375,36.734375 C31.484375,41.984375 34.015625,45.28125 38.078125,45.28125 C41.0625,45.28125 43.328125,43.671875 43.953125,41.125 L47.4375,41.125 C46.8125,45.578125 43.109375,48.546875 38.078125,48.546875 Z" id="C" fill="#000000"></path>
                </g>
            </g>
        </g>
    </g>
</svg>