<?xml version="1.0" encoding="UTF-8"?>
<svg width="371px" height="73px" viewBox="0 0 371 73" version="1.1" xmlns="http://www.w3.org/2000/svg" xmlns:xlink="http://www.w3.org/1999/xlink">
    <!-- Generator: Sketch 54.1 (76490) - https://sketchapp.com -->
    <title>Group 144</title>
    <desc>Created with Sketch.</desc>
    <g id="Page-1" stroke="none" stroke-width="1" fill="none" fill-rule="evenodd">
        <g id="Version-1" transform="translate(-515.000000, -3377.000000)" fill-rule="nonzero">
            <g id="Group-76" transform="translate(519.000000, 3379.000000)">
                <g id="Group-144" transform="translate(0.000000, 0.000000)">
                    <path d="M307,69 L56,69 L-1.97511768e-13,34.5 L56,1.71450552e-15 L307,0 L363,34.5 L307,69 Z" id="Combined-Shape" stroke="#FFFFFF" stroke-width="4" fill="#F3CE18"></path>
                    <path d="M81.5820312,24.9760742 L88.8461914,24.9760742 C94.5546875,24.9760742 97.9165039,28.3774414 97.9165039,34.4155273 C97.9165039,40.4536133 94.5546875,44 88.8461914,44 L81.5820312,44 L81.5820312,24.9760742 Z M85.5634766,28.2587891 L85.5634766,40.7041016 L88.371582,40.7041016 C91.9311523,40.7041016 93.855957,38.5419922 93.855957,34.4287109 C93.855957,30.4472656 91.878418,28.2587891 88.371582,28.2587891 L85.5634766,28.2587891 Z M107.46351,32.4116211 C105.77601,32.4116211 104.563119,33.6904297 104.431283,35.4570312 L110.429818,35.4570312 C110.350717,33.6508789 109.177377,32.4116211 107.46351,32.4116211 Z M110.482553,39.6757812 L114.015756,39.6757812 C113.593881,42.4443359 111.062631,44.3032227 107.568979,44.3032227 C103.218393,44.3032227 100.608041,41.5214844 100.608041,36.9995117 C100.608041,32.4907227 103.24476,29.5639648 107.423959,29.5639648 C111.53724,29.5639648 114.134408,32.3457031 114.134408,36.6435547 L114.134408,37.8168945 L104.391732,37.8168945 L104.391732,38.0541992 C104.391732,40.0712891 105.670541,41.4555664 107.634897,41.4555664 C109.045541,41.4555664 110.126596,40.7568359 110.482553,39.6757812 Z M116.852313,34.0200195 C116.852313,31.3305664 119.185809,29.5639648 122.811297,29.5639648 C126.357684,29.5639648 128.664813,31.3569336 128.717547,34.0991211 L125.17116,34.0991211 C125.092059,32.965332 124.182391,32.2666016 122.758563,32.2666016 C121.42702,32.2666016 120.556902,32.8730469 120.556902,33.7827148 C120.556902,34.4814453 121.163348,34.9560547 122.402606,35.2460938 L125.105242,35.8261719 C127.939715,36.4589844 129.086688,37.5795898 129.086688,39.6889648 C129.086688,42.4707031 126.52907,44.3032227 122.798113,44.3032227 C119.027606,44.3032227 116.707293,42.4838867 116.496356,39.7285156 L120.25368,39.7285156 C120.43825,40.9150391 121.374285,41.6005859 122.903582,41.6005859 C124.366961,41.6005859 125.250262,41.0205078 125.250262,40.0976562 C125.250262,39.3857422 124.775652,38.9902344 123.510027,38.6870117 L120.899676,38.1069336 C118.223406,37.5004883 116.852313,36.1030273 116.852313,34.0200195 Z M132.041897,44 L132.041897,29.8671875 L135.891506,29.8671875 L135.891506,44 L132.041897,44 Z M133.966701,28.3115234 C132.806545,28.3115234 131.910061,27.4282227 131.910061,26.3208008 C131.910061,25.2001953 132.806545,24.3300781 133.966701,24.3300781 C135.126858,24.3300781 136.023342,25.2001953 136.023342,26.3208008 C136.023342,27.4282227 135.126858,28.3115234 133.966701,28.3115234 Z M145.952672,40.9941406 C147.877477,40.9941406 149.103551,39.4648438 149.103551,36.9072266 C149.103551,34.362793 147.877477,32.7280273 145.952672,32.7280273 C144.054235,32.7280273 142.854528,34.3364258 142.854528,36.9072266 C142.854528,39.4912109 144.041051,40.9941406 145.952672,40.9941406 Z M145.886754,49.3261719 C142.168981,49.3261719 139.650914,47.5200195 139.347692,45.0019531 L143.1182,45.0019531 C143.421422,45.9775391 144.528844,46.6499023 145.992223,46.6499023 C147.982946,46.6499023 149.090367,45.5424805 149.090367,43.9077148 L149.090367,41.4291992 L149.011266,41.4291992 C148.352086,42.9321289 146.690953,43.9604492 144.647496,43.9604492 C141.193395,43.9604492 138.912633,41.2973633 138.912633,36.8808594 C138.912633,32.3984375 141.127477,29.6430664 144.713414,29.6430664 C146.743688,29.6430664 148.338903,30.7109375 149.077184,32.3325195 L149.143102,32.3325195 L149.143102,29.8671875 L152.939977,29.8671875 L152.939977,43.8022461 C152.939977,47.1772461 150.118688,49.3261719 145.886754,49.3261719 Z M156.42253,44 L156.42253,29.8671875 L160.140303,29.8671875 L160.140303,32.3852539 L160.219405,32.3852539 C160.97087,30.6318359 162.460616,29.6035156 164.635909,29.6035156 C167.773604,29.6035156 169.540205,31.5810547 169.540205,34.8901367 L169.540205,44 L165.690596,44 L165.690596,35.6943359 C165.690596,33.8486328 164.820479,32.7939453 163.093428,32.7939453 C161.366377,32.7939453 160.272139,34.0595703 160.272139,35.8920898 L160.272139,44 L156.42253,44 Z M179.603456,24.9760742 L187.342225,24.9760742 C191.244569,24.9760742 193.934022,27.5732422 193.934022,31.4887695 C193.934022,35.3911133 191.152284,38.0014648 187.144471,38.0014648 L183.584901,38.0014648 L183.584901,44 L179.603456,44 L179.603456,24.9760742 Z M183.584901,28.1269531 L183.584901,34.8901367 L186.274354,34.8901367 C188.555116,34.8901367 189.886659,33.6772461 189.886659,31.5019531 C189.886659,29.3398438 188.568299,28.1269531 186.287538,28.1269531 L183.584901,28.1269531 Z M196.928782,44 L196.928782,29.8671875 L200.646555,29.8671875 L200.646555,32.4116211 L200.725657,32.4116211 C201.226633,30.6186523 202.42634,29.6430664 204.087473,29.6430664 C204.535715,29.6430664 204.91804,29.7089844 205.181712,29.7880859 L205.181712,33.1762695 C204.865305,33.0444336 204.337962,32.9521484 203.784251,32.9521484 C201.885813,32.9521484 200.778391,34.1123047 200.778391,36.1030273 L200.778391,44 L196.928782,44 Z M213.753132,44.3032227 C209.481647,44.3032227 206.752643,41.5610352 206.752643,36.9204102 C206.752643,32.3457031 209.521198,29.5639648 213.753132,29.5639648 C217.985065,29.5639648 220.75362,32.3325195 220.75362,36.9204102 C220.75362,41.5742188 218.024616,44.3032227 213.753132,44.3032227 Z M213.753132,41.3632812 C215.638385,41.3632812 216.838092,39.7680664 216.838092,36.9335938 C216.838092,34.1254883 215.625202,32.5039062 213.753132,32.5039062 C211.881061,32.5039062 210.654987,34.1254883 210.654987,36.9335938 C210.654987,39.7680664 211.854694,41.3632812 213.753132,41.3632812 Z M236.549649,35.1274414 L232.976895,35.1274414 C232.752774,33.6376953 231.764005,32.5830078 230.181973,32.5830078 C228.283536,32.5830078 227.097012,34.1914062 227.097012,36.9204102 C227.097012,39.7021484 228.283536,41.2841797 230.195157,41.2841797 C231.737637,41.2841797 232.739591,40.3613281 232.976895,38.8188477 L236.562833,38.8188477 C236.365079,42.1542969 233.87338,44.3032227 230.155606,44.3032227 C225.897305,44.3032227 223.194669,41.534668 223.194669,36.9204102 C223.194669,32.3852539 225.897305,29.5639648 230.129239,29.5639648 C233.952481,29.5639648 236.378262,31.9238281 236.549649,35.1274414 Z M245.740698,32.4116211 C244.053198,32.4116211 242.840307,33.6904297 242.708472,35.4570312 L248.707007,35.4570312 C248.627905,33.6508789 247.454565,32.4116211 245.740698,32.4116211 Z M248.759741,39.6757812 L252.292944,39.6757812 C251.871069,42.4443359 249.339819,44.3032227 245.846167,44.3032227 C241.495581,44.3032227 238.885229,41.5214844 238.885229,36.9995117 C238.885229,32.4907227 241.521948,29.5639648 245.701147,29.5639648 C249.814429,29.5639648 252.411597,32.3457031 252.411597,36.6435547 L252.411597,37.8168945 L242.668921,37.8168945 L242.668921,38.0541992 C242.668921,40.0712891 243.947729,41.4555664 245.912085,41.4555664 C247.322729,41.4555664 248.403784,40.7568359 248.759741,39.6757812 Z M255.129501,34.0200195 C255.129501,31.3305664 257.462997,29.5639648 261.088485,29.5639648 C264.634872,29.5639648 266.942001,31.3569336 266.994735,34.0991211 L263.448349,34.0991211 C263.369247,32.965332 262.459579,32.2666016 261.035751,32.2666016 C259.704208,32.2666016 258.834091,32.8730469 258.834091,33.7827148 C258.834091,34.4814453 259.440536,34.9560547 260.679794,35.2460938 L263.382431,35.8261719 C266.216903,36.4589844 267.363876,37.5795898 267.363876,39.6889648 C267.363876,42.4707031 264.806259,44.3032227 261.075302,44.3032227 C257.304794,44.3032227 254.984481,42.4838867 254.773544,39.7285156 L258.530868,39.7285156 C258.715438,40.9150391 259.651474,41.6005859 261.18077,41.6005859 C262.644149,41.6005859 263.52745,41.0205078 263.52745,40.0976562 C263.52745,39.3857422 263.052841,38.9902344 261.787216,38.6870117 L259.176864,38.1069336 C256.500595,37.5004883 255.129501,36.1030273 255.129501,34.0200195 Z M270.015862,34.0200195 C270.015862,31.3305664 272.349358,29.5639648 275.974847,29.5639648 C279.521233,29.5639648 281.828362,31.3569336 281.881097,34.0991211 L278.33471,34.0991211 C278.255608,32.965332 277.34594,32.2666016 275.922112,32.2666016 C274.590569,32.2666016 273.720452,32.8730469 273.720452,33.7827148 C273.720452,34.4814453 274.326897,34.9560547 275.566155,35.2460938 L278.268792,35.8261719 C281.103265,36.4589844 282.250237,37.5795898 282.250237,39.6889648 C282.250237,42.4707031 279.69262,44.3032227 275.961663,44.3032227 C272.191155,44.3032227 269.870843,42.4838867 269.659905,39.7285156 L273.41723,39.7285156 C273.6018,40.9150391 274.537835,41.6005859 276.067132,41.6005859 C277.530511,41.6005859 278.413812,41.0205078 278.413812,40.0976562 C278.413812,39.3857422 277.939202,38.9902344 276.673577,38.6870117 L274.063226,38.1069336 C271.386956,37.5004883 270.015862,36.1030273 270.015862,34.0200195 Z" id="DesignProcess" fill="#000000"></path>
                </g>
            </g>
        </g>
    </g>
</svg>