<?xml version="1.0" encoding="UTF-8"?>
<svg width="15px" height="16px" viewBox="0 0 15 16" version="1.1" xmlns="http://www.w3.org/2000/svg" xmlns:xlink="http://www.w3.org/1999/xlink">
    <!-- Generator: Sketch 53.2 (72643) - https://sketchapp.com -->
    <title>87 - World-Wide (Outline)</title>
    <desc>Created with Sketch.</desc>
    <g id="Page-1" stroke="none" stroke-width="1" fill="none" fill-rule="evenodd" stroke-linecap="round" stroke-linejoin="round">
        <g id="Version-1" transform="translate(-356.000000, -7124.000000)" stroke="#000000" stroke-width="0.5">
            <g id="Group-113" transform="translate(10.000000, 6761.000000)">
                <g id="Group-98" transform="translate(165.000000, 283.000000)">
                    <g id="Group-97" transform="translate(140.000000, 16.000000)">
                        <g id="Group-9" transform="translate(42.000000, 62.000000)">
                            <g id="87---World-Wide-(Outline)" transform="translate(0.000000, 3.000000)">
                                <path d="M13,7 C13,10.865931 10.0897931,14 6.5,14 C2.9102069,14 0,10.865931 0,7 C0,3.13406897 2.9102069,0 6.5,0 C10.0897931,0 13,3.13406897 13,7 L13,7 Z" id="Stroke-22"></path>
                                <path d="M9.83674138,1.08282759 C9.86363793,1.07268966 9.88582759,1.0557931 9.90846552,1.03962069 C8.91732759,0.380896552 7.75024138,0 6.5,0 C5.12513793,0 3.85091379,0.460793103 2.80082759,1.24527586 C2.80643103,1.27327586 2.81382759,1.30103448 2.82503448,1.32734483 C3.26837931,2.35634483 3.83903448,4.10224138 4.81291379,4.50462069 C5.28651724,4.70013793 5.72425862,4.62651724 6.1732069,4.86331034 C6.22139655,4.88865517 6.29132759,4.94731034 6.32136207,4.99510345 C6.54953448,5.35451724 6.41841379,5.8812069 6.64456897,6.01010345 C6.82365517,6.11196552 6.92541379,6.32027586 6.84898276,6.52231034 C6.53698276,7.34710345 6.80684483,8.29065517 7.53305172,8.93827586 C8.04431034,9.394 7.61889655,10.4505172 7.18877586,11.2796552 C7.03501724,11.5763103 7.30913793,11.9188276 7.60612069,11.8051379 C8.07591379,11.6253103 8.4647931,11.3643793 8.91531034,10.9470345 C9.56822414,10.3423793 9.7092069,9.68341379 10.3565172,9.17 C10.3636897,9.16444828 10.369069,9.15744828 10.3719828,9.14827586 C10.5373966,8.62593103 11.0513448,7.48589655 10.5326897,7.19551724 C10.0485517,6.92468966 9.86744828,6.14044828 9.39496552,5.60603448 C9.34072414,5.54448276 9.26362069,5.51431034 9.18562069,5.50344828 C8.60644828,5.42306897 8.346,4.94851724 7.95622414,5.264 C7.66439655,5.50031034 7.33625862,5.35644828 7.2345,4.97868966 C7.20132759,4.85558621 7.14282759,4.74575862 6.93281034,4.676 C6.77322414,4.62289655 6.69567241,4.42834483 6.75305172,4.25962069 C6.75394828,4.2572069 6.75484483,4.25455172 6.75551724,4.25213793 C6.83262069,4.02668966 6.39958621,4.06096552 6.17925862,4.10055172 C6.11762069,4.11165517 6.32696552,3.84348276 6.25815517,3.88717241 C5.98762069,4.05903448 5.65141379,3.76213793 5.66575862,3.42396552 C5.68055172,3.08096552 5.73994828,3.09737931 6.28594828,3.0297931 C6.87363793,2.73506897 7.15806897,2.94989655 7.13946552,3.6737931 C7.5027931,3.73172414 7.62965517,3.55865517 7.52005172,3.15506897 C7.48822414,3.03727586 7.51377586,2.90548276 7.58348276,2.8082069 C8.25275862,1.87044828 8.81198276,1.46155172 9.83674138,1.08282759 L9.83674138,1.08282759 Z" id="Stroke-300"></path>
                            </g>
                        </g>
                    </g>
                </g>
            </g>
        </g>
    </g>
</svg>