<?xml version="1.0" encoding="UTF-8"?>
<svg width="61px" height="54px" viewBox="0 0 61 54" version="1.1" xmlns="http://www.w3.org/2000/svg" xmlns:xlink="http://www.w3.org/1999/xlink">
    <!-- Generator: Sketch 53.2 (72643) - https://sketchapp.com -->
    <title>Group 120</title>
    <desc>Created with Sketch.</desc>
    <g id="Page-1" stroke="none" stroke-width="1" fill="none" fill-rule="evenodd">
        <g id="Version-1" transform="translate(-670.000000, -2052.000000)" fill="#FFFFFF">
            <g id="Group-120" transform="translate(670.000000, 2052.299173)">
                <path d="M30.4005435,52.9874066 C22.1125,52.9874066 13.8244565,52.9874066 5.54967391,52.9874066 C1.32608696,52.9685166 0,51.7784431 0,47.7548612 C0,33.5999127 0,19.4407664 0,5.27742229 C0,1.27273045 1.28630435,0.126733731 5.58945652,0.0952503049 C7.57858696,0.0952503049 9.56771739,0.240074066 11.5568478,0.0952503049 C15.3428261,-0.269957441 18.5652174,0.290447548 20.328913,3.98660181 C21.045,5.4852129 22.5434783,5.12630184 23.8165217,5.12630184 C34.3058696,5.12630184 44.7952174,5.12630184 55.2911957,5.12630184 C59.7733696,5.13889521 61,6.27859525 61,10.5099678 C61,22.889251 61,35.2727321 61,47.6604109 C61,51.8477066 59.7534783,52.9937033 55.251413,53 C46.9633696,53 38.6797464,52.9958022 30.4005435,52.9874066 Z M30.5132609,13.9479579 C22.2384783,13.9479579 13.9371739,14.0046281 5.68891304,13.9101778 C3.39478261,13.9101778 2.59913043,14.5839231 2.61902174,16.8003563 C2.71184783,27.0639533 2.71184783,37.3317481 2.61902174,47.6037407 C2.61902174,49.7949872 3.36163043,50.5128093 5.66902174,50.5065126 C22.218587,50.4351502 38.7703623,50.4351502 55.3243478,50.5065126 C57.6118478,50.5065126 58.4141304,49.8264706 58.3942391,47.6163341 C58.301413,37.3443415 58.301413,27.0765467 58.3942391,16.8129497 C58.3942391,14.6154066 57.645,13.8786944 55.3376087,13.9101778 C47.076087,14.0109248 38.7880435,13.9479579 30.5,13.9479579 L30.5132609,13.9479579 Z M30.5132609,11.4292838 L55.9940217,11.4292838 C57.1477174,11.4292838 58.4738043,11.7944915 58.3876087,9.85511248 C58.3478261,8.23056768 57.6317391,7.5379323 55.9675,7.64497595 C55.3044565,7.68905275 54.641413,7.64497595 53.9783696,7.64497595 C43.721087,7.64497595 33.4704348,7.5820091 23.2131522,7.68905275 C20.7333696,7.68905275 18.8901087,7.09716433 17.7828261,4.96888471 C16.7816304,3.03580233 15.25,2.32427689 12.9757609,2.58244099 C11.6506855,2.65200664 10.3225753,2.65200664 8.9975,2.58244099 C1.76369565,2.69578132 2.81130435,1.51830118 2.60576087,8.87912627 C2.54608696,10.9633291 3.22902174,11.4796573 5.37065217,11.4544705 C13.7581522,11.3600203 22.1390217,11.4292838 30.5,11.4292838 L30.5132609,11.4292838 Z" id="Shape" fill-rule="nonzero"></path>
                <path d="M28.6672553,36.7042543 C28.6672553,32.2647806 28.6672553,26.1008156 28.6672553,21.6613419 C28.6672553,20.5968701 28.2510229,18.9813776 30.0099402,19.0001624 C31.7688574,19.0189472 31.3526251,20.6594861 31.3526251,21.7114347 C31.3996191,26.1509084 31.3526251,32.2710422 31.3526251,36.7042543 L32.2589374,35.6121845 C33.2995183,34.4412655 34.2729648,33.2453001 35.3873933,32.1182123 C36.0117418,31.4920524 36.8106394,30.9786012 37.6565309,31.8552251 C38.3278733,32.5690474 37.9049276,33.2139921 37.327573,33.7337048 C35.3806799,35.6121845 33.3666525,37.4405714 31.4331862,39.3002663 C30.4530262,40.2332446 29.5735676,40.2332446 28.5934076,39.3002663 C26.7270755,37.509449 24.8003227,35.7687245 22.9205638,33.9904304 C22.2895019,33.3642705 21.5241715,32.7381106 22.3834898,31.8740099 C23.4106438,30.8408461 24.2162547,31.6924235 24.8875972,32.3686762 C25.8744706,33.3580089 26.7606427,34.4350039 27.6870953,35.4994757 L28.6672553,36.7042543 Z" id="Path"></path>
                <path d="M30.2182397,45.9637759 L18.2036282,45.9637759 C17.1957358,45.9637759 15.9609008,45.9637759 16.0009495,44.4569051 C16.0409982,42.9500343 17.2758332,43.0027748 18.2770509,43.0027748 L42.640013,43.0027748 C43.6345559,43.0027748 44.929464,42.8746908 44.9962118,44.3589585 C45.082984,46.1898065 43.661255,45.9939133 42.5599156,45.9939133 C38.4482486,45.9788446 34.3299067,45.9637759 30.2182397,45.9637759 Z" id="Path"></path>
            </g>
        </g>
    </g>
</svg>