<?xml version="1.0" encoding="UTF-8"?>
<svg width="1108px" height="182px" viewBox="0 0 1108 182" version="1.1" xmlns="http://www.w3.org/2000/svg" xmlns:xlink="http://www.w3.org/1999/xlink">
    <!-- Generator: Sketch 53.2 (72643) - https://sketchapp.com -->
    <title>Group 123</title>
    <desc>Created with Sketch.</desc>
    <g id="Page-1" stroke="none" stroke-width="1" fill="none" fill-rule="evenodd">
        <g id="Version-1" transform="translate(-143.000000, -8942.000000)">
            <g id="Group-123" transform="translate(143.000000, 8942.000000)">
                <g id="Group-14">
                    <rect id="Rectangle" stroke="#000000" stroke-width="2" fill="#FFFFFF" fill-rule="nonzero" x="977" y="57" width="130" height="64"></rect>
                    <text id="Allow-Access" font-family="SFProText-Semibold, SF Pro Text" font-size="20" font-weight="500" letter-spacing="0.5232348" fill="#000000">
                        <tspan x="1013.91457" y="84">Allow</tspan>
                        <tspan x="1005.25451" y="108">Access</tspan>
                    </text>
                    <g id="Group-18" transform="translate(747.000000, 0.000000)">
                        <rect id="Rectangle" stroke="#000000" stroke-width="2" fill="#FFFFFF" fill-rule="nonzero" x="1" y="127" width="169" height="54"></rect>
                        <rect id="Rectangle" stroke="#000000" stroke-width="2" fill="#FFFFFF" fill-rule="nonzero" x="1" y="64" width="169" height="54"></rect>
                        <rect id="Rectangle" stroke="#000000" stroke-width="2" fill="#FFFFFF" fill-rule="nonzero" x="1" y="1" width="169" height="54"></rect>
                        <path d="M37.5195312,33.0917969 L35,33.0917969 L35,19 L37.5195312,19 L37.5195312,33.0917969 Z M41.3577578,33.0917969 L41.3577578,22.4082031 L43.6917422,22.4082031 L43.6917422,24.1171875 L43.8577578,24.1171875 C44.3655703,22.9257812 45.439789,22.1933594 47.0315859,22.1933594 C49.4143984,22.1933594 50.7132265,23.6289062 50.7132265,26.1777344 L50.7132265,33.0917969 L48.2913515,33.0917969 L48.2913515,26.7539062 C48.2913515,25.1230469 47.6077578,24.3027344 46.1331484,24.3027344 C44.6878359,24.3027344 43.7796328,25.2988281 43.7796328,26.8710938 L43.7796328,33.0917969 L41.3577578,33.0917969 Z M53.95575,25.4648438 C53.95575,23.53125 55.7135625,22.1933594 58.2330937,22.1933594 C60.7721562,22.1933594 62.3639531,23.3164062 62.5397344,25.2597656 L60.2643437,25.2597656 C60.0885625,24.5078125 59.3756719,24.0292969 58.2428594,24.0292969 C57.1393437,24.0292969 56.3092656,24.5566406 56.3092656,25.328125 C56.3092656,25.9335938 56.8170781,26.3046875 57.8912969,26.5488281 L59.7760625,26.9785156 C61.8170781,27.4375 62.7643437,28.3164062 62.7643437,29.8886719 C62.7643437,31.9394531 60.8795781,33.3066406 58.2135625,33.3066406 C55.5475469,33.3066406 53.8678594,32.1542969 53.6823125,30.2109375 L56.0748906,30.2109375 C56.3092656,31.0019531 57.0612187,31.4707031 58.2721562,31.4707031 C59.4928594,31.4707031 60.3424687,30.9335938 60.3424687,30.1425781 C60.3424687,29.5371094 59.8834844,29.15625 58.8678594,28.9316406 L56.9733281,28.4921875 C54.9225469,28.0234375 53.95575,27.0761719 53.95575,25.4648438 Z M66.5342109,19.7910156 L68.9463203,19.7910156 L68.9463203,22.4765625 L71.2314765,22.4765625 L71.2314765,24.4101562 L68.9463203,24.4101562 L68.9463203,29.6542969 C68.9463203,30.7089844 69.395539,31.1777344 70.411164,31.1777344 C70.7529609,31.1777344 70.9385078,31.1582031 71.2314765,31.1289062 L71.2314765,33.0234375 C70.879914,33.0917969 70.4306953,33.140625 69.9619453,33.140625 C67.5107734,33.140625 66.5342109,32.3105469 66.5342109,30.2402344 L66.5342109,24.4101562 L64.8447578,24.4101562 L64.8447578,22.4765625 L66.5342109,22.4765625 L66.5342109,19.7910156 Z M77.9212656,31.3632812 C79.3861093,31.3632812 80.4798593,30.4160156 80.4798593,29.1757812 L80.4798593,28.3261719 L78.06775,28.4824219 C76.7103281,28.5703125 76.0755625,29.0585938 76.0755625,29.9277344 C76.0755625,30.8261719 76.8470468,31.3632812 77.9212656,31.3632812 Z M77.208375,33.2675781 C75.1478281,33.2675781 73.6732187,32.0175781 73.6732187,30.0644531 C73.6732187,28.1308594 75.1282968,27.0175781 77.7259531,26.8613281 L80.4798593,26.6953125 L80.4798593,25.796875 C80.4798593,24.7519531 79.7767343,24.1660156 78.4681406,24.1660156 C77.3548593,24.1660156 76.5931406,24.5566406 76.3685312,25.2792969 L74.083375,25.2792969 C74.2786875,23.3945312 76.0462656,22.1933594 78.5853281,22.1933594 C81.3294687,22.1933594 82.8724375,23.53125 82.8724375,25.796875 L82.8724375,33.0917969 L80.5384531,33.0917969 L80.5384531,31.6269531 L80.3724375,31.6269531 C79.7767343,32.6621094 78.6048593,33.2675781 77.208375,33.2675781 Z M90.9880077,30.9628906 C92.6774609,30.9628906 93.6930859,29.6738281 93.6930859,27.6328125 C93.6930859,25.5917969 92.6676952,24.2929688 90.9880077,24.2929688 C89.2985546,24.2929688 88.3415234,25.5917969 88.3415234,27.6328125 C88.3415234,29.6738281 89.2985546,30.9628906 90.9880077,30.9628906 Z M90.9880077,37.1542969 C88.2438671,37.1542969 86.4469921,35.9433594 86.2516796,34.1074219 L88.6833202,34.1074219 C88.8395702,34.8398438 89.6989452,35.3085938 91.0270702,35.3085938 C92.6872265,35.3085938 93.6540234,34.5273438 93.6540234,33.1894531 L93.6540234,31.1679688 L93.4880077,31.1679688 C92.8727734,32.3105469 91.710664,32.9355469 90.226289,32.9355469 C87.5309765,32.9355469 85.851289,30.8457031 85.851289,27.6328125 C85.851289,24.3613281 87.5407421,22.2324219 90.2653515,22.2324219 C91.7204296,22.2324219 92.9899609,22.9550781 93.5758984,24.1171875 L93.741914,24.1171875 L93.741914,22.4082031 L96.0758984,22.4082031 L96.0758984,33.1308594 C96.0758984,35.6015625 94.1032421,37.1542969 90.9880077,37.1542969 Z M99.6602187,33.0917969 L99.6602187,22.4082031 L101.994203,22.4082031 L101.994203,24.0683594 L102.160219,24.0683594 C102.453187,23.0136719 103.605531,22.2324219 104.982484,22.2324219 C105.334047,22.2324219 105.763734,22.2714844 105.988344,22.3398438 L105.988344,24.5859375 C105.802797,24.5175781 105.158266,24.4492188 104.748109,24.4492188 C103.175844,24.4492188 102.082094,25.4257812 102.082094,26.9199219 L102.082094,33.0917969 L99.6602187,33.0917969 Z M112.111726,31.3632812 C113.57657,31.3632812 114.67032,30.4160156 114.67032,29.1757812 L114.67032,28.3261719 L112.258211,28.4824219 C110.900789,28.5703125 110.266023,29.0585938 110.266023,29.9277344 C110.266023,30.8261719 111.037508,31.3632812 112.111726,31.3632812 Z M111.398836,33.2675781 C109.338289,33.2675781 107.86368,32.0175781 107.86368,30.0644531 C107.86368,28.1308594 109.318758,27.0175781 111.916414,26.8613281 L114.67032,26.6953125 L114.67032,25.796875 C114.67032,24.7519531 113.967195,24.1660156 112.658601,24.1660156 C111.54532,24.1660156 110.783601,24.5566406 110.558992,25.2792969 L108.273836,25.2792969 C108.469148,23.3945312 110.236726,22.1933594 112.775789,22.1933594 C115.51993,22.1933594 117.062898,23.53125 117.062898,25.796875 L117.062898,33.0917969 L114.728914,33.0917969 L114.728914,31.6269531 L114.562898,31.6269531 C113.967195,32.6621094 112.79532,33.2675781 111.398836,33.2675781 Z M120.588625,33.0917969 L120.588625,22.4082031 L122.922609,22.4082031 L122.922609,24.1367188 L123.088625,24.1367188 C123.547609,22.9160156 124.641359,22.1933594 126.057375,22.1933594 C127.531984,22.1933594 128.557375,22.9355469 129.006594,24.1367188 L129.172609,24.1367188 C129.699953,22.9648438 130.930422,22.1933594 132.414797,22.1933594 C134.553469,22.1933594 135.842531,23.53125 135.842531,25.7480469 L135.842531,33.0917969 L133.430422,33.0917969 L133.430422,26.3632812 C133.430422,24.9863281 132.776125,24.3027344 131.477297,24.3027344 C130.217531,24.3027344 129.387453,25.2207031 129.387453,26.4414062 L129.387453,33.0917969 L127.033937,33.0917969 L127.033937,26.1875 C127.033937,25.015625 126.29175,24.3027344 125.100344,24.3027344 C123.899172,24.3027344 123.0105,25.2890625 123.0105,26.5976562 L123.0105,33.0917969 L120.588625,33.0917969 Z" id="Instagram" fill="#000000"></path>
                        <text id="Facebook" font-family="SFProText-Semibold, SF Pro Text" font-size="20" font-weight="500" letter-spacing="0.6155703" fill="#000000">
                            <tspan x="36" y="98">Facebook</tspan>
                        </text>
                        <text id="Twitter" font-family="SFProText-Semibold, SF Pro Text" font-size="20" font-weight="500" letter-spacing="0.6155703" fill="#000000">
                            <tspan x="48" y="161">Twitter</tspan>
                        </text>
                    </g>
                    <g id="Group-13" transform="translate(641.000000, 27.000000)" fill-rule="nonzero" stroke="#000000">
                        <polyline id="Path-2" points="0.728280893 63.2041299 62.6887464 63.2041299 106.301979 63.2041299"></polyline>
                        <polyline id="Path-3" points="107.039816 126.10161 76.9930419 126.10161 76.9930419 63.2784295"></polyline>
                        <polyline id="Path-3" transform="translate(92.016429, 31.690020) scale(1, -1) translate(-92.016429, -31.690020) " points="107.039816 63.1016096 76.9930419 63.1016096 76.9930419 0.27842948"></polyline>
                    </g>
                    <path id="Line-2" d="M926.997433,88.7365484 L974.997536,88.5000061 L975.49753,88.4975421 L975.502458,89.49753 L975.002464,89.4999939 L927.002361,89.7365363 L927.022072,93.7364877 L918.000006,89.2808934 L926.977721,84.736597 L926.997433,88.7365484 Z" fill="#000000" fill-rule="nonzero"></path>
                    <polyline id="Path-3" stroke="#000000" fill-rule="nonzero" transform="translate(932.983571, 120.690020) scale(-1, 1) translate(-932.983571, -120.690020) " points="948.006958 152.10161 917.960184 152.10161 917.960184 89.2784295"></polyline>
                    <polyline id="Path-3" stroke="#000000" fill-rule="nonzero" transform="translate(932.983571, 57.690020) scale(-1, -1) translate(-932.983571, -57.690020) " points="948.006958 89.1016096 917.960184 89.1016096 917.960184 26.2784295"></polyline>
                    <g id="Group-15" transform="translate(0.000000, 58.000000)">
                        <rect id="Rectangle" stroke="#000000" stroke-width="2" fill="#FFFFFF" fill-rule="nonzero" x="1" y="1" width="130" height="64"></rect>
                        <path d="M12,25.7226562 L17.2832031,25.7226562 C21.4726562,25.7226562 23.9140625,28.28125 23.9140625,32.7050781 C23.9140625,37.2265625 21.5019531,39.8144531 17.2832031,39.8144531 L12,39.8144531 L12,25.7226562 Z M14.5195312,27.9003906 L14.5195312,37.6367188 L16.9511719,37.6367188 C19.7539062,37.6367188 21.3457031,35.8886719 21.3457031,32.7441406 C21.3457031,29.6679688 19.7148437,27.9003906 16.9511719,27.9003906 L14.5195312,27.9003906 Z M30.6482348,38.0859375 C32.1130785,38.0859375 33.2068285,37.1386719 33.2068285,35.8984375 L33.2068285,35.0488281 L30.7947192,35.2050781 C29.4372973,35.2929688 28.8025317,35.78125 28.8025317,36.6503906 C28.8025317,37.5488281 29.574016,38.0859375 30.6482348,38.0859375 Z M29.9353442,39.9902344 C27.8747973,39.9902344 26.4001879,38.7402344 26.4001879,36.7871094 C26.4001879,34.8535156 27.855266,33.7402344 30.4529223,33.5839844 L33.2068285,33.4179688 L33.2068285,32.5195312 C33.2068285,31.4746094 32.5037035,30.8886719 31.1951098,30.8886719 C30.0818285,30.8886719 29.3201098,31.2792969 29.0955004,32.0019531 L26.8103442,32.0019531 C27.0056567,30.1171875 28.7732348,28.9160156 31.3122973,28.9160156 C34.0564379,28.9160156 35.5994067,30.2539062 35.5994067,32.5195312 L35.5994067,39.8144531 L33.2654223,39.8144531 L33.2654223,38.3496094 L33.0994067,38.3496094 C32.5037035,39.3847656 31.3318285,39.9902344 29.9353442,39.9902344 Z M38.7886571,32.1875 C38.7886571,30.2539062 40.5464696,28.9160156 43.0660008,28.9160156 C45.6050633,28.9160156 47.1968602,30.0390625 47.3726415,31.9824219 L45.0972508,31.9824219 C44.9214696,31.2304688 44.208579,30.7519531 43.0757665,30.7519531 C41.9722508,30.7519531 41.1421727,31.2792969 41.1421727,32.0507812 C41.1421727,32.65625 41.6499852,33.0273438 42.724204,33.2714844 L44.6089696,33.7011719 C46.6499852,34.1601562 47.5972508,35.0390625 47.5972508,36.6113281 C47.5972508,38.6621094 45.7124852,40.0292969 43.0464696,40.0292969 C40.380454,40.0292969 38.7007665,38.8769531 38.5152196,36.9335938 L40.9077977,36.9335938 C41.1421727,37.7246094 41.8941258,38.1933594 43.1050633,38.1933594 C44.3257665,38.1933594 45.1753758,37.65625 45.1753758,36.8652344 C45.1753758,36.2597656 44.7163915,35.8789062 43.7007665,35.6542969 L41.8062352,35.2148438 C39.755454,34.7460938 38.7886571,33.7988281 38.7886571,32.1875 Z M50.6693138,39.8144531 L50.6693138,25 L53.0521263,25 L53.0521263,30.859375 L53.2279075,30.859375 C53.73572,29.6582031 54.8782982,28.9355469 56.470095,28.9355469 C58.7552513,28.9355469 60.14197,30.3808594 60.14197,32.9199219 L60.14197,39.8144531 L57.720095,39.8144531 L57.720095,33.4960938 C57.720095,31.875 56.9779075,31.0449219 55.5716575,31.0449219 C53.9798607,31.0449219 53.0911888,32.0800781 53.0911888,33.6132812 L53.0911888,39.8144531 L50.6693138,39.8144531 Z M69.4737986,39.9902344 C67.9796579,39.9902344 66.7394236,39.296875 66.1339548,38.125 L65.9679392,38.125 L65.9679392,39.8144531 L63.6339548,39.8144531 L63.6339548,25 L66.0558298,25 L66.0558298,30.8300781 L66.2218454,30.8300781 C66.7784861,29.6679688 68.0089548,28.9550781 69.4737986,28.9550781 C72.1788767,28.9550781 73.8585642,31.0546875 73.8585642,34.4726562 C73.8585642,37.8710938 72.1691111,39.9902344 69.4737986,39.9902344 Z M68.7120798,31.015625 C67.0616892,31.015625 66.0167673,32.34375 66.0167673,34.4726562 C66.0167673,36.6015625 67.0519236,37.9296875 68.7120798,37.9296875 C70.3722361,37.9296875 71.3683298,36.6210938 71.3683298,34.4726562 C71.3683298,32.3242188 70.3624704,31.015625 68.7120798,31.015625 Z M81.4228146,40.0292969 C78.2196896,40.0292969 76.2860959,37.9394531 76.2860959,34.4726562 C76.2860959,31.0253906 78.2489865,28.9160156 81.4228146,28.9160156 C84.6064084,28.9160156 86.5595334,31.015625 86.5595334,34.4726562 C86.5595334,37.9394531 84.616174,40.0292969 81.4228146,40.0292969 Z M81.4228146,37.9980469 C83.1122677,37.9980469 84.069299,36.7089844 84.069299,34.4726562 C84.069299,32.2460938 83.1025021,30.9472656 81.4228146,30.9472656 C79.7333615,30.9472656 78.7665646,32.2460938 78.7665646,34.4726562 C78.7665646,36.7089844 79.7333615,37.9980469 81.4228146,37.9980469 Z M93.1765182,38.0859375 C94.6413619,38.0859375 95.7351119,37.1386719 95.7351119,35.8984375 L95.7351119,35.0488281 L93.3230025,35.2050781 C91.9655807,35.2929688 91.330815,35.78125 91.330815,36.6503906 C91.330815,37.5488281 92.1022994,38.0859375 93.1765182,38.0859375 Z M92.4636275,39.9902344 C90.4030807,39.9902344 88.9284713,38.7402344 88.9284713,36.7871094 C88.9284713,34.8535156 90.3835494,33.7402344 92.9812057,33.5839844 L95.7351119,33.4179688 L95.7351119,32.5195312 C95.7351119,31.4746094 95.0319869,30.8886719 93.7233932,30.8886719 C92.6101119,30.8886719 91.8483932,31.2792969 91.6237838,32.0019531 L89.3386275,32.0019531 C89.53394,30.1171875 91.3015182,28.9160156 93.8405807,28.9160156 C96.5847213,28.9160156 98.12769,30.2539062 98.12769,32.5195312 L98.12769,39.8144531 L95.7937057,39.8144531 L95.7937057,38.3496094 L95.62769,38.3496094 C95.0319869,39.3847656 93.8601119,39.9902344 92.4636275,39.9902344 Z M101.561081,39.8144531 L101.561081,29.1308594 L103.895065,29.1308594 L103.895065,30.7910156 L104.061081,30.7910156 C104.35405,29.7363281 105.506394,28.9550781 106.883347,28.9550781 C107.234909,28.9550781 107.664597,28.9941406 107.889206,29.0625 L107.889206,31.3085938 C107.703659,31.2402344 107.059128,31.171875 106.648972,31.171875 C105.076706,31.171875 103.982956,32.1484375 103.982956,33.6425781 L103.982956,39.8144531 L101.561081,39.8144531 Z M113.998378,39.9902344 C111.2933,39.9902344 109.603847,37.8613281 109.603847,34.4628906 C109.603847,31.0839844 111.303066,28.9550781 113.998378,28.9550781 C115.463222,28.9550781 116.67416,29.6582031 117.240566,30.8300781 L117.406582,30.8300781 L117.406582,25 L119.828457,25 L119.828457,39.8144531 L117.484707,39.8144531 L117.484707,38.125 L117.318691,38.125 C116.713222,39.296875 115.482753,39.9902344 113.998378,39.9902344 Z M114.750332,31.015625 C113.099941,31.015625 112.084316,32.3242188 112.084316,34.4726562 C112.084316,36.6308594 113.090175,37.9296875 114.750332,37.9296875 C116.420253,37.9296875 117.435878,36.6210938 117.435878,34.4726562 C117.435878,32.34375 116.410488,31.015625 114.750332,31.015625 Z" id="Dashboard" fill="#000000"></path>
                    </g>
                    <g id="Group-15" transform="translate(478.000000, 58.000000)" fill="#FFFFFF" fill-rule="nonzero" stroke="#000000" stroke-width="2">
                        <rect id="Rectangle" x="1" y="1" width="164" height="64"></rect>
                    </g>
                    <g id="Group-16" transform="translate(213.000000, 58.000000)">
                        <g id="Group-15" fill="#FFFFFF" fill-rule="nonzero" stroke="#000000" stroke-width="2">
                            <rect id="Rectangle" x="1" y="1" width="213" height="64"></rect>
                        </g>
                        <text id="Account-Settings" font-family="SFProText-Semibold, SF Pro Text" font-size="20" font-weight="500" letter-spacing="0.5232348" fill="#000000">
                            <tspan x="19" y="40">Account Settings</tspan>
                        </text>
                    </g>
                    <text id="Link-Social-Media-Fi" font-family="SFProText-Semibold, SF Pro Text" font-size="20" font-weight="500" letter-spacing="0.5232348" fill="#000000">
                        <tspan x="505.731584" y="86">Link Social</tspan>
                        <tspan x="503.392716" y="110">Media Files</tspan>
                    </text>
                    <path id="Line" d="M468.753974,91.066915 L427.994747,90.6386443 L427.494774,90.6333909 L427.505281,89.6334461 L428.005253,89.6386995 L468.76448,90.0669702 L468.806507,86.067191 L477.75873,90.6615034 L468.711947,95.0666942 L468.753974,91.066915 Z" fill="#000000" fill-rule="nonzero"></path>
                    <path id="Line" d="M203.916016,91.5146571 L132.000862,91.6386711 L131.500863,91.6395334 L131.499139,90.6395348 L131.999138,90.6386726 L203.914291,90.5146585 L203.907393,86.5146645 L212.91514,90.9991378 L203.922913,95.5146511 L203.916016,91.5146571 Z" fill="#000000" fill-rule="nonzero"></path>
                </g>
            </g>
        </g>
    </g>
</svg>