<?xml version="1.0" encoding="UTF-8"?>
<svg width="1108px" height="182px" viewBox="0 0 1108 182" version="1.1" xmlns="http://www.w3.org/2000/svg" xmlns:xlink="http://www.w3.org/1999/xlink">
    <!-- Generator: Sketch 54.1 (76490) - https://sketchapp.com -->
    <title>Group 123</title>
    <desc>Created with Sketch.</desc>
    <g id="Page-1" stroke="none" stroke-width="1" fill="none" fill-rule="evenodd">
        <g id="Version-1" transform="translate(-143.000000, -8942.000000)">
            <g id="Group-123" transform="translate(143.000000, 8942.000000)">
                <g id="Group-14">
                    <rect id="Rectangle" stroke="#000000" stroke-width="2" fill="#FFFFFF" fill-rule="nonzero" x="977" y="59" width="130" height="64"></rect>
                    <path d="M1024.74465,86 L1023.55324,82.3964844 L1018.36769,82.3964844 L1017.15676,86 L1014.60793,86 L1019.60793,71.9082031 L1022.43996,71.9082031 L1027.44973,86 L1024.74465,86 Z M1020.88723,74.59375 L1018.95363,80.4042969 L1022.9673,80.4042969 L1021.05324,74.59375 L1020.88723,74.59375 Z M1030.23859,86 L1030.23859,71.1855469 L1032.66046,71.1855469 L1032.66046,86 L1030.23859,86 Z M1036.33799,86 L1036.33799,71.1855469 L1038.75987,71.1855469 L1038.75987,86 L1036.33799,86 Z M1046.94912,86.2148438 C1043.74599,86.2148438 1041.8124,84.125 1041.8124,80.6582031 C1041.8124,77.2109375 1043.77529,75.1015625 1046.94912,75.1015625 C1050.13271,75.1015625 1052.08584,77.2011719 1052.08584,80.6582031 C1052.08584,84.125 1050.14248,86.2148438 1046.94912,86.2148438 Z M1046.94912,84.1835938 C1048.63857,84.1835938 1049.5956,82.8945312 1049.5956,80.6582031 C1049.5956,78.4316406 1048.6288,77.1328125 1046.94912,77.1328125 C1045.25966,77.1328125 1044.29287,78.4316406 1044.29287,80.6582031 C1044.29287,82.8945312 1045.25966,84.1835938 1046.94912,84.1835938 Z M1068.9372,75.3164062 L1066.04657,86 L1063.49774,86 L1061.41766,78.3046875 L1061.25165,78.3046875 L1059.18134,86 L1056.66181,86 L1053.77118,75.3164062 L1056.21259,75.3164062 L1057.98993,83.2949219 L1058.15595,83.2949219 L1060.20673,75.3164062 L1062.52118,75.3164062 L1064.59149,83.2949219 L1064.75751,83.2949219 L1066.52509,75.3164062 L1068.9372,75.3164062 Z M1016.08459,110 L1014.89319,106.396484 L1009.70764,106.396484 L1008.4967,110 L1005.94787,110 L1010.94787,95.9082031 L1013.7799,95.9082031 L1018.78967,110 L1016.08459,110 Z M1012.22717,98.59375 L1010.29358,104.404297 L1014.30725,104.404297 L1012.39319,98.59375 L1012.22717,98.59375 Z M1030.12345,102.910156 L1027.81876,102.910156 C1027.59416,101.875 1026.79337,101.132812 1025.46525,101.132812 C1023.80509,101.132812 1022.81876,102.412109 1022.81876,104.628906 C1022.81876,106.875 1023.81486,108.183594 1025.46525,108.183594 C1026.72501,108.183594 1027.56486,107.587891 1027.81876,106.474609 L1030.12345,106.474609 C1029.85978,108.710938 1028.18009,110.214844 1025.47501,110.214844 C1022.26212,110.214844 1020.36759,108.144531 1020.36759,104.628906 C1020.36759,101.162109 1022.25236,99.1015625 1025.46525,99.1015625 C1028.20939,99.1015625 1029.86955,100.664062 1030.12345,102.910156 Z M1042.18966,102.910156 L1039.88497,102.910156 C1039.66036,101.875 1038.85958,101.132812 1037.53145,101.132812 C1035.8713,101.132812 1034.88497,102.412109 1034.88497,104.628906 C1034.88497,106.875 1035.88106,108.183594 1037.53145,108.183594 C1038.79122,108.183594 1039.63106,107.587891 1039.88497,106.474609 L1042.18966,106.474609 C1041.92598,108.710938 1040.2463,110.214844 1037.54122,110.214844 C1034.32833,110.214844 1032.4338,108.144531 1032.4338,104.628906 C1032.4338,101.162109 1034.31856,99.1015625 1037.53145,99.1015625 C1040.27559,99.1015625 1041.93575,100.664062 1042.18966,102.910156 Z M1049.50977,101.025391 C1048.06445,101.025391 1047.04883,102.060547 1046.94141,103.623047 L1051.9707,103.623047 C1051.92188,102.041016 1050.96484,101.025391 1049.50977,101.025391 Z M1051.99023,107.060547 L1054.28516,107.060547 C1053.82617,109.003906 1052.05859,110.214844 1049.53906,110.214844 C1046.39453,110.214844 1044.5,108.134766 1044.5,104.697266 C1044.5,101.259766 1046.42383,99.1015625 1049.51953,99.1015625 C1052.56641,99.1015625 1054.39258,101.123047 1054.39258,104.492188 L1054.39258,105.273438 L1046.93164,105.273438 L1046.93164,105.400391 C1046.99023,107.177734 1048.01563,108.291016 1049.60742,108.291016 C1050.80859,108.291016 1051.63867,107.851562 1051.99023,107.060547 Z M1057.10331,102.373047 C1057.10331,100.439453 1058.86113,99.1015625 1061.38066,99.1015625 C1063.91972,99.1015625 1065.51152,100.224609 1065.6873,102.167969 L1063.41191,102.167969 C1063.23613,101.416016 1062.52323,100.9375 1061.39042,100.9375 C1060.28691,100.9375 1059.45683,101.464844 1059.45683,102.236328 C1059.45683,102.841797 1059.96464,103.212891 1061.03886,103.457031 L1062.92363,103.886719 C1064.96464,104.345703 1065.91191,105.224609 1065.91191,106.796875 C1065.91191,108.847656 1064.02714,110.214844 1061.36113,110.214844 C1058.69511,110.214844 1057.01542,109.0625 1056.82988,107.119141 L1059.22245,107.119141 C1059.45683,107.910156 1060.20878,108.378906 1061.41972,108.378906 C1062.64042,108.378906 1063.49003,107.841797 1063.49003,107.050781 C1063.49003,106.445312 1063.03105,106.064453 1062.01542,105.839844 L1060.12089,105.400391 C1058.07011,104.931641 1057.10331,103.984375 1057.10331,102.373047 Z M1068.44686,102.373047 C1068.44686,100.439453 1070.20467,99.1015625 1072.7242,99.1015625 C1075.26327,99.1015625 1076.85506,100.224609 1077.03084,102.167969 L1074.75545,102.167969 C1074.57967,101.416016 1073.86678,100.9375 1072.73397,100.9375 C1071.63045,100.9375 1070.80038,101.464844 1070.80038,102.236328 C1070.80038,102.841797 1071.30819,103.212891 1072.38241,103.457031 L1074.26717,103.886719 C1076.30819,104.345703 1077.25545,105.224609 1077.25545,106.796875 C1077.25545,108.847656 1075.37069,110.214844 1072.70467,110.214844 C1070.03866,110.214844 1068.35897,109.0625 1068.17342,107.119141 L1070.566,107.119141 C1070.80038,107.910156 1071.55233,108.378906 1072.76327,108.378906 C1073.98397,108.378906 1074.83358,107.841797 1074.83358,107.050781 C1074.83358,106.445312 1074.37459,106.064453 1073.35897,105.839844 L1071.46444,105.400391 C1069.41366,104.931641 1068.44686,103.984375 1068.44686,102.373047 Z" id="AllowAccess" fill="#000000" fill-rule="nonzero"></path>
                    <g id="Group-18" transform="translate(747.000000, 0.000000)">
                        <rect id="Rectangle" stroke="#000000" stroke-width="2" fill="#FFFFFF" fill-rule="nonzero" x="1" y="127" width="169" height="54"></rect>
                        <rect id="Rectangle" stroke="#000000" stroke-width="2" fill="#FFFFFF" fill-rule="nonzero" x="1" y="64" width="169" height="54"></rect>
                        <rect id="Rectangle" stroke="#000000" stroke-width="2" fill="#FFFFFF" fill-rule="nonzero" x="1" y="1" width="169" height="54"></rect>
                        <path d="M37.5195312,33.0917969 L35,33.0917969 L35,19 L37.5195312,19 L37.5195312,33.0917969 Z M41.3577578,33.0917969 L41.3577578,22.4082031 L43.6917422,22.4082031 L43.6917422,24.1171875 L43.8577578,24.1171875 C44.3655703,22.9257812 45.439789,22.1933594 47.0315859,22.1933594 C49.4143984,22.1933594 50.7132265,23.6289062 50.7132265,26.1777344 L50.7132265,33.0917969 L48.2913515,33.0917969 L48.2913515,26.7539062 C48.2913515,25.1230469 47.6077578,24.3027344 46.1331484,24.3027344 C44.6878359,24.3027344 43.7796328,25.2988281 43.7796328,26.8710938 L43.7796328,33.0917969 L41.3577578,33.0917969 Z M53.95575,25.4648438 C53.95575,23.53125 55.7135625,22.1933594 58.2330937,22.1933594 C60.7721562,22.1933594 62.3639531,23.3164062 62.5397344,25.2597656 L60.2643437,25.2597656 C60.0885625,24.5078125 59.3756719,24.0292969 58.2428594,24.0292969 C57.1393437,24.0292969 56.3092656,24.5566406 56.3092656,25.328125 C56.3092656,25.9335938 56.8170781,26.3046875 57.8912969,26.5488281 L59.7760625,26.9785156 C61.8170781,27.4375 62.7643437,28.3164062 62.7643437,29.8886719 C62.7643437,31.9394531 60.8795781,33.3066406 58.2135625,33.3066406 C55.5475469,33.3066406 53.8678594,32.1542969 53.6823125,30.2109375 L56.0748906,30.2109375 C56.3092656,31.0019531 57.0612187,31.4707031 58.2721562,31.4707031 C59.4928594,31.4707031 60.3424687,30.9335938 60.3424687,30.1425781 C60.3424687,29.5371094 59.8834844,29.15625 58.8678594,28.9316406 L56.9733281,28.4921875 C54.9225469,28.0234375 53.95575,27.0761719 53.95575,25.4648438 Z M66.5342109,19.7910156 L68.9463203,19.7910156 L68.9463203,22.4765625 L71.2314765,22.4765625 L71.2314765,24.4101562 L68.9463203,24.4101562 L68.9463203,29.6542969 C68.9463203,30.7089844 69.395539,31.1777344 70.411164,31.1777344 C70.7529609,31.1777344 70.9385078,31.1582031 71.2314765,31.1289062 L71.2314765,33.0234375 C70.879914,33.0917969 70.4306953,33.140625 69.9619453,33.140625 C67.5107734,33.140625 66.5342109,32.3105469 66.5342109,30.2402344 L66.5342109,24.4101562 L64.8447578,24.4101562 L64.8447578,22.4765625 L66.5342109,22.4765625 L66.5342109,19.7910156 Z M77.9212656,31.3632812 C79.3861093,31.3632812 80.4798593,30.4160156 80.4798593,29.1757812 L80.4798593,28.3261719 L78.06775,28.4824219 C76.7103281,28.5703125 76.0755625,29.0585938 76.0755625,29.9277344 C76.0755625,30.8261719 76.8470468,31.3632812 77.9212656,31.3632812 Z M77.208375,33.2675781 C75.1478281,33.2675781 73.6732187,32.0175781 73.6732187,30.0644531 C73.6732187,28.1308594 75.1282968,27.0175781 77.7259531,26.8613281 L80.4798593,26.6953125 L80.4798593,25.796875 C80.4798593,24.7519531 79.7767343,24.1660156 78.4681406,24.1660156 C77.3548593,24.1660156 76.5931406,24.5566406 76.3685312,25.2792969 L74.083375,25.2792969 C74.2786875,23.3945312 76.0462656,22.1933594 78.5853281,22.1933594 C81.3294687,22.1933594 82.8724375,23.53125 82.8724375,25.796875 L82.8724375,33.0917969 L80.5384531,33.0917969 L80.5384531,31.6269531 L80.3724375,31.6269531 C79.7767343,32.6621094 78.6048593,33.2675781 77.208375,33.2675781 Z M90.9880077,30.9628906 C92.6774609,30.9628906 93.6930859,29.6738281 93.6930859,27.6328125 C93.6930859,25.5917969 92.6676952,24.2929688 90.9880077,24.2929688 C89.2985546,24.2929688 88.3415234,25.5917969 88.3415234,27.6328125 C88.3415234,29.6738281 89.2985546,30.9628906 90.9880077,30.9628906 Z M90.9880077,37.1542969 C88.2438671,37.1542969 86.4469921,35.9433594 86.2516796,34.1074219 L88.6833202,34.1074219 C88.8395702,34.8398438 89.6989452,35.3085938 91.0270702,35.3085938 C92.6872265,35.3085938 93.6540234,34.5273438 93.6540234,33.1894531 L93.6540234,31.1679688 L93.4880077,31.1679688 C92.8727734,32.3105469 91.710664,32.9355469 90.226289,32.9355469 C87.5309765,32.9355469 85.851289,30.8457031 85.851289,27.6328125 C85.851289,24.3613281 87.5407421,22.2324219 90.2653515,22.2324219 C91.7204296,22.2324219 92.9899609,22.9550781 93.5758984,24.1171875 L93.741914,24.1171875 L93.741914,22.4082031 L96.0758984,22.4082031 L96.0758984,33.1308594 C96.0758984,35.6015625 94.1032421,37.1542969 90.9880077,37.1542969 Z M99.6602187,33.0917969 L99.6602187,22.4082031 L101.994203,22.4082031 L101.994203,24.0683594 L102.160219,24.0683594 C102.453187,23.0136719 103.605531,22.2324219 104.982484,22.2324219 C105.334047,22.2324219 105.763734,22.2714844 105.988344,22.3398438 L105.988344,24.5859375 C105.802797,24.5175781 105.158266,24.4492188 104.748109,24.4492188 C103.175844,24.4492188 102.082094,25.4257812 102.082094,26.9199219 L102.082094,33.0917969 L99.6602187,33.0917969 Z M112.111726,31.3632812 C113.57657,31.3632812 114.67032,30.4160156 114.67032,29.1757812 L114.67032,28.3261719 L112.258211,28.4824219 C110.900789,28.5703125 110.266023,29.0585938 110.266023,29.9277344 C110.266023,30.8261719 111.037508,31.3632812 112.111726,31.3632812 Z M111.398836,33.2675781 C109.338289,33.2675781 107.86368,32.0175781 107.86368,30.0644531 C107.86368,28.1308594 109.318758,27.0175781 111.916414,26.8613281 L114.67032,26.6953125 L114.67032,25.796875 C114.67032,24.7519531 113.967195,24.1660156 112.658601,24.1660156 C111.54532,24.1660156 110.783601,24.5566406 110.558992,25.2792969 L108.273836,25.2792969 C108.469148,23.3945312 110.236726,22.1933594 112.775789,22.1933594 C115.51993,22.1933594 117.062898,23.53125 117.062898,25.796875 L117.062898,33.0917969 L114.728914,33.0917969 L114.728914,31.6269531 L114.562898,31.6269531 C113.967195,32.6621094 112.79532,33.2675781 111.398836,33.2675781 Z M120.588625,33.0917969 L120.588625,22.4082031 L122.922609,22.4082031 L122.922609,24.1367188 L123.088625,24.1367188 C123.547609,22.9160156 124.641359,22.1933594 126.057375,22.1933594 C127.531984,22.1933594 128.557375,22.9355469 129.006594,24.1367188 L129.172609,24.1367188 C129.699953,22.9648438 130.930422,22.1933594 132.414797,22.1933594 C134.553469,22.1933594 135.842531,23.53125 135.842531,25.7480469 L135.842531,33.0917969 L133.430422,33.0917969 L133.430422,26.3632812 C133.430422,24.9863281 132.776125,24.3027344 131.477297,24.3027344 C130.217531,24.3027344 129.387453,25.2207031 129.387453,26.4414062 L129.387453,33.0917969 L127.033937,33.0917969 L127.033937,26.1875 C127.033937,25.015625 126.29175,24.3027344 125.100344,24.3027344 C123.899172,24.3027344 123.0105,25.2890625 123.0105,26.5976562 L123.0105,33.0917969 L120.588625,33.0917969 Z" id="Instagram" fill="#000000"></path>
                        <path d="M40.2578125,98 L37.7382812,98 L37.7382812,83.9082031 L46.7226562,83.9082031 L46.7226562,86.0859375 L40.2578125,86.0859375 L40.2578125,90.1875 L46.1660156,90.1875 L46.1660156,92.2871094 L40.2578125,92.2871094 L40.2578125,98 Z M52.9632266,96.2714844 C54.4280703,96.2714844 55.5218203,95.3242188 55.5218203,94.0839844 L55.5218203,93.234375 L53.1097109,93.390625 C51.7522891,93.4785156 51.1175234,93.9667969 51.1175234,94.8359375 C51.1175234,95.734375 51.8890078,96.2714844 52.9632266,96.2714844 Z M52.2503359,98.1757812 C50.1897891,98.1757812 48.7151797,96.9257812 48.7151797,94.9726562 C48.7151797,93.0390625 50.1702578,91.9257812 52.7679141,91.7695312 L55.5218203,91.6035156 L55.5218203,90.7050781 C55.5218203,89.6601562 54.8186953,89.0742188 53.5101016,89.0742188 C52.3968203,89.0742188 51.6351016,89.4648438 51.4104922,90.1875 L49.1253359,90.1875 C49.3206484,88.3027344 51.0882266,87.1015625 53.6272891,87.1015625 C56.3714297,87.1015625 57.9143984,88.4394531 57.9143984,90.7050781 L57.9143984,98 L55.5804141,98 L55.5804141,96.5351562 L55.4143984,96.5351562 C54.8186953,97.5703125 53.6468203,98.1757812 52.2503359,98.1757812 Z M70.6686406,90.9101562 L68.3639531,90.9101562 C68.1393437,89.875 67.3385625,89.1328125 66.0104375,89.1328125 C64.3502812,89.1328125 63.3639531,90.4121094 63.3639531,92.6289062 C63.3639531,94.875 64.3600469,96.1835938 66.0104375,96.1835938 C67.2702031,96.1835938 68.1100469,95.5878906 68.3639531,94.4746094 L70.6686406,94.4746094 C70.4049687,96.7109375 68.7252812,98.2148438 66.0202031,98.2148438 C62.8073125,98.2148438 60.9127812,96.1445312 60.9127812,92.6289062 C60.9127812,89.1621094 62.7975469,87.1015625 66.0104375,87.1015625 C68.7545781,87.1015625 70.4147344,88.6640625 70.6686406,90.9101562 Z M78.0810859,89.0253906 C76.6357734,89.0253906 75.6201484,90.0605469 75.5127265,91.6230469 L80.5420234,91.6230469 C80.4931953,90.0410156 79.536164,89.0253906 78.0810859,89.0253906 Z M80.5615547,95.0605469 L82.8564765,95.0605469 C82.3974922,97.0039062 80.629914,98.2148438 78.1103828,98.2148438 C74.9658515,98.2148438 73.0713203,96.1347656 73.0713203,92.6972656 C73.0713203,89.2597656 74.9951484,87.1015625 78.0908515,87.1015625 C81.1377265,87.1015625 82.9638984,89.1230469 82.9638984,92.4921875 L82.9638984,93.2734375 L75.5029609,93.2734375 L75.5029609,93.4003906 C75.5615547,95.1777344 76.5869453,96.2910156 78.1787422,96.2910156 C79.379914,96.2910156 80.2099922,95.8515625 80.5615547,95.0605469 Z M91.9486093,98.1757812 C90.4544687,98.1757812 89.2142343,97.4824219 88.6087656,96.3105469 L88.44275,96.3105469 L88.44275,98 L86.1087656,98 L86.1087656,83.1855469 L88.5306406,83.1855469 L88.5306406,89.015625 L88.6966562,89.015625 C89.2532968,87.8535156 90.4837656,87.140625 91.9486093,87.140625 C94.6536875,87.140625 96.333375,89.2402344 96.333375,92.6582031 C96.333375,96.0566406 94.6439218,98.1757812 91.9486093,98.1757812 Z M91.1868906,89.2011719 C89.5365,89.2011719 88.4915781,90.5292969 88.4915781,92.6582031 C88.4915781,94.7871094 89.5267343,96.1152344 91.1868906,96.1152344 C92.8470468,96.1152344 93.8431406,94.8066406 93.8431406,92.6582031 C93.8431406,90.5097656 92.8372812,89.2011719 91.1868906,89.2011719 Z M103.989961,98.2148438 C100.786836,98.2148438 98.8532421,96.125 98.8532421,92.6582031 C98.8532421,89.2109375 100.816133,87.1015625 103.989961,87.1015625 C107.173555,87.1015625 109.12668,89.2011719 109.12668,92.6582031 C109.12668,96.125 107.18332,98.2148438 103.989961,98.2148438 Z M103.989961,96.1835938 C105.679414,96.1835938 106.636445,94.8945312 106.636445,92.6582031 C106.636445,90.4316406 105.669648,89.1328125 103.989961,89.1328125 C102.300508,89.1328125 101.333711,90.4316406 101.333711,92.6582031 C101.333711,94.8945312 102.300508,96.1835938 103.989961,96.1835938 Z M116.793031,98.2148438 C113.589906,98.2148438 111.656312,96.125 111.656312,92.6582031 C111.656312,89.2109375 113.619203,87.1015625 116.793031,87.1015625 C119.976625,87.1015625 121.92975,89.2011719 121.92975,92.6582031 C121.92975,96.125 119.986391,98.2148438 116.793031,98.2148438 Z M116.793031,96.1835938 C118.482484,96.1835938 119.439516,94.8945312 119.439516,92.6582031 C119.439516,90.4316406 118.472719,89.1328125 116.793031,89.1328125 C115.103578,89.1328125 114.136781,90.4316406 114.136781,92.6582031 C114.136781,94.8945312 115.103578,96.1835938 116.793031,96.1835938 Z M127.672273,91.671875 L131.617586,87.3164062 L134.430086,87.3164062 L130.172273,91.8964844 L134.723055,98 L131.793367,98 L128.365633,93.4199219 L127.506258,94.2792969 L127.506258,98 L125.084383,98 L125.084383,83.1855469 L127.506258,83.1855469 L127.506258,91.671875 L127.672273,91.671875 Z" id="Facebook" fill="#000000" fill-rule="nonzero"></path>
                        <path d="M55.7636719,161 L53.2441406,161 L53.2441406,149.085938 L48.9082031,149.085938 L48.9082031,146.908203 L60.109375,146.908203 L60.109375,149.085938 L55.7636719,149.085938 L55.7636719,161 Z M76.5452578,150.316406 L73.6546328,161 L71.1058047,161 L69.0257266,153.304688 L68.8597109,153.304688 L66.7893984,161 L64.2698672,161 L61.3792422,150.316406 L63.8206484,150.316406 L65.5979922,158.294922 L65.7640078,158.294922 L67.8147891,150.316406 L70.1292422,150.316406 L72.1995547,158.294922 L72.3655703,158.294922 L74.1331484,150.316406 L76.5452578,150.316406 Z M79.2995,161 L79.2995,150.316406 L81.7116094,150.316406 L81.7116094,161 L79.2995,161 Z M80.5006719,148.578125 C79.6217656,148.578125 79.0065312,148.011719 79.0065312,147.240234 C79.0065312,146.46875 79.6217656,145.902344 80.5006719,145.902344 C81.3893437,145.902344 81.9948125,146.46875 81.9948125,147.240234 C81.9948125,148.011719 81.3893437,148.578125 80.5006719,148.578125 Z M86.0967109,147.699219 L88.5088203,147.699219 L88.5088203,150.384766 L90.7939765,150.384766 L90.7939765,152.318359 L88.5088203,152.318359 L88.5088203,157.5625 C88.5088203,158.617188 88.958039,159.085938 89.973664,159.085938 C90.3154609,159.085938 90.5010078,159.066406 90.7939765,159.037109 L90.7939765,160.931641 C90.442414,161 89.9931953,161.048828 89.5244453,161.048828 C87.0732734,161.048828 86.0967109,160.21875 86.0967109,158.148438 L86.0967109,152.318359 L84.4072578,152.318359 L84.4072578,150.384766 L86.0967109,150.384766 L86.0967109,147.699219 Z M94.6615,147.699219 L97.0736093,147.699219 L97.0736093,150.384766 L99.3587656,150.384766 L99.3587656,152.318359 L97.0736093,152.318359 L97.0736093,157.5625 C97.0736093,158.617188 97.5228281,159.085938 98.5384531,159.085938 C98.88025,159.085938 99.0657968,159.066406 99.3587656,159.037109 L99.3587656,160.931641 C99.0072031,161 98.5579843,161.048828 98.0892343,161.048828 C95.6380625,161.048828 94.6615,160.21875 94.6615,158.148438 L94.6615,152.318359 L92.9720468,152.318359 L92.9720468,150.384766 L94.6615,150.384766 L94.6615,147.699219 Z M106.780977,152.025391 C105.335664,152.025391 104.320039,153.060547 104.212617,154.623047 L109.241914,154.623047 C109.193086,153.041016 108.236055,152.025391 106.780977,152.025391 Z M109.261445,158.060547 L111.556367,158.060547 C111.097383,160.003906 109.329805,161.214844 106.810273,161.214844 C103.665742,161.214844 101.771211,159.134766 101.771211,155.697266 C101.771211,152.259766 103.695039,150.101562 106.790742,150.101562 C109.837617,150.101562 111.663789,152.123047 111.663789,155.492188 L111.663789,156.273438 L104.202852,156.273438 L104.202852,156.400391 C104.261445,158.177734 105.286836,159.291016 106.878633,159.291016 C108.079805,159.291016 108.909883,158.851562 109.261445,158.060547 Z M114.711,161 L114.711,150.316406 L117.044984,150.316406 L117.044984,151.976562 L117.211,151.976562 C117.503969,150.921875 118.656312,150.140625 120.033266,150.140625 C120.384828,150.140625 120.814516,150.179688 121.039125,150.248047 L121.039125,152.494141 C120.853578,152.425781 120.209047,152.357422 119.798891,152.357422 C118.226625,152.357422 117.132875,153.333984 117.132875,154.828125 L117.132875,161 L114.711,161 Z" id="Twitter" fill="#000000" fill-rule="nonzero"></path>
                    </g>
                    <g id="Group-13" transform="translate(641.000000, 27.000000)" fill-rule="nonzero" stroke="#000000">
                        <polyline id="Path-2" points="0.728280893 63.2041299 62.6887464 63.2041299 106.301979 63.2041299"></polyline>
                        <polyline id="Path-3" points="107.039816 126.10161 76.9930419 126.10161 76.9930419 63.2784295"></polyline>
                        <polyline id="Path-3" transform="translate(92.016429, 31.690020) scale(1, -1) translate(-92.016429, -31.690020) " points="107.039816 63.1016096 76.9930419 63.1016096 76.9930419 0.27842948"></polyline>
                    </g>
                    <path id="Line-2" d="M926.458204,89.7916213 L976.498079,89.5996956 L976.501914,90.5996882 L926.462039,90.7916139 L926.477381,94.7915845 L917.460187,90.3261365 L926.442862,85.7916507 L926.458204,89.7916213 Z" fill="#000000" fill-rule="nonzero"></path>
                    <polyline id="Path-3" stroke="#000000" fill-rule="nonzero" transform="translate(932.983571, 120.690020) scale(-1, 1) translate(-932.983571, -120.690020) " points="948.006958 152.10161 917.960184 152.10161 917.960184 89.2784295"></polyline>
                    <polyline id="Path-3" stroke="#000000" fill-rule="nonzero" transform="translate(932.983571, 57.690020) scale(-1, -1) translate(-932.983571, -57.690020) " points="948.006958 89.1016096 917.960184 89.1016096 917.960184 26.2784295"></polyline>
                    <g id="Group-15" transform="translate(0.000000, 58.000000)">
                        <rect id="Rectangle" stroke="#000000" stroke-width="2" fill="#FFFFFF" fill-rule="nonzero" x="1" y="1" width="130" height="64"></rect>
                        <path d="M12,25.7226562 L17.2832031,25.7226562 C21.4726562,25.7226562 23.9140625,28.28125 23.9140625,32.7050781 C23.9140625,37.2265625 21.5019531,39.8144531 17.2832031,39.8144531 L12,39.8144531 L12,25.7226562 Z M14.5195312,27.9003906 L14.5195312,37.6367188 L16.9511719,37.6367188 C19.7539062,37.6367188 21.3457031,35.8886719 21.3457031,32.7441406 C21.3457031,29.6679688 19.7148437,27.9003906 16.9511719,27.9003906 L14.5195312,27.9003906 Z M30.6482348,38.0859375 C32.1130785,38.0859375 33.2068285,37.1386719 33.2068285,35.8984375 L33.2068285,35.0488281 L30.7947192,35.2050781 C29.4372973,35.2929688 28.8025317,35.78125 28.8025317,36.6503906 C28.8025317,37.5488281 29.574016,38.0859375 30.6482348,38.0859375 Z M29.9353442,39.9902344 C27.8747973,39.9902344 26.4001879,38.7402344 26.4001879,36.7871094 C26.4001879,34.8535156 27.855266,33.7402344 30.4529223,33.5839844 L33.2068285,33.4179688 L33.2068285,32.5195312 C33.2068285,31.4746094 32.5037035,30.8886719 31.1951098,30.8886719 C30.0818285,30.8886719 29.3201098,31.2792969 29.0955004,32.0019531 L26.8103442,32.0019531 C27.0056567,30.1171875 28.7732348,28.9160156 31.3122973,28.9160156 C34.0564379,28.9160156 35.5994067,30.2539062 35.5994067,32.5195312 L35.5994067,39.8144531 L33.2654223,39.8144531 L33.2654223,38.3496094 L33.0994067,38.3496094 C32.5037035,39.3847656 31.3318285,39.9902344 29.9353442,39.9902344 Z M38.7886571,32.1875 C38.7886571,30.2539062 40.5464696,28.9160156 43.0660008,28.9160156 C45.6050633,28.9160156 47.1968602,30.0390625 47.3726415,31.9824219 L45.0972508,31.9824219 C44.9214696,31.2304688 44.208579,30.7519531 43.0757665,30.7519531 C41.9722508,30.7519531 41.1421727,31.2792969 41.1421727,32.0507812 C41.1421727,32.65625 41.6499852,33.0273438 42.724204,33.2714844 L44.6089696,33.7011719 C46.6499852,34.1601562 47.5972508,35.0390625 47.5972508,36.6113281 C47.5972508,38.6621094 45.7124852,40.0292969 43.0464696,40.0292969 C40.380454,40.0292969 38.7007665,38.8769531 38.5152196,36.9335938 L40.9077977,36.9335938 C41.1421727,37.7246094 41.8941258,38.1933594 43.1050633,38.1933594 C44.3257665,38.1933594 45.1753758,37.65625 45.1753758,36.8652344 C45.1753758,36.2597656 44.7163915,35.8789062 43.7007665,35.6542969 L41.8062352,35.2148438 C39.755454,34.7460938 38.7886571,33.7988281 38.7886571,32.1875 Z M50.6693138,39.8144531 L50.6693138,25 L53.0521263,25 L53.0521263,30.859375 L53.2279075,30.859375 C53.73572,29.6582031 54.8782982,28.9355469 56.470095,28.9355469 C58.7552513,28.9355469 60.14197,30.3808594 60.14197,32.9199219 L60.14197,39.8144531 L57.720095,39.8144531 L57.720095,33.4960938 C57.720095,31.875 56.9779075,31.0449219 55.5716575,31.0449219 C53.9798607,31.0449219 53.0911888,32.0800781 53.0911888,33.6132812 L53.0911888,39.8144531 L50.6693138,39.8144531 Z M69.4737986,39.9902344 C67.9796579,39.9902344 66.7394236,39.296875 66.1339548,38.125 L65.9679392,38.125 L65.9679392,39.8144531 L63.6339548,39.8144531 L63.6339548,25 L66.0558298,25 L66.0558298,30.8300781 L66.2218454,30.8300781 C66.7784861,29.6679688 68.0089548,28.9550781 69.4737986,28.9550781 C72.1788767,28.9550781 73.8585642,31.0546875 73.8585642,34.4726562 C73.8585642,37.8710938 72.1691111,39.9902344 69.4737986,39.9902344 Z M68.7120798,31.015625 C67.0616892,31.015625 66.0167673,32.34375 66.0167673,34.4726562 C66.0167673,36.6015625 67.0519236,37.9296875 68.7120798,37.9296875 C70.3722361,37.9296875 71.3683298,36.6210938 71.3683298,34.4726562 C71.3683298,32.3242188 70.3624704,31.015625 68.7120798,31.015625 Z M81.4228146,40.0292969 C78.2196896,40.0292969 76.2860959,37.9394531 76.2860959,34.4726562 C76.2860959,31.0253906 78.2489865,28.9160156 81.4228146,28.9160156 C84.6064084,28.9160156 86.5595334,31.015625 86.5595334,34.4726562 C86.5595334,37.9394531 84.616174,40.0292969 81.4228146,40.0292969 Z M81.4228146,37.9980469 C83.1122677,37.9980469 84.069299,36.7089844 84.069299,34.4726562 C84.069299,32.2460938 83.1025021,30.9472656 81.4228146,30.9472656 C79.7333615,30.9472656 78.7665646,32.2460938 78.7665646,34.4726562 C78.7665646,36.7089844 79.7333615,37.9980469 81.4228146,37.9980469 Z M93.1765182,38.0859375 C94.6413619,38.0859375 95.7351119,37.1386719 95.7351119,35.8984375 L95.7351119,35.0488281 L93.3230025,35.2050781 C91.9655807,35.2929688 91.330815,35.78125 91.330815,36.6503906 C91.330815,37.5488281 92.1022994,38.0859375 93.1765182,38.0859375 Z M92.4636275,39.9902344 C90.4030807,39.9902344 88.9284713,38.7402344 88.9284713,36.7871094 C88.9284713,34.8535156 90.3835494,33.7402344 92.9812057,33.5839844 L95.7351119,33.4179688 L95.7351119,32.5195312 C95.7351119,31.4746094 95.0319869,30.8886719 93.7233932,30.8886719 C92.6101119,30.8886719 91.8483932,31.2792969 91.6237838,32.0019531 L89.3386275,32.0019531 C89.53394,30.1171875 91.3015182,28.9160156 93.8405807,28.9160156 C96.5847213,28.9160156 98.12769,30.2539062 98.12769,32.5195312 L98.12769,39.8144531 L95.7937057,39.8144531 L95.7937057,38.3496094 L95.62769,38.3496094 C95.0319869,39.3847656 93.8601119,39.9902344 92.4636275,39.9902344 Z M101.561081,39.8144531 L101.561081,29.1308594 L103.895065,29.1308594 L103.895065,30.7910156 L104.061081,30.7910156 C104.35405,29.7363281 105.506394,28.9550781 106.883347,28.9550781 C107.234909,28.9550781 107.664597,28.9941406 107.889206,29.0625 L107.889206,31.3085938 C107.703659,31.2402344 107.059128,31.171875 106.648972,31.171875 C105.076706,31.171875 103.982956,32.1484375 103.982956,33.6425781 L103.982956,39.8144531 L101.561081,39.8144531 Z M113.998378,39.9902344 C111.2933,39.9902344 109.603847,37.8613281 109.603847,34.4628906 C109.603847,31.0839844 111.303066,28.9550781 113.998378,28.9550781 C115.463222,28.9550781 116.67416,29.6582031 117.240566,30.8300781 L117.406582,30.8300781 L117.406582,25 L119.828457,25 L119.828457,39.8144531 L117.484707,39.8144531 L117.484707,38.125 L117.318691,38.125 C116.713222,39.296875 115.482753,39.9902344 113.998378,39.9902344 Z M114.750332,31.015625 C113.099941,31.015625 112.084316,32.3242188 112.084316,34.4726562 C112.084316,36.6308594 113.090175,37.9296875 114.750332,37.9296875 C116.420253,37.9296875 117.435878,36.6210938 117.435878,34.4726562 C117.435878,32.34375 116.410488,31.015625 114.750332,31.015625 Z" id="Dashboard" fill="#000000"></path>
                    </g>
                    <g id="Group-15" transform="translate(478.000000, 58.000000)" fill="#FFFFFF" fill-rule="nonzero" stroke="#000000" stroke-width="2">
                        <rect id="Rectangle" x="1" y="1" width="164" height="64"></rect>
                    </g>
                    <g id="Group-16" transform="translate(213.000000, 58.000000)" fill-rule="nonzero">
                        <g id="Group-15" fill="#FFFFFF" stroke="#000000" stroke-width="2">
                            <rect id="Rectangle" x="1" y="1" width="213" height="64"></rect>
                        </g>
                        <path d="M29.8300781,40 L28.6386719,36.3964844 L23.453125,36.3964844 L22.2421875,40 L19.6933594,40 L24.6933594,25.9082031 L27.5253906,25.9082031 L32.5351562,40 L29.8300781,40 Z M25.9726562,28.59375 L24.0390625,34.4042969 L28.0527344,34.4042969 L26.1386719,28.59375 L25.9726562,28.59375 Z M43.8689379,32.9101562 L41.5642504,32.9101562 C41.339641,31.875 40.5388598,31.1328125 39.2107348,31.1328125 C37.5505785,31.1328125 36.5642504,32.4121094 36.5642504,34.6289062 C36.5642504,36.875 37.5603442,38.1835938 39.2107348,38.1835938 C40.4705004,38.1835938 41.3103442,37.5878906 41.5642504,36.4746094 L43.8689379,36.4746094 C43.605266,38.7109375 41.9255785,40.2148438 39.2205004,40.2148438 C36.0076098,40.2148438 34.1130785,38.1445312 34.1130785,34.6289062 C34.1130785,31.1621094 35.9978442,29.1015625 39.2107348,29.1015625 C41.9548754,29.1015625 43.6150317,30.6640625 43.8689379,32.9101562 Z M55.9351415,32.9101562 L53.630454,32.9101562 C53.4058446,31.875 52.6050634,31.1328125 51.2769384,31.1328125 C49.6167821,31.1328125 48.630454,32.4121094 48.630454,34.6289062 C48.630454,36.875 49.6265477,38.1835938 51.2769384,38.1835938 C52.536704,38.1835938 53.3765477,37.5878906 53.630454,36.4746094 L55.9351415,36.4746094 C55.6714696,38.7109375 53.9917821,40.2148438 51.286704,40.2148438 C48.0738134,40.2148438 46.1792821,38.1445312 46.1792821,34.6289062 C46.1792821,31.1621094 48.0640477,29.1015625 51.2769384,29.1015625 C54.021079,29.1015625 55.6812352,30.6640625 55.9351415,32.9101562 Z M63.3822044,40.2148438 C60.1790794,40.2148438 58.2454857,38.125 58.2454857,34.6582031 C58.2454857,31.2109375 60.2083763,29.1015625 63.3822044,29.1015625 C66.5657982,29.1015625 68.5189232,31.2011719 68.5189232,34.6582031 C68.5189232,38.125 66.5755638,40.2148438 63.3822044,40.2148438 Z M63.3822044,38.1835938 C65.0716575,38.1835938 66.0286888,36.8945312 66.0286888,34.6582031 C66.0286888,32.4316406 65.0618919,31.1328125 63.3822044,31.1328125 C61.6927513,31.1328125 60.7259544,32.4316406 60.7259544,34.6582031 C60.7259544,36.8945312 61.6927513,38.1835938 63.3822044,38.1835938 Z M80.7804392,29.3164062 L80.7804392,40 L78.4464548,40 L78.4464548,38.3007812 L78.2804392,38.3007812 C77.7628611,39.5214844 76.7179392,40.2148438 75.0870798,40.2148438 C72.7530955,40.2148438 71.385908,38.7597656 71.385908,36.2597656 L71.385908,29.3164062 L73.807783,29.3164062 L73.807783,35.6542969 C73.807783,37.2851562 74.4816111,38.0859375 75.9269236,38.0859375 C77.4991892,38.0859375 78.3585642,37.1191406 78.3585642,35.5371094 L78.3585642,29.3164062 L80.7804392,29.3164062 Z M84.272424,40 L84.272424,29.3164062 L86.6064084,29.3164062 L86.6064084,31.0253906 L86.772424,31.0253906 C87.2802365,29.8339844 88.3544553,29.1015625 89.9462521,29.1015625 C92.3290646,29.1015625 93.6278928,30.5371094 93.6278928,33.0859375 L93.6278928,40 L91.2060178,40 L91.2060178,33.6621094 C91.2060178,32.03125 90.522424,31.2109375 89.0478146,31.2109375 C87.6025021,31.2109375 86.694299,32.2070312 86.694299,33.7792969 L86.694299,40 L84.272424,40 Z M97.7937057,26.6992188 L100.205815,26.6992188 L100.205815,29.3847656 L102.490971,29.3847656 L102.490971,31.3183594 L100.205815,31.3183594 L100.205815,36.5625 C100.205815,37.6171875 100.655034,38.0859375 101.670659,38.0859375 C102.012456,38.0859375 102.198003,38.0664062 102.490971,38.0371094 L102.490971,39.9316406 C102.139409,40 101.69019,40.0488281 101.22144,40.0488281 C98.7702682,40.0488281 97.7937057,39.21875 97.7937057,37.1484375 L97.7937057,31.3183594 L96.1042525,31.3183594 L96.1042525,29.3847656 L97.7937057,29.3847656 L97.7937057,26.6992188 Z M110.900722,36.171875 L113.36166,36.171875 C113.51791,37.4316406 114.76791,38.2421875 116.555019,38.2421875 C118.215175,38.2421875 119.416347,37.3925781 119.416347,36.2109375 C119.416347,35.1953125 118.644863,34.5996094 116.838222,34.1796875 L115.01205,33.7597656 C112.453457,33.1835938 111.252285,31.9140625 111.252285,29.8144531 C111.252285,27.2558594 113.342128,25.5566406 116.496425,25.5566406 C119.45541,25.5566406 121.594082,27.2558594 121.711269,29.6777344 L119.29916,29.6777344 C119.123378,28.4375 118.029628,27.65625 116.48666,27.65625 C114.865566,27.65625 113.791347,28.4375 113.791347,29.6386719 C113.791347,30.5859375 114.504238,31.1425781 116.252285,31.5429688 L117.873378,31.9140625 C120.734707,32.5585938 121.935878,33.75 121.935878,35.8984375 C121.935878,38.6425781 119.816738,40.3515625 116.398769,40.3515625 C113.166347,40.3515625 111.027675,38.7304688 110.900722,36.171875 Z M129.51966,31.0253906 C128.074348,31.0253906 127.058723,32.0605469 126.951301,33.6230469 L131.980598,33.6230469 C131.931769,32.0410156 130.974738,31.0253906 129.51966,31.0253906 Z M132.000129,37.0605469 L134.295051,37.0605469 C133.836066,39.0039062 132.068488,40.2148438 129.548957,40.2148438 C126.404426,40.2148438 124.509894,38.1347656 124.509894,34.6972656 C124.509894,31.2597656 126.433723,29.1015625 129.529426,29.1015625 C132.576301,29.1015625 134.402473,31.1230469 134.402473,34.4921875 L134.402473,35.2734375 L126.941535,35.2734375 L126.941535,35.4003906 C127.000129,37.1777344 128.025519,38.2910156 129.617316,38.2910156 C130.818488,38.2910156 131.648566,37.8515625 132.000129,37.0605469 Z M138.128832,26.6992188 L140.540942,26.6992188 L140.540942,29.3847656 L142.826098,29.3847656 L142.826098,31.3183594 L140.540942,31.3183594 L140.540942,36.5625 C140.540942,37.6171875 140.990161,38.0859375 142.005786,38.0859375 C142.347582,38.0859375 142.533129,38.0664062 142.826098,38.0371094 L142.826098,39.9316406 C142.474536,40 142.025317,40.0488281 141.556567,40.0488281 C139.105395,40.0488281 138.128832,39.21875 138.128832,37.1484375 L138.128832,31.3183594 L136.439379,31.3183594 L136.439379,29.3847656 L138.128832,29.3847656 L138.128832,26.6992188 Z M146.601286,26.6992188 L149.013395,26.6992188 L149.013395,29.3847656 L151.298552,29.3847656 L151.298552,31.3183594 L149.013395,31.3183594 L149.013395,36.5625 C149.013395,37.6171875 149.462614,38.0859375 150.478239,38.0859375 C150.820036,38.0859375 151.005583,38.0664062 151.298552,38.0371094 L151.298552,39.9316406 C150.946989,40 150.49777,40.0488281 150.02902,40.0488281 C147.577848,40.0488281 146.601286,39.21875 146.601286,37.1484375 L146.601286,31.3183594 L144.911833,31.3183594 L144.911833,29.3847656 L146.601286,29.3847656 L146.601286,26.6992188 Z M154.272958,40 L154.272958,29.3164062 L156.685068,29.3164062 L156.685068,40 L154.272958,40 Z M155.47413,27.578125 C154.595224,27.578125 153.979989,27.0117188 153.979989,26.2402344 C153.979989,25.46875 154.595224,24.9023438 155.47413,24.9023438 C156.362802,24.9023438 156.968271,25.46875 156.968271,26.2402344 C156.968271,27.0117188 156.362802,27.578125 155.47413,27.578125 Z M160.206349,40 L160.206349,29.3164062 L162.540334,29.3164062 L162.540334,31.0253906 L162.706349,31.0253906 C163.214162,29.8339844 164.288381,29.1015625 165.880177,29.1015625 C168.26299,29.1015625 169.561818,30.5371094 169.561818,33.0859375 L169.561818,40 L167.139943,40 L167.139943,33.6621094 C167.139943,32.03125 166.456349,31.2109375 164.98174,31.2109375 C163.536427,31.2109375 162.628224,32.2070312 162.628224,33.7792969 L162.628224,40 L160.206349,40 Z M177.54599,37.8710938 C179.235443,37.8710938 180.251068,36.5820312 180.251068,34.5410156 C180.251068,32.5 179.225678,31.2011719 177.54599,31.2011719 C175.856537,31.2011719 174.899506,32.5 174.899506,34.5410156 C174.899506,36.5820312 175.856537,37.8710938 177.54599,37.8710938 Z M177.54599,44.0625 C174.80185,44.0625 173.004975,42.8515625 172.809662,41.015625 L175.241303,41.015625 C175.397553,41.7480469 176.256928,42.2167969 177.585053,42.2167969 C179.245209,42.2167969 180.212006,41.4355469 180.212006,40.0976562 L180.212006,38.0761719 L180.04599,38.0761719 C179.430756,39.21875 178.268647,39.84375 176.784272,39.84375 C174.088959,39.84375 172.409272,37.7539062 172.409272,34.5410156 C172.409272,31.2695312 174.098725,29.140625 176.823334,29.140625 C178.278412,29.140625 179.547943,29.8632812 180.133881,31.0253906 L180.299897,31.0253906 L180.299897,29.3164062 L182.633881,29.3164062 L182.633881,40.0390625 C182.633881,42.5097656 180.661225,44.0625 177.54599,44.0625 Z M185.881725,32.3730469 C185.881725,30.4394531 187.639538,29.1015625 190.159069,29.1015625 C192.698131,29.1015625 194.289928,30.2246094 194.46571,32.1679688 L192.190319,32.1679688 C192.014538,31.4160156 191.301647,30.9375 190.168835,30.9375 C189.065319,30.9375 188.235241,31.4648438 188.235241,32.2363281 C188.235241,32.8417969 188.743053,33.2128906 189.817272,33.4570312 L191.702038,33.8867188 C193.743053,34.3457031 194.690319,35.2246094 194.690319,36.796875 C194.690319,38.8476562 192.805553,40.2148438 190.139538,40.2148438 C187.473522,40.2148438 185.793835,39.0625 185.608288,37.1191406 L188.000866,37.1191406 C188.235241,37.9101562 188.987194,38.3789062 190.198131,38.3789062 C191.418835,38.3789062 192.268444,37.8417969 192.268444,37.0507812 C192.268444,36.4453125 191.80946,36.0644531 190.793835,35.8398438 L188.899303,35.4003906 C186.848522,34.9316406 185.881725,33.984375 185.881725,32.3730469 Z" id="AccountSettings" fill="#000000"></path>
                    </g>
                    <path d="M516.45424,83.7929688 L516.45424,86 L507.469865,86 L507.469865,71.9082031 L509.989396,71.9082031 L509.989396,83.7929688 L516.45424,83.7929688 Z M519.467709,86 L519.467709,75.3164062 L521.879818,75.3164062 L521.879818,86 L519.467709,86 Z M520.668881,73.578125 C519.789975,73.578125 519.17474,73.0117188 519.17474,72.2402344 C519.17474,71.46875 519.789975,70.9023438 520.668881,70.9023438 C521.557553,70.9023438 522.163022,71.46875 522.163022,72.2402344 C522.163022,73.0117188 521.557553,73.578125 520.668881,73.578125 Z M525.4011,86 L525.4011,75.3164062 L527.735084,75.3164062 L527.735084,77.0253906 L527.9011,77.0253906 C528.408913,75.8339844 529.483131,75.1015625 531.074928,75.1015625 C533.457741,75.1015625 534.756569,76.5371094 534.756569,79.0859375 L534.756569,86 L532.334694,86 L532.334694,79.6621094 C532.334694,78.03125 531.6511,77.2109375 530.176491,77.2109375 C528.731178,77.2109375 527.822975,78.2070312 527.822975,79.7792969 L527.822975,86 L525.4011,86 Z M540.836444,79.671875 L544.781757,75.3164062 L547.594257,75.3164062 L543.336444,79.8964844 L547.887225,86 L544.957538,86 L541.529804,81.4199219 L540.670429,82.2792969 L540.670429,86 L538.248554,86 L538.248554,71.1855469 L540.670429,71.1855469 L540.670429,79.671875 L540.836444,79.671875 Z M555.740336,82.171875 L558.201273,82.171875 C558.357523,83.4316406 559.607523,84.2421875 561.394633,84.2421875 C563.054789,84.2421875 564.255961,83.3925781 564.255961,82.2109375 C564.255961,81.1953125 563.484476,80.5996094 561.677836,80.1796875 L559.851664,79.7597656 C557.29307,79.1835938 556.091898,77.9140625 556.091898,75.8144531 C556.091898,73.2558594 558.181742,71.5566406 561.336039,71.5566406 C564.295023,71.5566406 566.433695,73.2558594 566.550883,75.6777344 L564.138773,75.6777344 C563.962992,74.4375 562.869242,73.65625 561.326273,73.65625 C559.705179,73.65625 558.630961,74.4375 558.630961,75.6386719 C558.630961,76.5859375 559.343851,77.1425781 561.091898,77.5429688 L562.712992,77.9140625 C565.57432,78.5585938 566.775492,79.75 566.775492,81.8984375 C566.775492,84.6425781 564.656351,86.3515625 561.238383,86.3515625 C558.005961,86.3515625 555.867289,84.7304688 555.740336,82.171875 Z M574.486227,86.2148438 C571.283102,86.2148438 569.349508,84.125 569.349508,80.6582031 C569.349508,77.2109375 571.312399,75.1015625 574.486227,75.1015625 C577.669821,75.1015625 579.622946,77.2011719 579.622946,80.6582031 C579.622946,84.125 577.679586,86.2148438 574.486227,86.2148438 Z M574.486227,84.1835938 C576.17568,84.1835938 577.132711,82.8945312 577.132711,80.6582031 C577.132711,78.4316406 576.165914,77.1328125 574.486227,77.1328125 C572.796774,77.1328125 571.829977,78.4316406 571.829977,80.6582031 C571.829977,82.8945312 572.796774,84.1835938 574.486227,84.1835938 Z M591.816102,78.9101562 L589.511415,78.9101562 C589.286805,77.875 588.486024,77.1328125 587.157899,77.1328125 C585.497743,77.1328125 584.511415,78.4121094 584.511415,80.6289062 C584.511415,82.875 585.507508,84.1835938 587.157899,84.1835938 C588.417665,84.1835938 589.257508,83.5878906 589.511415,82.4746094 L591.816102,82.4746094 C591.55243,84.7109375 589.872743,86.2148438 587.167665,86.2148438 C583.954774,86.2148438 582.060243,84.1445312 582.060243,80.6289062 C582.060243,77.1621094 583.945008,75.1015625 587.157899,75.1015625 C589.90204,75.1015625 591.562196,76.6640625 591.816102,78.9101562 Z M594.683087,86 L594.683087,75.3164062 L597.095196,75.3164062 L597.095196,86 L594.683087,86 Z M595.884259,73.578125 C595.005353,73.578125 594.390118,73.0117188 594.390118,72.2402344 C594.390118,71.46875 595.005353,70.9023438 595.884259,70.9023438 C596.772931,70.9023438 597.3784,71.46875 597.3784,72.2402344 C597.3784,73.0117188 596.772931,73.578125 595.884259,73.578125 Z M604.268822,84.2714844 C605.733666,84.2714844 606.827416,83.3242188 606.827416,82.0839844 L606.827416,81.234375 L604.415306,81.390625 C603.057884,81.4785156 602.423119,81.9667969 602.423119,82.8359375 C602.423119,83.734375 603.194603,84.2714844 604.268822,84.2714844 Z M603.555931,86.1757812 C601.495384,86.1757812 600.020775,84.9257812 600.020775,82.9726562 C600.020775,81.0390625 601.475853,79.9257812 604.073509,79.7695312 L606.827416,79.6035156 L606.827416,78.7050781 C606.827416,77.6601562 606.124291,77.0742188 604.815697,77.0742188 C603.702416,77.0742188 602.940697,77.4648438 602.716087,78.1875 L600.430931,78.1875 C600.626244,76.3027344 602.393822,75.1015625 604.932884,75.1015625 C607.677025,75.1015625 609.219994,76.4394531 609.219994,78.7050781 L609.219994,86 L606.886009,86 L606.886009,84.5351562 L606.719994,84.5351562 C606.124291,85.5703125 604.952416,86.1757812 603.555931,86.1757812 Z M612.751041,86 L612.751041,71.1855469 L615.172916,71.1855469 L615.172916,86 L612.751041,86 Z M519.681779,110 L517.338029,110 L517.338029,100.087891 L517.20131,100.087891 L513.304826,109.453125 L511.507951,109.453125 L507.611466,100.087891 L507.474748,100.087891 L507.474748,110 L505.130998,110 L505.130998,95.9082031 L508.080216,95.9082031 L512.318498,106.171875 L512.494279,106.171875 L516.73256,95.9082031 L519.681779,95.9082031 L519.681779,110 Z M527.910092,101.025391 C526.464779,101.025391 525.449154,102.060547 525.341732,103.623047 L530.371029,103.623047 C530.322201,102.041016 529.36517,101.025391 527.910092,101.025391 Z M530.390561,107.060547 L532.685482,107.060547 C532.226498,109.003906 530.45892,110.214844 527.939389,110.214844 C524.794857,110.214844 522.900326,108.134766 522.900326,104.697266 C522.900326,101.259766 524.824154,99.1015625 527.919857,99.1015625 C530.966732,99.1015625 532.792904,101.123047 532.792904,104.492188 L532.792904,105.273438 L525.331967,105.273438 L525.331967,105.400391 C525.390561,107.177734 526.415951,108.291016 528.007748,108.291016 C529.20892,108.291016 530.038998,107.851562 530.390561,107.060547 Z M539.614967,110.175781 C536.909889,110.175781 535.220436,108.046875 535.220436,104.648438 C535.220436,101.269531 536.919655,99.140625 539.614967,99.140625 C541.079811,99.140625 542.290749,99.84375 542.857155,101.015625 L543.02317,101.015625 L543.02317,95.1855469 L545.445045,95.1855469 L545.445045,110 L543.101295,110 L543.101295,108.310547 L542.93528,108.310547 C542.329811,109.482422 541.099342,110.175781 539.614967,110.175781 Z M540.36692,101.201172 C538.71653,101.201172 537.700905,102.509766 537.700905,104.658203 C537.700905,106.816406 538.706764,108.115234 540.36692,108.115234 C542.036842,108.115234 543.052467,106.806641 543.052467,104.658203 C543.052467,102.529297 542.027077,101.201172 540.36692,101.201172 Z M549.054218,110 L549.054218,99.3164062 L551.466327,99.3164062 L551.466327,110 L549.054218,110 Z M550.25539,97.578125 C549.376483,97.578125 548.761249,97.0117188 548.761249,96.2402344 C548.761249,95.46875 549.376483,94.9023438 550.25539,94.9023438 C551.144061,94.9023438 551.74953,95.46875 551.74953,96.2402344 C551.74953,97.0117188 551.144061,97.578125 550.25539,97.578125 Z M558.639952,108.271484 C560.104796,108.271484 561.198546,107.324219 561.198546,106.083984 L561.198546,105.234375 L558.786437,105.390625 C557.429015,105.478516 556.794249,105.966797 556.794249,106.835938 C556.794249,107.734375 557.565734,108.271484 558.639952,108.271484 Z M557.927062,110.175781 C555.866515,110.175781 554.391906,108.925781 554.391906,106.972656 C554.391906,105.039062 555.846984,103.925781 558.44464,103.769531 L561.198546,103.603516 L561.198546,102.705078 C561.198546,101.660156 560.495421,101.074219 559.186827,101.074219 C558.073546,101.074219 557.311827,101.464844 557.087218,102.1875 L554.802062,102.1875 C554.997374,100.302734 556.764952,99.1015625 559.304015,99.1015625 C562.048156,99.1015625 563.591124,100.439453 563.591124,102.705078 L563.591124,110 L561.25714,110 L561.25714,108.535156 L561.091124,108.535156 C560.495421,109.570312 559.323546,110.175781 557.927062,110.175781 Z M575.653219,110 L573.133688,110 L573.133688,95.9082031 L582.118063,95.9082031 L582.118063,98.0859375 L575.653219,98.0859375 L575.653219,102.1875 L581.561422,102.1875 L581.561422,104.287109 L575.653219,104.287109 L575.653219,110 Z M585.199891,110 L585.199891,99.3164062 L587.612001,99.3164062 L587.612001,110 L585.199891,110 Z M586.401063,97.578125 C585.522157,97.578125 584.906923,97.0117188 584.906923,96.2402344 C584.906923,95.46875 585.522157,94.9023438 586.401063,94.9023438 C587.289735,94.9023438 587.895204,95.46875 587.895204,96.2402344 C587.895204,97.0117188 587.289735,97.578125 586.401063,97.578125 Z M591.230939,110 L591.230939,95.1855469 L593.652814,95.1855469 L593.652814,110 L591.230939,110 Z M601.715111,101.025391 C600.269798,101.025391 599.254173,102.060547 599.146751,103.623047 L604.176048,103.623047 C604.12722,102.041016 603.170189,101.025391 601.715111,101.025391 Z M604.19558,107.060547 L606.490501,107.060547 C606.031517,109.003906 604.263939,110.214844 601.744408,110.214844 C598.599876,110.214844 596.705345,108.134766 596.705345,104.697266 C596.705345,101.259766 598.629173,99.1015625 601.724876,99.1015625 C604.771751,99.1015625 606.597923,101.123047 606.597923,104.492188 L606.597923,105.273438 L599.136986,105.273438 L599.136986,105.400391 C599.19558,107.177734 600.22097,108.291016 601.812767,108.291016 C603.013939,108.291016 603.844017,107.851562 604.19558,107.060547 Z M609.308658,102.373047 C609.308658,100.439453 611.066471,99.1015625 613.586002,99.1015625 C616.125064,99.1015625 617.716861,100.224609 617.892643,102.167969 L615.617252,102.167969 C615.441471,101.416016 614.72858,100.9375 613.595768,100.9375 C612.492252,100.9375 611.662174,101.464844 611.662174,102.236328 C611.662174,102.841797 612.169986,103.212891 613.244205,103.457031 L615.128971,103.886719 C617.169986,104.345703 618.117252,105.224609 618.117252,106.796875 C618.117252,108.847656 616.232486,110.214844 613.566471,110.214844 C610.900455,110.214844 609.220768,109.0625 609.035221,107.119141 L611.427799,107.119141 C611.662174,107.910156 612.414127,108.378906 613.625064,108.378906 C614.845768,108.378906 615.695377,107.841797 615.695377,107.050781 C615.695377,106.445312 615.236393,106.064453 614.220768,105.839844 L612.326236,105.400391 C610.275455,104.931641 609.308658,103.984375 609.308658,102.373047 Z" id="LinkSocialMediaFiles" fill="#000000" fill-rule="nonzero"></path>
                    <path id="Line" d="M468.753974,91.066915 L427.494774,90.6333909 L427.505281,89.6334461 L468.76448,90.0669702 L468.806507,86.067191 L477.75873,90.6615034 L468.711947,95.0666942 L468.753974,91.066915 Z" fill="#000000" fill-rule="nonzero"></path>
                    <path id="Line" d="M203.916016,91.5146571 L131.500863,91.6395334 L131.499139,90.6395348 L203.914291,90.5146585 L203.907393,86.5146645 L212.91514,90.9991378 L203.922913,95.5146511 L203.916016,91.5146571 Z" fill="#000000" fill-rule="nonzero"></path>
                </g>
            </g>
        </g>
    </g>
</svg>