<?xml version="1.0" encoding="UTF-8"?>
<svg width="1207px" height="182px" viewBox="0 0 1207 182" version="1.1" xmlns="http://www.w3.org/2000/svg" xmlns:xlink="http://www.w3.org/1999/xlink">
    <!-- Generator: Sketch 53.2 (72643) - https://sketchapp.com -->
    <title>Group 122</title>
    <desc>Created with Sketch.</desc>
    <g id="Page-1" stroke="none" stroke-width="1" fill="none" fill-rule="evenodd">
        <g id="Version-1" transform="translate(-94.000000, -8646.000000)">
            <g id="Group-122" transform="translate(94.000000, 8646.000000)">
                <path id="Line" d="M211.5,91.6386719 L132,91.6386719 L131.5,91.6386719 L131.5,90.6386719 L132,90.6386719 L211.5,90.6386719 L211.5,86.6386719 L220.5,91.1386719 L211.5,95.6386719 L211.5,91.6386719 Z" fill="#000000" fill-rule="nonzero"></path>
                <path id="Line" d="M392.753974,91.066915 L351.994747,90.6386443 L351.494774,90.6333909 L351.505281,89.6334461 L352.005253,89.6386995 L392.76448,90.0669702 L392.806507,86.067191 L401.75873,90.6615034 L392.711947,95.0666942 L392.753974,91.066915 Z" fill="#000000" fill-rule="nonzero"></path>
                <g id="Group-12" transform="translate(402.000000, 49.000000)">
                    <polygon id="Polygon" stroke="#000000" fill="#F3CE18" fill-rule="nonzero" points="89.5 0 179 42 89.5 84 0 42"></polygon>
                    <path d="M58.4746094,49.1660156 C54.4804688,49.1660156 52,46.3339844 52,41.7734375 C52,37.1933594 54.4707031,34.3710938 58.4648438,34.3710938 C61.6679688,34.3710938 64.1386719,36.4609375 64.4316406,39.4003906 L61.9511719,39.4003906 C61.5996094,37.7109375 60.2421875,36.6171875 58.4648438,36.6171875 C56.0722656,36.6171875 54.578125,38.5898438 54.578125,41.7636719 C54.578125,44.9472656 56.0722656,46.9199219 58.4746094,46.9199219 C60.2617188,46.9199219 61.6191406,45.9238281 61.9609375,44.3417969 L64.4414062,44.3417969 C64.109375,47.2226562 61.7265625,49.1660156 58.4746094,49.1660156 Z M67.6936953,48.8144531 L67.6936953,34 L70.0765078,34 L70.0765078,39.859375 L70.2522891,39.859375 C70.7601016,38.6582031 71.9026797,37.9355469 73.4944766,37.9355469 C75.7796328,37.9355469 77.1663515,39.3808594 77.1663515,41.9199219 L77.1663515,48.8144531 L74.7444765,48.8144531 L74.7444765,42.4960938 C74.7444765,40.875 74.002289,40.0449219 72.5960391,40.0449219 C71.0042422,40.0449219 70.1155703,41.0800781 70.1155703,42.6132812 L70.1155703,48.8144531 L67.6936953,48.8144531 Z M85.2623906,49.0292969 C82.0592656,49.0292969 80.1256719,46.9394531 80.1256719,43.4726562 C80.1256719,40.0253906 82.0885625,37.9160156 85.2623906,37.9160156 C88.4459844,37.9160156 90.3991094,40.015625 90.3991094,43.4726562 C90.3991094,46.9394531 88.45575,49.0292969 85.2623906,49.0292969 Z M85.2623906,46.9980469 C86.9518437,46.9980469 87.908875,45.7089844 87.908875,43.4726562 C87.908875,41.2460938 86.9420781,39.9472656 85.2623906,39.9472656 C83.5729375,39.9472656 82.6061406,41.2460938 82.6061406,43.4726562 C82.6061406,45.7089844 83.5729375,46.9980469 85.2623906,46.9980469 Z M98.0654609,49.0292969 C94.8623359,49.0292969 92.9287421,46.9394531 92.9287421,43.4726562 C92.9287421,40.0253906 94.8916328,37.9160156 98.0654609,37.9160156 C101.249055,37.9160156 103.20218,40.015625 103.20218,43.4726562 C103.20218,46.9394531 101.25882,49.0292969 98.0654609,49.0292969 Z M98.0654609,46.9980469 C99.754914,46.9980469 100.711945,45.7089844 100.711945,43.4726562 C100.711945,41.2460938 99.7451484,39.9472656 98.0654609,39.9472656 C96.3760078,39.9472656 95.4092109,41.2460938 95.4092109,43.4726562 C95.4092109,45.7089844 96.3760078,46.9980469 98.0654609,46.9980469 Z M106.015016,41.1875 C106.015016,39.2539062 107.772828,37.9160156 110.292359,37.9160156 C112.831422,37.9160156 114.423219,39.0390625 114.599,40.9824219 L112.323609,40.9824219 C112.147828,40.2304688 111.434937,39.7519531 110.302125,39.7519531 C109.198609,39.7519531 108.368531,40.2792969 108.368531,41.0507812 C108.368531,41.65625 108.876344,42.0273438 109.950562,42.2714844 L111.835328,42.7011719 C113.876344,43.1601562 114.823609,44.0390625 114.823609,45.6113281 C114.823609,47.6621094 112.938844,49.0292969 110.272828,49.0292969 C107.606812,49.0292969 105.927125,47.8769531 105.741578,45.9335938 L108.134156,45.9335938 C108.368531,46.7246094 109.120484,47.1933594 110.331422,47.1933594 C111.552125,47.1933594 112.401734,46.65625 112.401734,45.8652344 C112.401734,45.2597656 111.94275,44.8789062 110.927125,44.6542969 L109.032594,44.2148438 C106.981812,43.7460938 106.015016,42.7988281 106.015016,41.1875 Z M122.372773,39.8398438 C120.927461,39.8398438 119.911836,40.875 119.804414,42.4375 L124.833711,42.4375 C124.784883,40.8554688 123.827851,39.8398438 122.372773,39.8398438 Z M124.853242,45.875 L127.148164,45.875 C126.68918,47.8183594 124.921601,49.0292969 122.40207,49.0292969 C119.257539,49.0292969 117.363008,46.9492188 117.363008,43.5117188 C117.363008,40.0742188 119.286836,37.9160156 122.382539,37.9160156 C125.429414,37.9160156 127.255586,39.9375 127.255586,43.3066406 L127.255586,44.0878906 L119.794648,44.0878906 L119.794648,44.2148438 C119.853242,45.9921875 120.878633,47.1054688 122.47043,47.1054688 C123.671601,47.1054688 124.50168,46.6660156 124.853242,45.875 Z" id="Choose" fill="#000000"></path>
                </g>
                <rect id="Rectangle" stroke="#000000" stroke-width="2" fill="#FFFFFF" fill-rule="nonzero" x="1" y="58" width="130" height="64"></rect>
                <rect id="Rectangle" stroke="#000000" stroke-width="2" fill="#FFFFFF" fill-rule="nonzero" x="221" y="58" width="130" height="64"></rect>
                <rect id="Rectangle" stroke="#000000" stroke-width="2" fill="#FFFFFF" fill-rule="nonzero" x="1076" y="59" width="130" height="64"></rect>
                <text id="Send" font-family="SFProText-Semibold, SF Pro Text" font-size="20" font-weight="500" letter-spacing="0.5232348" fill="#000000">
                    <tspan x="1115" y="98">Send</tspan>
                </text>
                <g id="Group-18" transform="translate(686.000000, 0.000000)">
                    <rect id="Rectangle" stroke="#000000" stroke-width="2" fill="#FFFFFF" fill-rule="nonzero" x="1" y="127" width="169" height="54"></rect>
                    <rect id="Rectangle" stroke="#000000" stroke-width="2" fill="#FFFFFF" fill-rule="nonzero" x="1" y="64" width="169" height="54"></rect>
                    <rect id="Rectangle" stroke="#000000" stroke-width="2" fill="#FFFFFF" fill-rule="nonzero" x="1" y="1" width="169" height="54"></rect>
                    <path d="M37.5195312,33.0917969 L35,33.0917969 L35,19 L37.5195312,19 L37.5195312,33.0917969 Z M41.3577578,33.0917969 L41.3577578,22.4082031 L43.6917422,22.4082031 L43.6917422,24.1171875 L43.8577578,24.1171875 C44.3655703,22.9257812 45.439789,22.1933594 47.0315859,22.1933594 C49.4143984,22.1933594 50.7132265,23.6289062 50.7132265,26.1777344 L50.7132265,33.0917969 L48.2913515,33.0917969 L48.2913515,26.7539062 C48.2913515,25.1230469 47.6077578,24.3027344 46.1331484,24.3027344 C44.6878359,24.3027344 43.7796328,25.2988281 43.7796328,26.8710938 L43.7796328,33.0917969 L41.3577578,33.0917969 Z M53.95575,25.4648438 C53.95575,23.53125 55.7135625,22.1933594 58.2330937,22.1933594 C60.7721562,22.1933594 62.3639531,23.3164062 62.5397344,25.2597656 L60.2643437,25.2597656 C60.0885625,24.5078125 59.3756719,24.0292969 58.2428594,24.0292969 C57.1393437,24.0292969 56.3092656,24.5566406 56.3092656,25.328125 C56.3092656,25.9335938 56.8170781,26.3046875 57.8912969,26.5488281 L59.7760625,26.9785156 C61.8170781,27.4375 62.7643437,28.3164062 62.7643437,29.8886719 C62.7643437,31.9394531 60.8795781,33.3066406 58.2135625,33.3066406 C55.5475469,33.3066406 53.8678594,32.1542969 53.6823125,30.2109375 L56.0748906,30.2109375 C56.3092656,31.0019531 57.0612187,31.4707031 58.2721562,31.4707031 C59.4928594,31.4707031 60.3424687,30.9335938 60.3424687,30.1425781 C60.3424687,29.5371094 59.8834844,29.15625 58.8678594,28.9316406 L56.9733281,28.4921875 C54.9225469,28.0234375 53.95575,27.0761719 53.95575,25.4648438 Z M66.5342109,19.7910156 L68.9463203,19.7910156 L68.9463203,22.4765625 L71.2314765,22.4765625 L71.2314765,24.4101562 L68.9463203,24.4101562 L68.9463203,29.6542969 C68.9463203,30.7089844 69.395539,31.1777344 70.411164,31.1777344 C70.7529609,31.1777344 70.9385078,31.1582031 71.2314765,31.1289062 L71.2314765,33.0234375 C70.879914,33.0917969 70.4306953,33.140625 69.9619453,33.140625 C67.5107734,33.140625 66.5342109,32.3105469 66.5342109,30.2402344 L66.5342109,24.4101562 L64.8447578,24.4101562 L64.8447578,22.4765625 L66.5342109,22.4765625 L66.5342109,19.7910156 Z M77.9212656,31.3632812 C79.3861093,31.3632812 80.4798593,30.4160156 80.4798593,29.1757812 L80.4798593,28.3261719 L78.06775,28.4824219 C76.7103281,28.5703125 76.0755625,29.0585938 76.0755625,29.9277344 C76.0755625,30.8261719 76.8470468,31.3632812 77.9212656,31.3632812 Z M77.208375,33.2675781 C75.1478281,33.2675781 73.6732187,32.0175781 73.6732187,30.0644531 C73.6732187,28.1308594 75.1282968,27.0175781 77.7259531,26.8613281 L80.4798593,26.6953125 L80.4798593,25.796875 C80.4798593,24.7519531 79.7767343,24.1660156 78.4681406,24.1660156 C77.3548593,24.1660156 76.5931406,24.5566406 76.3685312,25.2792969 L74.083375,25.2792969 C74.2786875,23.3945312 76.0462656,22.1933594 78.5853281,22.1933594 C81.3294687,22.1933594 82.8724375,23.53125 82.8724375,25.796875 L82.8724375,33.0917969 L80.5384531,33.0917969 L80.5384531,31.6269531 L80.3724375,31.6269531 C79.7767343,32.6621094 78.6048593,33.2675781 77.208375,33.2675781 Z M90.9880077,30.9628906 C92.6774609,30.9628906 93.6930859,29.6738281 93.6930859,27.6328125 C93.6930859,25.5917969 92.6676952,24.2929688 90.9880077,24.2929688 C89.2985546,24.2929688 88.3415234,25.5917969 88.3415234,27.6328125 C88.3415234,29.6738281 89.2985546,30.9628906 90.9880077,30.9628906 Z M90.9880077,37.1542969 C88.2438671,37.1542969 86.4469921,35.9433594 86.2516796,34.1074219 L88.6833202,34.1074219 C88.8395702,34.8398438 89.6989452,35.3085938 91.0270702,35.3085938 C92.6872265,35.3085938 93.6540234,34.5273438 93.6540234,33.1894531 L93.6540234,31.1679688 L93.4880077,31.1679688 C92.8727734,32.3105469 91.710664,32.9355469 90.226289,32.9355469 C87.5309765,32.9355469 85.851289,30.8457031 85.851289,27.6328125 C85.851289,24.3613281 87.5407421,22.2324219 90.2653515,22.2324219 C91.7204296,22.2324219 92.9899609,22.9550781 93.5758984,24.1171875 L93.741914,24.1171875 L93.741914,22.4082031 L96.0758984,22.4082031 L96.0758984,33.1308594 C96.0758984,35.6015625 94.1032421,37.1542969 90.9880077,37.1542969 Z M99.6602187,33.0917969 L99.6602187,22.4082031 L101.994203,22.4082031 L101.994203,24.0683594 L102.160219,24.0683594 C102.453187,23.0136719 103.605531,22.2324219 104.982484,22.2324219 C105.334047,22.2324219 105.763734,22.2714844 105.988344,22.3398438 L105.988344,24.5859375 C105.802797,24.5175781 105.158266,24.4492188 104.748109,24.4492188 C103.175844,24.4492188 102.082094,25.4257812 102.082094,26.9199219 L102.082094,33.0917969 L99.6602187,33.0917969 Z M112.111726,31.3632812 C113.57657,31.3632812 114.67032,30.4160156 114.67032,29.1757812 L114.67032,28.3261719 L112.258211,28.4824219 C110.900789,28.5703125 110.266023,29.0585938 110.266023,29.9277344 C110.266023,30.8261719 111.037508,31.3632812 112.111726,31.3632812 Z M111.398836,33.2675781 C109.338289,33.2675781 107.86368,32.0175781 107.86368,30.0644531 C107.86368,28.1308594 109.318758,27.0175781 111.916414,26.8613281 L114.67032,26.6953125 L114.67032,25.796875 C114.67032,24.7519531 113.967195,24.1660156 112.658601,24.1660156 C111.54532,24.1660156 110.783601,24.5566406 110.558992,25.2792969 L108.273836,25.2792969 C108.469148,23.3945312 110.236726,22.1933594 112.775789,22.1933594 C115.51993,22.1933594 117.062898,23.53125 117.062898,25.796875 L117.062898,33.0917969 L114.728914,33.0917969 L114.728914,31.6269531 L114.562898,31.6269531 C113.967195,32.6621094 112.79532,33.2675781 111.398836,33.2675781 Z M120.588625,33.0917969 L120.588625,22.4082031 L122.922609,22.4082031 L122.922609,24.1367188 L123.088625,24.1367188 C123.547609,22.9160156 124.641359,22.1933594 126.057375,22.1933594 C127.531984,22.1933594 128.557375,22.9355469 129.006594,24.1367188 L129.172609,24.1367188 C129.699953,22.9648438 130.930422,22.1933594 132.414797,22.1933594 C134.553469,22.1933594 135.842531,23.53125 135.842531,25.7480469 L135.842531,33.0917969 L133.430422,33.0917969 L133.430422,26.3632812 C133.430422,24.9863281 132.776125,24.3027344 131.477297,24.3027344 C130.217531,24.3027344 129.387453,25.2207031 129.387453,26.4414062 L129.387453,33.0917969 L127.033937,33.0917969 L127.033937,26.1875 C127.033937,25.015625 126.29175,24.3027344 125.100344,24.3027344 C123.899172,24.3027344 123.0105,25.2890625 123.0105,26.5976562 L123.0105,33.0917969 L120.588625,33.0917969 Z" id="Instagram" fill="#000000"></path>
                    <text id="Facebook" font-family="SFProText-Semibold, SF Pro Text" font-size="20" font-weight="500" letter-spacing="0.6155703" fill="#000000">
                        <tspan x="36" y="98">Facebook</tspan>
                    </text>
                    <text id="Twitter" font-family="SFProText-Semibold, SF Pro Text" font-size="20" font-weight="500" letter-spacing="0.6155703" fill="#000000">
                        <tspan x="48" y="161">Twitter</tspan>
                    </text>
                </g>
                <path d="M50.5388533,96.7895408 L48,96.7895408 L48,82.9853316 L57.0532752,82.9853316 L57.0532752,85.1186224 L50.5388533,85.1186224 L50.5388533,89.1364796 L56.4923657,89.1364796 L56.4923657,91.1932398 L50.5388533,91.1932398 L50.5388533,96.7895408 Z M60.2517815,96.7895408 L60.2517815,86.3239796 L62.6823891,86.3239796 L62.6823891,96.7895408 L60.2517815,96.7895408 Z M61.4621651,84.6211735 C60.5765186,84.6211735 59.956566,84.0663265 59.956566,83.3105867 C59.956566,82.5548469 60.5765186,82 61.4621651,82 C62.3576521,82 62.9677641,82.5548469 62.9677641,83.3105867 C62.9677641,84.0663265 62.3576521,84.6211735 61.4621651,84.6211735 Z M66.4221239,96.7895408 L66.4221239,82.2774235 L68.862572,82.2774235 L68.862572,96.7895408 L66.4221239,96.7895408 Z M77.0797418,87.9980867 C75.6233453,87.9980867 74.5999316,89.0121173 74.4916859,90.5427296 L79.5595519,90.5427296 C79.5103493,88.9929847 78.5459787,87.9980867 77.0797418,87.9980867 Z M79.5792329,93.9100765 L81.8917543,93.9100765 C81.42925,95.8137755 79.6481166,97 77.1092633,97 C73.940617,97 72.0315568,94.9623724 72.0315568,91.5950255 C72.0315568,88.2276786 73.9701385,86.1135204 77.0895823,86.1135204 C80.1598234,86.1135204 82,88.09375 82,91.3941327 L82,92.1594388 L74.4818454,92.1594388 L74.4818454,92.283801 C74.5408885,94.0248724 75.5741427,95.1154337 77.1781469,95.1154337 C78.3885304,95.1154337 79.2249743,94.684949 79.5792329,93.9100765 Z" id="File" fill="#000000"></path>
                <path d="M257,92.8660657 L259.441969,92.8660657 C259.597015,94.1120412 260.83738,94.9137154 262.610715,94.9137154 C264.258076,94.9137154 265.449989,94.0734063 265.449989,92.9047006 C265.449989,91.9001932 264.684451,91.3110109 262.891736,90.8956858 L261.079639,90.4803606 C258.540766,89.9104958 257.348853,88.6548616 257.348853,86.5782357 C257.348853,84.0476497 259.422589,82.3670316 262.552573,82.3670316 C265.488751,82.3670316 267.610938,84.0476497 267.727223,86.4430135 L265.333705,86.4430135 C265.159279,85.2163554 264.073959,84.4436574 262.542883,84.4436574 C260.934284,84.4436574 259.868345,85.2163554 259.868345,86.4043786 C259.868345,87.341275 260.575741,87.8918223 262.310314,88.28783 L263.918913,88.6548616 C266.758187,89.2923374 267.950101,90.4707019 267.950101,92.5956214 C267.950101,95.3097231 265.847294,97 262.45567,97 C259.248162,97 257.125975,95.3966516 257,92.8660657 Z M271.216084,96.6522859 L271.216084,82 L273.58053,82 L273.58053,87.795235 L273.754957,87.795235 C274.258855,86.6072118 275.392627,85.8924662 276.972154,85.8924662 C279.239697,85.8924662 280.615728,87.3219575 280.615728,89.833226 L280.615728,96.6522859 L278.21252,96.6522859 L278.21252,90.4030908 C278.21252,88.7997424 277.476053,87.9787508 276.080642,87.9787508 C274.501114,87.9787508 273.619292,89.0025757 273.619292,90.5189955 L273.619292,96.6522859 L271.216084,96.6522859 Z M287.699711,94.9426916 C289.153264,94.9426916 290.238583,94.0057952 290.238583,92.7791372 L290.238583,91.9388281 L287.845066,92.0933677 C286.498107,92.1802962 285.868233,92.6632325 285.868233,93.522859 C285.868233,94.4114617 286.633772,94.9426916 287.699711,94.9426916 Z M286.992315,96.8261429 C284.94765,96.8261429 283.484406,95.5898261 283.484406,93.6580811 C283.484406,91.7456536 284.928269,90.6445589 287.505903,90.4900193 L290.238583,90.325821 L290.238583,89.4372183 C290.238583,88.4037347 289.540878,87.8242112 288.24237,87.8242112 C287.13767,87.8242112 286.381822,88.2105602 286.158944,88.9253059 L283.891401,88.9253059 C284.085208,87.0611719 285.839162,85.8731487 288.358655,85.8731487 C291.081644,85.8731487 292.61272,87.1963941 292.61272,89.4372183 L292.61272,96.6522859 L290.296726,96.6522859 L290.296726,95.2034771 L290.13199,95.2034771 C289.540878,96.227302 288.378035,96.8261429 286.992315,96.8261429 Z M296.111272,96.6522859 L296.111272,86.0856407 L298.427267,86.0856407 L298.427267,87.727624 L298.592003,87.727624 C298.882713,86.6844816 300.026175,85.9117836 301.392515,85.9117836 C301.741368,85.9117836 302.167744,85.9504185 302.390622,86.0180296 L302.390622,88.2395364 C302.206505,88.1719253 301.566942,88.1043142 301.159947,88.1043142 C299.5998,88.1043142 298.51448,89.0701867 298.51448,90.5479717 L298.51448,96.6522859 L296.111272,96.6522859 Z M309.154823,87.7759176 C307.72065,87.7759176 306.712853,88.7997424 306.606259,90.3451384 L311.596792,90.3451384 C311.54834,88.780425 310.598685,87.7759176 309.154823,87.7759176 Z M311.616173,93.7450097 L313.893406,93.7450097 C313.437959,95.6670959 311.684005,96.8647778 309.183894,96.8647778 C306.063599,96.8647778 304.183671,94.8074694 304.183671,91.4075982 C304.183671,88.007727 306.092671,85.8731487 309.164513,85.8731487 C312.187904,85.8731487 314,87.8725048 314,91.204765 L314,91.977463 L306.596569,91.977463 L306.596569,92.1030264 C306.654711,93.8609144 307.672198,94.962009 309.251726,94.962009 C310.44364,94.962009 311.26732,94.5273664 311.616173,93.7450097 Z" id="Share" fill="#000000"></path>
                <g id="Group-13" transform="translate(580.000000, 28.000000)" fill-rule="nonzero" stroke="#000000">
                    <polyline id="Path-2" points="0.728280893 63.2041299 62.6887464 63.2041299 106.301979 63.2041299"></polyline>
                    <polyline id="Path-3" points="107.039816 126.10161 76.9930419 126.10161 76.9930419 63.2784295"></polyline>
                    <polyline id="Path-3" transform="translate(92.016429, 31.690020) scale(1, -1) translate(-92.016429, -31.690020) " points="107.039816 63.1016096 76.9930419 63.1016096 76.9930419 0.27842948"></polyline>
                </g>
                <g id="Group-13" transform="translate(964.500000, 91.500000) scale(-1, 1) translate(-964.500000, -91.500000) translate(855.000000, 28.000000)">
                    <text id="Add-description" transform="translate(103.500000, 73.000000) scale(-1, 1) translate(-103.500000, -73.000000) " font-family="SFProText-Semibold, SF Pro Text" font-size="17" font-weight="500" letter-spacing="0.5232348" fill="#000000">
                        <tspan x="33" y="79">Add description</tspan>
                    </text>
                    <path id="Line-2" d="M8.5,62.5 L217,62.5 L217.5,62.5 L217.5,63.5 L217,63.5 L8.5,63.5 L8.5,67.5 L-0.5,63 L8.5,58.5 L8.5,62.5 Z" fill="#000000" fill-rule="nonzero"></path>
                    <polyline id="Path-3" stroke="#000000" fill-rule="nonzero" points="218.039816 126.10161 187.993042 126.10161 187.993042 63.2784295"></polyline>
                    <polyline id="Path-3" stroke="#000000" fill-rule="nonzero" transform="translate(203.016429, 31.690020) scale(1, -1) translate(-203.016429, -31.690020) " points="218.039816 63.1016096 187.993042 63.1016096 187.993042 0.27842948"></polyline>
                </g>
            </g>
        </g>
    </g>
</svg>