<?xml version="1.0" encoding="UTF-8"?>
<svg width="1207px" height="182px" viewBox="0 0 1207 182" version="1.1" xmlns="http://www.w3.org/2000/svg" xmlns:xlink="http://www.w3.org/1999/xlink">
    <!-- Generator: Sketch 54.1 (76490) - https://sketchapp.com -->
    <title>Group 122</title>
    <desc>Created with Sketch.</desc>
    <g id="Page-1" stroke="none" stroke-width="1" fill="none" fill-rule="evenodd">
        <g id="Version-1" transform="translate(-94.000000, -8646.000000)">
            <g id="Group-122" transform="translate(94.000000, 8646.000000)">
                <path id="Line" d="M211.5,91.6386719 L131.5,91.6386719 L131.5,90.6386719 L211.5,90.6386719 L211.5,86.6386719 L220.5,91.1386719 L211.5,95.6386719 L211.5,91.6386719 Z" fill="#000000" fill-rule="nonzero"></path>
                <path id="Line" d="M392.753974,91.066915 L351.494774,90.6333909 L351.505281,89.6334461 L392.76448,90.0669702 L392.806507,86.067191 L401.75873,90.6615034 L392.711947,95.0666942 L392.753974,91.066915 Z" fill="#000000" fill-rule="nonzero"></path>
                <g id="Group-12" transform="translate(402.000000, 49.000000)">
                    <polygon id="Polygon" stroke="#000000" fill="#F3CE18" fill-rule="nonzero" points="89.5 0 179 42 89.5 84 0 42"></polygon>
                    <path d="M58.4746094,49.1660156 C54.4804688,49.1660156 52,46.3339844 52,41.7734375 C52,37.1933594 54.4707031,34.3710938 58.4648438,34.3710938 C61.6679688,34.3710938 64.1386719,36.4609375 64.4316406,39.4003906 L61.9511719,39.4003906 C61.5996094,37.7109375 60.2421875,36.6171875 58.4648438,36.6171875 C56.0722656,36.6171875 54.578125,38.5898438 54.578125,41.7636719 C54.578125,44.9472656 56.0722656,46.9199219 58.4746094,46.9199219 C60.2617188,46.9199219 61.6191406,45.9238281 61.9609375,44.3417969 L64.4414062,44.3417969 C64.109375,47.2226562 61.7265625,49.1660156 58.4746094,49.1660156 Z M67.6936953,48.8144531 L67.6936953,34 L70.0765078,34 L70.0765078,39.859375 L70.2522891,39.859375 C70.7601016,38.6582031 71.9026797,37.9355469 73.4944766,37.9355469 C75.7796328,37.9355469 77.1663515,39.3808594 77.1663515,41.9199219 L77.1663515,48.8144531 L74.7444765,48.8144531 L74.7444765,42.4960938 C74.7444765,40.875 74.002289,40.0449219 72.5960391,40.0449219 C71.0042422,40.0449219 70.1155703,41.0800781 70.1155703,42.6132812 L70.1155703,48.8144531 L67.6936953,48.8144531 Z M85.2623906,49.0292969 C82.0592656,49.0292969 80.1256719,46.9394531 80.1256719,43.4726562 C80.1256719,40.0253906 82.0885625,37.9160156 85.2623906,37.9160156 C88.4459844,37.9160156 90.3991094,40.015625 90.3991094,43.4726562 C90.3991094,46.9394531 88.45575,49.0292969 85.2623906,49.0292969 Z M85.2623906,46.9980469 C86.9518437,46.9980469 87.908875,45.7089844 87.908875,43.4726562 C87.908875,41.2460938 86.9420781,39.9472656 85.2623906,39.9472656 C83.5729375,39.9472656 82.6061406,41.2460938 82.6061406,43.4726562 C82.6061406,45.7089844 83.5729375,46.9980469 85.2623906,46.9980469 Z M98.0654609,49.0292969 C94.8623359,49.0292969 92.9287421,46.9394531 92.9287421,43.4726562 C92.9287421,40.0253906 94.8916328,37.9160156 98.0654609,37.9160156 C101.249055,37.9160156 103.20218,40.015625 103.20218,43.4726562 C103.20218,46.9394531 101.25882,49.0292969 98.0654609,49.0292969 Z M98.0654609,46.9980469 C99.754914,46.9980469 100.711945,45.7089844 100.711945,43.4726562 C100.711945,41.2460938 99.7451484,39.9472656 98.0654609,39.9472656 C96.3760078,39.9472656 95.4092109,41.2460938 95.4092109,43.4726562 C95.4092109,45.7089844 96.3760078,46.9980469 98.0654609,46.9980469 Z M106.015016,41.1875 C106.015016,39.2539062 107.772828,37.9160156 110.292359,37.9160156 C112.831422,37.9160156 114.423219,39.0390625 114.599,40.9824219 L112.323609,40.9824219 C112.147828,40.2304688 111.434937,39.7519531 110.302125,39.7519531 C109.198609,39.7519531 108.368531,40.2792969 108.368531,41.0507812 C108.368531,41.65625 108.876344,42.0273438 109.950562,42.2714844 L111.835328,42.7011719 C113.876344,43.1601562 114.823609,44.0390625 114.823609,45.6113281 C114.823609,47.6621094 112.938844,49.0292969 110.272828,49.0292969 C107.606812,49.0292969 105.927125,47.8769531 105.741578,45.9335938 L108.134156,45.9335938 C108.368531,46.7246094 109.120484,47.1933594 110.331422,47.1933594 C111.552125,47.1933594 112.401734,46.65625 112.401734,45.8652344 C112.401734,45.2597656 111.94275,44.8789062 110.927125,44.6542969 L109.032594,44.2148438 C106.981812,43.7460938 106.015016,42.7988281 106.015016,41.1875 Z M122.372773,39.8398438 C120.927461,39.8398438 119.911836,40.875 119.804414,42.4375 L124.833711,42.4375 C124.784883,40.8554688 123.827851,39.8398438 122.372773,39.8398438 Z M124.853242,45.875 L127.148164,45.875 C126.68918,47.8183594 124.921601,49.0292969 122.40207,49.0292969 C119.257539,49.0292969 117.363008,46.9492188 117.363008,43.5117188 C117.363008,40.0742188 119.286836,37.9160156 122.382539,37.9160156 C125.429414,37.9160156 127.255586,39.9375 127.255586,43.3066406 L127.255586,44.0878906 L119.794648,44.0878906 L119.794648,44.2148438 C119.853242,45.9921875 120.878633,47.1054688 122.47043,47.1054688 C123.671601,47.1054688 124.50168,46.6660156 124.853242,45.875 Z" id="Choose" fill="#000000"></path>
                </g>
                <rect id="Rectangle" stroke="#000000" stroke-width="2" fill="#FFFFFF" fill-rule="nonzero" x="1" y="58" width="130" height="64"></rect>
                <rect id="Rectangle" stroke="#000000" stroke-width="2" fill="#FFFFFF" fill-rule="nonzero" x="221" y="58" width="130" height="64"></rect>
                <rect id="Rectangle" stroke="#000000" stroke-width="2" fill="#FFFFFF" fill-rule="nonzero" x="1076" y="59" width="130" height="64"></rect>
                <path d="M1116.09375,94.171875 L1118.55469,94.171875 C1118.71094,95.4316406 1119.96094,96.2421875 1121.74805,96.2421875 C1123.4082,96.2421875 1124.60938,95.3925781 1124.60938,94.2109375 C1124.60938,93.1953125 1123.83789,92.5996094 1122.03125,92.1796875 L1120.20508,91.7597656 C1117.64648,91.1835938 1116.44531,89.9140625 1116.44531,87.8144531 C1116.44531,85.2558594 1118.53516,83.5566406 1121.68945,83.5566406 C1124.64844,83.5566406 1126.78711,85.2558594 1126.9043,87.6777344 L1124.49219,87.6777344 C1124.31641,86.4375 1123.22266,85.65625 1121.67969,85.65625 C1120.05859,85.65625 1118.98438,86.4375 1118.98438,87.6386719 C1118.98438,88.5859375 1119.69727,89.1425781 1121.44531,89.5429688 L1123.06641,89.9140625 C1125.92773,90.5585938 1127.12891,91.75 1127.12891,93.8984375 C1127.12891,96.6425781 1125.00977,98.3515625 1121.5918,98.3515625 C1118.35938,98.3515625 1116.2207,96.7304688 1116.09375,94.171875 Z M1134.71269,89.0253906 C1133.26738,89.0253906 1132.25175,90.0605469 1132.14433,91.6230469 L1137.17363,91.6230469 C1137.1248,90.0410156 1136.16777,89.0253906 1134.71269,89.0253906 Z M1137.19316,95.0605469 L1139.48808,95.0605469 C1139.02909,97.0039062 1137.26152,98.2148438 1134.74198,98.2148438 C1131.59745,98.2148438 1129.70292,96.1347656 1129.70292,92.6972656 C1129.70292,89.2597656 1131.62675,87.1015625 1134.72245,87.1015625 C1137.76933,87.1015625 1139.5955,89.1230469 1139.5955,92.4921875 L1139.5955,93.2734375 L1132.13456,93.2734375 L1132.13456,93.4003906 C1132.19316,95.1777344 1133.21855,96.2910156 1134.81034,96.2910156 C1136.01152,96.2910156 1136.84159,95.8515625 1137.19316,95.0605469 Z M1142.55038,98 L1142.55038,87.3164062 L1144.88436,87.3164062 L1144.88436,89.0253906 L1145.05038,89.0253906 C1145.55819,87.8339844 1146.63241,87.1015625 1148.2242,87.1015625 C1150.60702,87.1015625 1151.90584,88.5371094 1151.90584,91.0859375 L1151.90584,98 L1149.48397,98 L1149.48397,91.6621094 C1149.48397,90.03125 1148.80038,89.2109375 1147.32577,89.2109375 C1145.88045,89.2109375 1144.97225,90.2070312 1144.97225,91.7792969 L1144.97225,98 L1142.55038,98 Z M1159.16736,98.1757812 C1156.46228,98.1757812 1154.77283,96.046875 1154.77283,92.6484375 C1154.77283,89.2695312 1156.47205,87.140625 1159.16736,87.140625 C1160.6322,87.140625 1161.84314,87.84375 1162.40955,89.015625 L1162.57556,89.015625 L1162.57556,83.1855469 L1164.99744,83.1855469 L1164.99744,98 L1162.65369,98 L1162.65369,96.3105469 L1162.48767,96.3105469 C1161.8822,97.4824219 1160.65174,98.1757812 1159.16736,98.1757812 Z M1159.91931,89.2011719 C1158.26892,89.2011719 1157.2533,90.5097656 1157.2533,92.6582031 C1157.2533,94.8164062 1158.25916,96.1152344 1159.91931,96.1152344 C1161.58924,96.1152344 1162.60486,94.8066406 1162.60486,92.6582031 C1162.60486,90.5292969 1161.57947,89.2011719 1159.91931,89.2011719 Z" id="Send" fill="#000000" fill-rule="nonzero"></path>
                <g id="Group-18" transform="translate(686.000000, 0.000000)">
                    <rect id="Rectangle" stroke="#000000" stroke-width="2" fill="#FFFFFF" fill-rule="nonzero" x="1" y="127" width="169" height="54"></rect>
                    <rect id="Rectangle" stroke="#000000" stroke-width="2" fill="#FFFFFF" fill-rule="nonzero" x="1" y="64" width="169" height="54"></rect>
                    <rect id="Rectangle" stroke="#000000" stroke-width="2" fill="#FFFFFF" fill-rule="nonzero" x="1" y="1" width="169" height="54"></rect>
                    <path d="M37.5195312,33.0917969 L35,33.0917969 L35,19 L37.5195312,19 L37.5195312,33.0917969 Z M41.3577578,33.0917969 L41.3577578,22.4082031 L43.6917422,22.4082031 L43.6917422,24.1171875 L43.8577578,24.1171875 C44.3655703,22.9257812 45.439789,22.1933594 47.0315859,22.1933594 C49.4143984,22.1933594 50.7132265,23.6289062 50.7132265,26.1777344 L50.7132265,33.0917969 L48.2913515,33.0917969 L48.2913515,26.7539062 C48.2913515,25.1230469 47.6077578,24.3027344 46.1331484,24.3027344 C44.6878359,24.3027344 43.7796328,25.2988281 43.7796328,26.8710938 L43.7796328,33.0917969 L41.3577578,33.0917969 Z M53.95575,25.4648438 C53.95575,23.53125 55.7135625,22.1933594 58.2330937,22.1933594 C60.7721562,22.1933594 62.3639531,23.3164062 62.5397344,25.2597656 L60.2643437,25.2597656 C60.0885625,24.5078125 59.3756719,24.0292969 58.2428594,24.0292969 C57.1393437,24.0292969 56.3092656,24.5566406 56.3092656,25.328125 C56.3092656,25.9335938 56.8170781,26.3046875 57.8912969,26.5488281 L59.7760625,26.9785156 C61.8170781,27.4375 62.7643437,28.3164062 62.7643437,29.8886719 C62.7643437,31.9394531 60.8795781,33.3066406 58.2135625,33.3066406 C55.5475469,33.3066406 53.8678594,32.1542969 53.6823125,30.2109375 L56.0748906,30.2109375 C56.3092656,31.0019531 57.0612187,31.4707031 58.2721562,31.4707031 C59.4928594,31.4707031 60.3424687,30.9335938 60.3424687,30.1425781 C60.3424687,29.5371094 59.8834844,29.15625 58.8678594,28.9316406 L56.9733281,28.4921875 C54.9225469,28.0234375 53.95575,27.0761719 53.95575,25.4648438 Z M66.5342109,19.7910156 L68.9463203,19.7910156 L68.9463203,22.4765625 L71.2314765,22.4765625 L71.2314765,24.4101562 L68.9463203,24.4101562 L68.9463203,29.6542969 C68.9463203,30.7089844 69.395539,31.1777344 70.411164,31.1777344 C70.7529609,31.1777344 70.9385078,31.1582031 71.2314765,31.1289062 L71.2314765,33.0234375 C70.879914,33.0917969 70.4306953,33.140625 69.9619453,33.140625 C67.5107734,33.140625 66.5342109,32.3105469 66.5342109,30.2402344 L66.5342109,24.4101562 L64.8447578,24.4101562 L64.8447578,22.4765625 L66.5342109,22.4765625 L66.5342109,19.7910156 Z M77.9212656,31.3632812 C79.3861093,31.3632812 80.4798593,30.4160156 80.4798593,29.1757812 L80.4798593,28.3261719 L78.06775,28.4824219 C76.7103281,28.5703125 76.0755625,29.0585938 76.0755625,29.9277344 C76.0755625,30.8261719 76.8470468,31.3632812 77.9212656,31.3632812 Z M77.208375,33.2675781 C75.1478281,33.2675781 73.6732187,32.0175781 73.6732187,30.0644531 C73.6732187,28.1308594 75.1282968,27.0175781 77.7259531,26.8613281 L80.4798593,26.6953125 L80.4798593,25.796875 C80.4798593,24.7519531 79.7767343,24.1660156 78.4681406,24.1660156 C77.3548593,24.1660156 76.5931406,24.5566406 76.3685312,25.2792969 L74.083375,25.2792969 C74.2786875,23.3945312 76.0462656,22.1933594 78.5853281,22.1933594 C81.3294687,22.1933594 82.8724375,23.53125 82.8724375,25.796875 L82.8724375,33.0917969 L80.5384531,33.0917969 L80.5384531,31.6269531 L80.3724375,31.6269531 C79.7767343,32.6621094 78.6048593,33.2675781 77.208375,33.2675781 Z M90.9880077,30.9628906 C92.6774609,30.9628906 93.6930859,29.6738281 93.6930859,27.6328125 C93.6930859,25.5917969 92.6676952,24.2929688 90.9880077,24.2929688 C89.2985546,24.2929688 88.3415234,25.5917969 88.3415234,27.6328125 C88.3415234,29.6738281 89.2985546,30.9628906 90.9880077,30.9628906 Z M90.9880077,37.1542969 C88.2438671,37.1542969 86.4469921,35.9433594 86.2516796,34.1074219 L88.6833202,34.1074219 C88.8395702,34.8398438 89.6989452,35.3085938 91.0270702,35.3085938 C92.6872265,35.3085938 93.6540234,34.5273438 93.6540234,33.1894531 L93.6540234,31.1679688 L93.4880077,31.1679688 C92.8727734,32.3105469 91.710664,32.9355469 90.226289,32.9355469 C87.5309765,32.9355469 85.851289,30.8457031 85.851289,27.6328125 C85.851289,24.3613281 87.5407421,22.2324219 90.2653515,22.2324219 C91.7204296,22.2324219 92.9899609,22.9550781 93.5758984,24.1171875 L93.741914,24.1171875 L93.741914,22.4082031 L96.0758984,22.4082031 L96.0758984,33.1308594 C96.0758984,35.6015625 94.1032421,37.1542969 90.9880077,37.1542969 Z M99.6602187,33.0917969 L99.6602187,22.4082031 L101.994203,22.4082031 L101.994203,24.0683594 L102.160219,24.0683594 C102.453187,23.0136719 103.605531,22.2324219 104.982484,22.2324219 C105.334047,22.2324219 105.763734,22.2714844 105.988344,22.3398438 L105.988344,24.5859375 C105.802797,24.5175781 105.158266,24.4492188 104.748109,24.4492188 C103.175844,24.4492188 102.082094,25.4257812 102.082094,26.9199219 L102.082094,33.0917969 L99.6602187,33.0917969 Z M112.111726,31.3632812 C113.57657,31.3632812 114.67032,30.4160156 114.67032,29.1757812 L114.67032,28.3261719 L112.258211,28.4824219 C110.900789,28.5703125 110.266023,29.0585938 110.266023,29.9277344 C110.266023,30.8261719 111.037508,31.3632812 112.111726,31.3632812 Z M111.398836,33.2675781 C109.338289,33.2675781 107.86368,32.0175781 107.86368,30.0644531 C107.86368,28.1308594 109.318758,27.0175781 111.916414,26.8613281 L114.67032,26.6953125 L114.67032,25.796875 C114.67032,24.7519531 113.967195,24.1660156 112.658601,24.1660156 C111.54532,24.1660156 110.783601,24.5566406 110.558992,25.2792969 L108.273836,25.2792969 C108.469148,23.3945312 110.236726,22.1933594 112.775789,22.1933594 C115.51993,22.1933594 117.062898,23.53125 117.062898,25.796875 L117.062898,33.0917969 L114.728914,33.0917969 L114.728914,31.6269531 L114.562898,31.6269531 C113.967195,32.6621094 112.79532,33.2675781 111.398836,33.2675781 Z M120.588625,33.0917969 L120.588625,22.4082031 L122.922609,22.4082031 L122.922609,24.1367188 L123.088625,24.1367188 C123.547609,22.9160156 124.641359,22.1933594 126.057375,22.1933594 C127.531984,22.1933594 128.557375,22.9355469 129.006594,24.1367188 L129.172609,24.1367188 C129.699953,22.9648438 130.930422,22.1933594 132.414797,22.1933594 C134.553469,22.1933594 135.842531,23.53125 135.842531,25.7480469 L135.842531,33.0917969 L133.430422,33.0917969 L133.430422,26.3632812 C133.430422,24.9863281 132.776125,24.3027344 131.477297,24.3027344 C130.217531,24.3027344 129.387453,25.2207031 129.387453,26.4414062 L129.387453,33.0917969 L127.033937,33.0917969 L127.033937,26.1875 C127.033937,25.015625 126.29175,24.3027344 125.100344,24.3027344 C123.899172,24.3027344 123.0105,25.2890625 123.0105,26.5976562 L123.0105,33.0917969 L120.588625,33.0917969 Z" id="Instagram" fill="#000000"></path>
                    <path d="M40.2578125,98 L37.7382812,98 L37.7382812,83.9082031 L46.7226562,83.9082031 L46.7226562,86.0859375 L40.2578125,86.0859375 L40.2578125,90.1875 L46.1660156,90.1875 L46.1660156,92.2871094 L40.2578125,92.2871094 L40.2578125,98 Z M52.9632266,96.2714844 C54.4280703,96.2714844 55.5218203,95.3242188 55.5218203,94.0839844 L55.5218203,93.234375 L53.1097109,93.390625 C51.7522891,93.4785156 51.1175234,93.9667969 51.1175234,94.8359375 C51.1175234,95.734375 51.8890078,96.2714844 52.9632266,96.2714844 Z M52.2503359,98.1757812 C50.1897891,98.1757812 48.7151797,96.9257812 48.7151797,94.9726562 C48.7151797,93.0390625 50.1702578,91.9257812 52.7679141,91.7695312 L55.5218203,91.6035156 L55.5218203,90.7050781 C55.5218203,89.6601562 54.8186953,89.0742188 53.5101016,89.0742188 C52.3968203,89.0742188 51.6351016,89.4648438 51.4104922,90.1875 L49.1253359,90.1875 C49.3206484,88.3027344 51.0882266,87.1015625 53.6272891,87.1015625 C56.3714297,87.1015625 57.9143984,88.4394531 57.9143984,90.7050781 L57.9143984,98 L55.5804141,98 L55.5804141,96.5351562 L55.4143984,96.5351562 C54.8186953,97.5703125 53.6468203,98.1757812 52.2503359,98.1757812 Z M70.6686406,90.9101562 L68.3639531,90.9101562 C68.1393437,89.875 67.3385625,89.1328125 66.0104375,89.1328125 C64.3502812,89.1328125 63.3639531,90.4121094 63.3639531,92.6289062 C63.3639531,94.875 64.3600469,96.1835938 66.0104375,96.1835938 C67.2702031,96.1835938 68.1100469,95.5878906 68.3639531,94.4746094 L70.6686406,94.4746094 C70.4049687,96.7109375 68.7252812,98.2148438 66.0202031,98.2148438 C62.8073125,98.2148438 60.9127812,96.1445312 60.9127812,92.6289062 C60.9127812,89.1621094 62.7975469,87.1015625 66.0104375,87.1015625 C68.7545781,87.1015625 70.4147344,88.6640625 70.6686406,90.9101562 Z M78.0810859,89.0253906 C76.6357734,89.0253906 75.6201484,90.0605469 75.5127265,91.6230469 L80.5420234,91.6230469 C80.4931953,90.0410156 79.536164,89.0253906 78.0810859,89.0253906 Z M80.5615547,95.0605469 L82.8564765,95.0605469 C82.3974922,97.0039062 80.629914,98.2148438 78.1103828,98.2148438 C74.9658515,98.2148438 73.0713203,96.1347656 73.0713203,92.6972656 C73.0713203,89.2597656 74.9951484,87.1015625 78.0908515,87.1015625 C81.1377265,87.1015625 82.9638984,89.1230469 82.9638984,92.4921875 L82.9638984,93.2734375 L75.5029609,93.2734375 L75.5029609,93.4003906 C75.5615547,95.1777344 76.5869453,96.2910156 78.1787422,96.2910156 C79.379914,96.2910156 80.2099922,95.8515625 80.5615547,95.0605469 Z M91.9486093,98.1757812 C90.4544687,98.1757812 89.2142343,97.4824219 88.6087656,96.3105469 L88.44275,96.3105469 L88.44275,98 L86.1087656,98 L86.1087656,83.1855469 L88.5306406,83.1855469 L88.5306406,89.015625 L88.6966562,89.015625 C89.2532968,87.8535156 90.4837656,87.140625 91.9486093,87.140625 C94.6536875,87.140625 96.333375,89.2402344 96.333375,92.6582031 C96.333375,96.0566406 94.6439218,98.1757812 91.9486093,98.1757812 Z M91.1868906,89.2011719 C89.5365,89.2011719 88.4915781,90.5292969 88.4915781,92.6582031 C88.4915781,94.7871094 89.5267343,96.1152344 91.1868906,96.1152344 C92.8470468,96.1152344 93.8431406,94.8066406 93.8431406,92.6582031 C93.8431406,90.5097656 92.8372812,89.2011719 91.1868906,89.2011719 Z M103.989961,98.2148438 C100.786836,98.2148438 98.8532421,96.125 98.8532421,92.6582031 C98.8532421,89.2109375 100.816133,87.1015625 103.989961,87.1015625 C107.173555,87.1015625 109.12668,89.2011719 109.12668,92.6582031 C109.12668,96.125 107.18332,98.2148438 103.989961,98.2148438 Z M103.989961,96.1835938 C105.679414,96.1835938 106.636445,94.8945312 106.636445,92.6582031 C106.636445,90.4316406 105.669648,89.1328125 103.989961,89.1328125 C102.300508,89.1328125 101.333711,90.4316406 101.333711,92.6582031 C101.333711,94.8945312 102.300508,96.1835938 103.989961,96.1835938 Z M116.793031,98.2148438 C113.589906,98.2148438 111.656312,96.125 111.656312,92.6582031 C111.656312,89.2109375 113.619203,87.1015625 116.793031,87.1015625 C119.976625,87.1015625 121.92975,89.2011719 121.92975,92.6582031 C121.92975,96.125 119.986391,98.2148438 116.793031,98.2148438 Z M116.793031,96.1835938 C118.482484,96.1835938 119.439516,94.8945312 119.439516,92.6582031 C119.439516,90.4316406 118.472719,89.1328125 116.793031,89.1328125 C115.103578,89.1328125 114.136781,90.4316406 114.136781,92.6582031 C114.136781,94.8945312 115.103578,96.1835938 116.793031,96.1835938 Z M127.672273,91.671875 L131.617586,87.3164062 L134.430086,87.3164062 L130.172273,91.8964844 L134.723055,98 L131.793367,98 L128.365633,93.4199219 L127.506258,94.2792969 L127.506258,98 L125.084383,98 L125.084383,83.1855469 L127.506258,83.1855469 L127.506258,91.671875 L127.672273,91.671875 Z" id="Facebook" fill="#000000" fill-rule="nonzero"></path>
                    <path d="M55.7636719,161 L53.2441406,161 L53.2441406,149.085938 L48.9082031,149.085938 L48.9082031,146.908203 L60.109375,146.908203 L60.109375,149.085938 L55.7636719,149.085938 L55.7636719,161 Z M76.5452578,150.316406 L73.6546328,161 L71.1058047,161 L69.0257266,153.304688 L68.8597109,153.304688 L66.7893984,161 L64.2698672,161 L61.3792422,150.316406 L63.8206484,150.316406 L65.5979922,158.294922 L65.7640078,158.294922 L67.8147891,150.316406 L70.1292422,150.316406 L72.1995547,158.294922 L72.3655703,158.294922 L74.1331484,150.316406 L76.5452578,150.316406 Z M79.2995,161 L79.2995,150.316406 L81.7116094,150.316406 L81.7116094,161 L79.2995,161 Z M80.5006719,148.578125 C79.6217656,148.578125 79.0065312,148.011719 79.0065312,147.240234 C79.0065312,146.46875 79.6217656,145.902344 80.5006719,145.902344 C81.3893437,145.902344 81.9948125,146.46875 81.9948125,147.240234 C81.9948125,148.011719 81.3893437,148.578125 80.5006719,148.578125 Z M86.0967109,147.699219 L88.5088203,147.699219 L88.5088203,150.384766 L90.7939765,150.384766 L90.7939765,152.318359 L88.5088203,152.318359 L88.5088203,157.5625 C88.5088203,158.617188 88.958039,159.085938 89.973664,159.085938 C90.3154609,159.085938 90.5010078,159.066406 90.7939765,159.037109 L90.7939765,160.931641 C90.442414,161 89.9931953,161.048828 89.5244453,161.048828 C87.0732734,161.048828 86.0967109,160.21875 86.0967109,158.148438 L86.0967109,152.318359 L84.4072578,152.318359 L84.4072578,150.384766 L86.0967109,150.384766 L86.0967109,147.699219 Z M94.6615,147.699219 L97.0736093,147.699219 L97.0736093,150.384766 L99.3587656,150.384766 L99.3587656,152.318359 L97.0736093,152.318359 L97.0736093,157.5625 C97.0736093,158.617188 97.5228281,159.085938 98.5384531,159.085938 C98.88025,159.085938 99.0657968,159.066406 99.3587656,159.037109 L99.3587656,160.931641 C99.0072031,161 98.5579843,161.048828 98.0892343,161.048828 C95.6380625,161.048828 94.6615,160.21875 94.6615,158.148438 L94.6615,152.318359 L92.9720468,152.318359 L92.9720468,150.384766 L94.6615,150.384766 L94.6615,147.699219 Z M106.780977,152.025391 C105.335664,152.025391 104.320039,153.060547 104.212617,154.623047 L109.241914,154.623047 C109.193086,153.041016 108.236055,152.025391 106.780977,152.025391 Z M109.261445,158.060547 L111.556367,158.060547 C111.097383,160.003906 109.329805,161.214844 106.810273,161.214844 C103.665742,161.214844 101.771211,159.134766 101.771211,155.697266 C101.771211,152.259766 103.695039,150.101562 106.790742,150.101562 C109.837617,150.101562 111.663789,152.123047 111.663789,155.492188 L111.663789,156.273438 L104.202852,156.273438 L104.202852,156.400391 C104.261445,158.177734 105.286836,159.291016 106.878633,159.291016 C108.079805,159.291016 108.909883,158.851562 109.261445,158.060547 Z M114.711,161 L114.711,150.316406 L117.044984,150.316406 L117.044984,151.976562 L117.211,151.976562 C117.503969,150.921875 118.656312,150.140625 120.033266,150.140625 C120.384828,150.140625 120.814516,150.179688 121.039125,150.248047 L121.039125,152.494141 C120.853578,152.425781 120.209047,152.357422 119.798891,152.357422 C118.226625,152.357422 117.132875,153.333984 117.132875,154.828125 L117.132875,161 L114.711,161 Z" id="Twitter" fill="#000000" fill-rule="nonzero"></path>
                </g>
                <path d="M50.5388533,96.7895408 L48,96.7895408 L48,82.9853316 L57.0532752,82.9853316 L57.0532752,85.1186224 L50.5388533,85.1186224 L50.5388533,89.1364796 L56.4923657,89.1364796 L56.4923657,91.1932398 L50.5388533,91.1932398 L50.5388533,96.7895408 Z M60.2517815,96.7895408 L60.2517815,86.3239796 L62.6823891,86.3239796 L62.6823891,96.7895408 L60.2517815,96.7895408 Z M61.4621651,84.6211735 C60.5765186,84.6211735 59.956566,84.0663265 59.956566,83.3105867 C59.956566,82.5548469 60.5765186,82 61.4621651,82 C62.3576521,82 62.9677641,82.5548469 62.9677641,83.3105867 C62.9677641,84.0663265 62.3576521,84.6211735 61.4621651,84.6211735 Z M66.4221239,96.7895408 L66.4221239,82.2774235 L68.862572,82.2774235 L68.862572,96.7895408 L66.4221239,96.7895408 Z M77.0797418,87.9980867 C75.6233453,87.9980867 74.5999316,89.0121173 74.4916859,90.5427296 L79.5595519,90.5427296 C79.5103493,88.9929847 78.5459787,87.9980867 77.0797418,87.9980867 Z M79.5792329,93.9100765 L81.8917543,93.9100765 C81.42925,95.8137755 79.6481166,97 77.1092633,97 C73.940617,97 72.0315568,94.9623724 72.0315568,91.5950255 C72.0315568,88.2276786 73.9701385,86.1135204 77.0895823,86.1135204 C80.1598234,86.1135204 82,88.09375 82,91.3941327 L82,92.1594388 L74.4818454,92.1594388 L74.4818454,92.283801 C74.5408885,94.0248724 75.5741427,95.1154337 77.1781469,95.1154337 C78.3885304,95.1154337 79.2249743,94.684949 79.5792329,93.9100765 Z" id="File" fill="#000000"></path>
                <path d="M257,92.8660657 L259.441969,92.8660657 C259.597015,94.1120412 260.83738,94.9137154 262.610715,94.9137154 C264.258076,94.9137154 265.449989,94.0734063 265.449989,92.9047006 C265.449989,91.9001932 264.684451,91.3110109 262.891736,90.8956858 L261.079639,90.4803606 C258.540766,89.9104958 257.348853,88.6548616 257.348853,86.5782357 C257.348853,84.0476497 259.422589,82.3670316 262.552573,82.3670316 C265.488751,82.3670316 267.610938,84.0476497 267.727223,86.4430135 L265.333705,86.4430135 C265.159279,85.2163554 264.073959,84.4436574 262.542883,84.4436574 C260.934284,84.4436574 259.868345,85.2163554 259.868345,86.4043786 C259.868345,87.341275 260.575741,87.8918223 262.310314,88.28783 L263.918913,88.6548616 C266.758187,89.2923374 267.950101,90.4707019 267.950101,92.5956214 C267.950101,95.3097231 265.847294,97 262.45567,97 C259.248162,97 257.125975,95.3966516 257,92.8660657 Z M271.216084,96.6522859 L271.216084,82 L273.58053,82 L273.58053,87.795235 L273.754957,87.795235 C274.258855,86.6072118 275.392627,85.8924662 276.972154,85.8924662 C279.239697,85.8924662 280.615728,87.3219575 280.615728,89.833226 L280.615728,96.6522859 L278.21252,96.6522859 L278.21252,90.4030908 C278.21252,88.7997424 277.476053,87.9787508 276.080642,87.9787508 C274.501114,87.9787508 273.619292,89.0025757 273.619292,90.5189955 L273.619292,96.6522859 L271.216084,96.6522859 Z M287.699711,94.9426916 C289.153264,94.9426916 290.238583,94.0057952 290.238583,92.7791372 L290.238583,91.9388281 L287.845066,92.0933677 C286.498107,92.1802962 285.868233,92.6632325 285.868233,93.522859 C285.868233,94.4114617 286.633772,94.9426916 287.699711,94.9426916 Z M286.992315,96.8261429 C284.94765,96.8261429 283.484406,95.5898261 283.484406,93.6580811 C283.484406,91.7456536 284.928269,90.6445589 287.505903,90.4900193 L290.238583,90.325821 L290.238583,89.4372183 C290.238583,88.4037347 289.540878,87.8242112 288.24237,87.8242112 C287.13767,87.8242112 286.381822,88.2105602 286.158944,88.9253059 L283.891401,88.9253059 C284.085208,87.0611719 285.839162,85.8731487 288.358655,85.8731487 C291.081644,85.8731487 292.61272,87.1963941 292.61272,89.4372183 L292.61272,96.6522859 L290.296726,96.6522859 L290.296726,95.2034771 L290.13199,95.2034771 C289.540878,96.227302 288.378035,96.8261429 286.992315,96.8261429 Z M296.111272,96.6522859 L296.111272,86.0856407 L298.427267,86.0856407 L298.427267,87.727624 L298.592003,87.727624 C298.882713,86.6844816 300.026175,85.9117836 301.392515,85.9117836 C301.741368,85.9117836 302.167744,85.9504185 302.390622,86.0180296 L302.390622,88.2395364 C302.206505,88.1719253 301.566942,88.1043142 301.159947,88.1043142 C299.5998,88.1043142 298.51448,89.0701867 298.51448,90.5479717 L298.51448,96.6522859 L296.111272,96.6522859 Z M309.154823,87.7759176 C307.72065,87.7759176 306.712853,88.7997424 306.606259,90.3451384 L311.596792,90.3451384 C311.54834,88.780425 310.598685,87.7759176 309.154823,87.7759176 Z M311.616173,93.7450097 L313.893406,93.7450097 C313.437959,95.6670959 311.684005,96.8647778 309.183894,96.8647778 C306.063599,96.8647778 304.183671,94.8074694 304.183671,91.4075982 C304.183671,88.007727 306.092671,85.8731487 309.164513,85.8731487 C312.187904,85.8731487 314,87.8725048 314,91.204765 L314,91.977463 L306.596569,91.977463 L306.596569,92.1030264 C306.654711,93.8609144 307.672198,94.962009 309.251726,94.962009 C310.44364,94.962009 311.26732,94.5273664 311.616173,93.7450097 Z" id="Share" fill="#000000"></path>
                <g id="Group-13" transform="translate(580.000000, 28.000000)" fill-rule="nonzero" stroke="#000000">
                    <polyline id="Path-2" points="0.728280893 63.2041299 62.6887464 63.2041299 106.301979 63.2041299"></polyline>
                    <polyline id="Path-3" points="107.039816 126.10161 76.9930419 126.10161 76.9930419 63.2784295"></polyline>
                    <polyline id="Path-3" transform="translate(92.016429, 31.690020) scale(1, -1) translate(-92.016429, -31.690020) " points="107.039816 63.1016096 76.9930419 63.1016096 76.9930419 0.27842948"></polyline>
                </g>
                <g id="Group-13" transform="translate(964.500000, 91.500000) scale(-1, 1) translate(-964.500000, -91.500000) translate(855.000000, 28.000000)" fill-rule="nonzero">
                    <path d="M42.2055664,79 L41.1928711,75.9370117 L36.7851562,75.9370117 L35.7558594,79 L33.5893555,79 L37.8393555,67.0219727 L40.246582,67.0219727 L44.5048828,79 L42.2055664,79 Z M38.9267578,69.3046875 L37.2832031,74.2436523 L40.6948242,74.2436523 L39.0678711,69.3046875 L38.9267578,69.3046875 Z M49.6599535,79.1494141 C47.3606371,79.1494141 45.924602,77.3398438 45.924602,74.4511719 C45.924602,71.5791016 47.3689379,69.7695312 49.6599535,69.7695312 C50.9050707,69.7695312 51.9343676,70.3671875 52.4158129,71.3632812 L52.5569262,71.3632812 L52.5569262,66.4077148 L54.61552,66.4077148 L54.61552,79 L52.6233325,79 L52.6233325,77.5639648 L52.4822192,77.5639648 C51.9675707,78.5600586 50.9216723,79.1494141 49.6599535,79.1494141 Z M50.2991137,71.5209961 C48.8962817,71.5209961 48.0330004,72.6333008 48.0330004,74.4594727 C48.0330004,76.2939453 48.8879809,77.3979492 50.2991137,77.3979492 C51.7185473,77.3979492 52.5818285,76.2856445 52.5818285,74.4594727 C52.5818285,72.6499023 51.7102465,71.5209961 50.2991137,71.5209961 Z M61.0240087,79.1494141 C58.7246923,79.1494141 57.2886571,77.3398438 57.2886571,74.4511719 C57.2886571,71.5791016 58.732993,69.7695312 61.0240087,69.7695312 C62.2691259,69.7695312 63.2984227,70.3671875 63.779868,71.3632812 L63.9209813,71.3632812 L63.9209813,66.4077148 L65.9795751,66.4077148 L65.9795751,79 L63.9873876,79 L63.9873876,77.5639648 L63.8462743,77.5639648 C63.3316259,78.5600586 62.2857274,79.1494141 61.0240087,79.1494141 Z M61.6631688,71.5209961 C60.2603368,71.5209961 59.3970555,72.6333008 59.3970555,74.4594727 C59.3970555,76.2939453 60.252036,77.3979492 61.6631688,77.3979492 C63.0826024,77.3979492 63.9458837,76.2856445 63.9458837,74.4594727 C63.9458837,72.6499023 63.0743016,71.5209961 61.6631688,71.5209961 Z M77.4435251,79.1494141 C75.1442087,79.1494141 73.7081736,77.3398438 73.7081736,74.4511719 C73.7081736,71.5791016 75.1525095,69.7695312 77.4435251,69.7695312 C78.6886423,69.7695312 79.7179392,70.3671875 80.1993845,71.3632812 L80.3404978,71.3632812 L80.3404978,66.4077148 L82.3990915,66.4077148 L82.3990915,79 L80.406904,79 L80.406904,77.5639648 L80.2657908,77.5639648 C79.7511423,78.5600586 78.7052439,79.1494141 77.4435251,79.1494141 Z M78.0826853,71.5209961 C76.6798533,71.5209961 75.816572,72.6333008 75.816572,74.4594727 C75.816572,76.2939453 76.6715525,77.3979492 78.0826853,77.3979492 C79.5021189,77.3979492 80.3654001,76.2856445 80.3654001,74.4594727 C80.3654001,72.6499023 79.4938181,71.5209961 78.0826853,71.5209961 Z M89.3305295,71.371582 C88.1020138,71.371582 87.2387326,72.2514648 87.147424,73.5795898 L91.4223263,73.5795898 C91.3808224,72.2348633 90.5673459,71.371582 89.3305295,71.371582 Z M91.4389279,76.5014648 L93.3896115,76.5014648 C92.9994748,78.1533203 91.4970334,79.1826172 89.3554318,79.1826172 C86.6825803,79.1826172 85.0722287,77.4145508 85.0722287,74.4926758 C85.0722287,71.5708008 86.7074826,69.7363281 89.3388303,69.7363281 C91.928674,69.7363281 93.4809201,71.4545898 93.4809201,74.3183594 L93.4809201,74.9824219 L87.1391232,74.9824219 L87.1391232,75.090332 C87.1889279,76.6010742 88.0605099,77.5473633 89.4135373,77.5473633 C90.4345334,77.5473633 91.1400998,77.1738281 91.4389279,76.5014648 Z M95.8635299,72.5170898 C95.8635299,70.8735352 97.3576705,69.7363281 99.4992721,69.7363281 C101.657475,69.7363281 103.010503,70.690918 103.159917,72.3427734 L101.225835,72.3427734 C101.076421,71.7036133 100.470463,71.296875 99.5075729,71.296875 C98.5695846,71.296875 97.8640182,71.7451172 97.8640182,72.4008789 C97.8640182,72.9155273 98.2956588,73.230957 99.2087447,73.4384766 L100.810796,73.8037109 C102.545659,74.1938477 103.350835,74.940918 103.350835,76.2773438 C103.350835,78.0205078 101.748784,79.1826172 99.4826705,79.1826172 C97.2165572,79.1826172 95.7888229,78.203125 95.631108,76.5512695 L97.6647994,76.5512695 C97.8640182,77.2236328 98.5031783,77.6220703 99.5324752,77.6220703 C100.570073,77.6220703 101.292241,77.1655273 101.292241,76.4931641 C101.292241,75.9785156 100.902104,75.6547852 100.038823,75.4638672 L98.4284713,75.090332 C96.6853072,74.6918945 95.8635299,73.8867188 95.8635299,72.5170898 Z M113.801804,72.9736328 L111.842819,72.9736328 C111.651901,72.09375 110.971237,71.4628906 109.842331,71.4628906 C108.431198,71.4628906 107.592819,72.550293 107.592819,74.4345703 C107.592819,76.34375 108.439499,77.4560547 109.842331,77.4560547 C110.913132,77.4560547 111.626999,76.949707 111.842819,76.003418 L113.801804,76.003418 C113.577683,77.9042969 112.149948,79.1826172 109.850632,79.1826172 C107.119675,79.1826172 105.509323,77.4228516 105.509323,74.4345703 C105.509323,71.487793 107.111374,69.7363281 109.842331,69.7363281 C112.174851,69.7363281 113.585983,71.0644531 113.801804,72.9736328 Z M116.292324,79 L116.292324,69.9189453 L118.27621,69.9189453 L118.27621,71.3300781 L118.417324,71.3300781 C118.666347,70.4335938 119.645839,69.7695312 120.816249,69.7695312 C121.115078,69.7695312 121.480312,69.8027344 121.67123,69.8608398 L121.67123,71.7700195 C121.513515,71.7119141 120.965664,71.6538086 120.617031,71.6538086 C119.280605,71.6538086 118.350917,72.4838867 118.350917,73.7539062 L118.350917,79 L116.292324,79 Z M123.904426,79 L123.904426,69.9189453 L125.954719,69.9189453 L125.954719,79 L123.904426,79 Z M124.925422,68.4414062 C124.178351,68.4414062 123.655402,67.9599609 123.655402,67.3041992 C123.655402,66.6484375 124.178351,66.1669922 124.925422,66.1669922 C125.680793,66.1669922 126.195441,66.6484375 126.195441,67.3041992 C126.195441,67.9599609 125.680793,68.4414062 124.925422,68.4414062 Z M133.973559,69.7695312 C136.272875,69.7695312 137.717211,71.5458984 137.717211,74.4594727 C137.717211,77.3564453 136.289477,79.1494141 133.998461,79.1494141 C132.695239,79.1494141 131.690844,78.5849609 131.226,77.6220703 L131.084887,77.6220703 L131.084887,82.0214844 L129.026293,82.0214844 L129.026293,69.9189453 L131.01018,69.9189453 L131.01018,71.4213867 L131.151293,71.4213867 C131.674243,70.3920898 132.728442,69.7695312 133.973559,69.7695312 Z M133.326098,77.3979492 C134.753832,77.3979492 135.600512,76.2939453 135.600512,74.4594727 C135.600512,72.625 134.745532,71.5209961 133.334399,71.5209961 C131.931567,71.5209961 131.051684,72.6499023 131.043383,74.4594727 C131.051684,76.2773438 131.923266,77.3979492 133.326098,77.3979492 Z M140.963102,67.6943359 L143.013395,67.6943359 L143.013395,69.9770508 L144.955778,69.9770508 L144.955778,71.6206055 L143.013395,71.6206055 L143.013395,76.078125 C143.013395,76.9746094 143.395231,77.3730469 144.258512,77.3730469 C144.54904,77.3730469 144.706755,77.3564453 144.955778,77.331543 L144.955778,78.9418945 C144.65695,79 144.275114,79.0415039 143.876677,79.0415039 C141.79318,79.0415039 140.963102,78.3359375 140.963102,76.5761719 L140.963102,71.6206055 L139.527067,71.6206055 L139.527067,69.9770508 L140.963102,69.9770508 L140.963102,67.6943359 Z M147.562509,79 L147.562509,69.9189453 L149.612802,69.9189453 L149.612802,79 L147.562509,79 Z M148.583505,68.4414062 C147.836435,68.4414062 147.313486,67.9599609 147.313486,67.3041992 C147.313486,66.6484375 147.836435,66.1669922 148.583505,66.1669922 C149.338876,66.1669922 149.853525,66.6484375 149.853525,67.3041992 C149.853525,67.9599609 149.338876,68.4414062 148.583505,68.4414062 Z M156.602345,79.1826172 C153.879689,79.1826172 152.236134,77.40625 152.236134,74.4594727 C152.236134,71.5292969 153.904591,69.7363281 156.602345,69.7363281 C159.3084,69.7363281 160.968556,71.5209961 160.968556,74.4594727 C160.968556,77.40625 159.316701,79.1826172 156.602345,79.1826172 Z M156.602345,77.4560547 C158.038381,77.4560547 158.851857,76.3603516 158.851857,74.4594727 C158.851857,72.5668945 158.03008,71.4628906 156.602345,71.4628906 C155.16631,71.4628906 154.344533,72.5668945 154.344533,74.4594727 C154.344533,76.3603516 155.16631,77.4560547 156.602345,77.4560547 Z M163.566986,79 L163.566986,69.9189453 L165.550873,69.9189453 L165.550873,71.371582 L165.691986,71.371582 C166.123627,70.3588867 167.036713,69.7363281 168.38974,69.7363281 C170.415131,69.7363281 171.519135,70.956543 171.519135,73.1230469 L171.519135,79 L169.460541,79 L169.460541,73.612793 C169.460541,72.2265625 168.879486,71.5292969 167.626068,71.5292969 C166.397553,71.5292969 165.62558,72.3759766 165.62558,73.7124023 L165.62558,79 L163.566986,79 Z" id="Adddescription" fill="#000000" transform="translate(102.554245, 74.094238) scale(-1, 1) translate(-102.554245, -74.094238) "></path>
                    <path id="Line-2" d="M8.5,62.5 L217.5,62.5 L217.5,63.5 L8.5,63.5 L8.5,67.5 L-0.5,63 L8.5,58.5 L8.5,62.5 Z" fill="#000000"></path>
                    <polyline id="Path-3" stroke="#000000" points="218.039816 126.10161 187.993042 126.10161 187.993042 63.2784295"></polyline>
                    <polyline id="Path-3" stroke="#000000" transform="translate(203.016429, 31.690020) scale(1, -1) translate(-203.016429, -31.690020) " points="218.039816 63.1016096 187.993042 63.1016096 187.993042 0.27842948"></polyline>
                </g>
            </g>
        </g>
    </g>
</svg>