<?xml version="1.0" encoding="UTF-8"?>
<svg width="63px" height="71px" viewBox="0 0 63 71" version="1.1" xmlns="http://www.w3.org/2000/svg" xmlns:xlink="http://www.w3.org/1999/xlink">
    <!-- Generator: Sketch 53.2 (72643) - https://sketchapp.com -->
    <title>Group 86</title>
    <desc>Created with Sketch.</desc>
    <g id="Page-1" stroke="none" stroke-width="1" fill="none" fill-rule="evenodd">
        <g id="Version-1" transform="translate(-236.000000, -2045.000000)" fill="#FFFFFF">
            <g id="Group-86" transform="translate(236.000000, 2045.000000)">
                <path d="M33.5061499,0 C29.7269286,0 24.5871877,1.47916667 24.5871877,1.47916667 C14.957732,4.80729167 8.45747144,10.9902083 6.82484786,21.0559375 C5.98586075,26.2330208 4.30788652,31.018125 2.66014605,35.8919792 C1.83627582,38.34 0.997288704,40.780625 0.233886012,43.2434375 C-0.242295865,44.8113542 -0.128919228,46.6159375 1.88918492,46.5863542 C6.60565303,46.5197917 6.53762705,49.3671875 6.31843222,52.6139583 C6.20504944,54.4563174 6.20504944,56.3036826 6.31843222,58.1460417 C6.52251017,61.7404167 8.72201693,63.8038542 12.3651862,63.6929167 C14.8732594,63.5716916 17.3733403,63.3248404 19.8556027,62.9533333 C21.5411354,62.7388542 22.1911615,63.1752083 21.6393951,64.9058333 C20.9832426,67.0189686 21.4670393,69.3135102 22.9243304,71 L56.1814773,71 C57.9501529,69.5208333 58.4490101,67.7088542 57.9803866,65.40875 C57.4512957,62.7610417 57.4286203,60.0171875 57.0280229,57.3398958 C56.2140925,52.84512 56.88387,48.2135055 58.9403088,44.1161458 C61.3590104,39.3754167 62.273582,34.08 62.8177898,28.7919792 C64.2614524,14.8138542 57.0582567,4.481875 43.6344628,0.9984375 L33.5061499,0 Z M56.7408021,43.4209375 C54.1860485,48.5314583 54.2313992,53.5532292 54.9418928,58.8486458 C55.2669058,61.2892708 55.3802824,63.7594792 55.7884383,66.1853125 C56.1285682,68.1895833 55.3953993,68.8404167 53.4075289,68.8034375 C48.8724634,68.7220833 44.337398,68.8034375 39.8023325,68.8034375 C35.3957605,68.8034375 30.9891885,68.8034375 26.5826165,68.8034375 C25.2825644,68.8034375 23.3929538,69.2102083 23.7482006,67.0284375 C24.027863,65.3126042 23.0754992,62.8571875 26.0157334,62.2803125 C27.0663569,62.080625 29.1146948,62.6944792 28.6460713,60.7567708 C28.2757077,59.240625 26.4767983,60.0689583 25.3203566,60.1725 C21.193447,60.5570833 17.0740959,61.0747917 12.9396278,61.4889583 C9.91625084,61.7995833 8.46502989,60.4239583 8.51038054,57.4434375 C8.51038054,54.8622917 8.43479612,52.2663542 8.51038054,49.6852083 C8.62375718,46.9413542 7.75453629,45.0628125 4.64801643,44.9075 C2.17640573,44.7817708 2.38048368,43.7315625 2.99271752,41.80125 C5.36606846,34.5829167 8.00396489,27.468125 9.3569261,19.8947917 C11.0726925,10.2802083 20.2713171,3.40947917 31.510721,2.38145833 C36.8102249,1.7695594 42.1815552,2.49783037 47.1113463,4.49666667 C55.8111137,8.19458333 60.3386207,14.8138542 60.6636337,24.0438542 C61.0030319,30.7201565 59.6556952,37.3754143 56.7408021,43.4209375 L56.7408021,43.4209375 Z" id="Shape" fill-rule="nonzero"></path>
                <path d="M24.0268015,10 C25.2617804,10.3684004 25.6428596,11.5350017 25.9533685,12.7553281 C26.1297941,13.4537539 25.798114,14.0831046 25.0853548,13.9910045 C23.6739504,13.7991292 23.4128406,12.4560027 23.0529325,11.2894014 C22.8482789,10.5833007 23.2505291,10.0767501 24.0268015,10 Z" id="Path"></path>
                <path d="M49,11.2720158 C48.5694352,12.3015154 48.3365067,13.6513038 47.0165784,13.9715925 C46.7280182,14.0528976 46.4214289,13.9567088 46.2180586,13.7210661 C46.0146882,13.4854235 45.9472883,13.1482757 46.0425137,12.8429559 C46.2966176,11.6304342 46.6918902,10.3721569 47.9624094,10.0289904 C48.5976689,9.86122005 49,10.4407902 49,11.2720158 Z" id="Path"></path>
                <path d="M35.7234233,9.99416063 C35.2338475,10.0313808 34.7503646,9.88911555 34.424168,9.61185378 C34.0979714,9.334592 33.968878,8.9561774 34.0772576,8.59494672 C34.1740909,7.70586287 33.4478413,6.47426312 35.1036903,6.08073421 C36.5949228,5.72364316 37.0403559,6.612727 36.9725726,7.53824871 C36.9047893,8.46377041 37.4373723,9.55690628 35.7234233,9.99416063 Z" id="Path"></path>
                <path d="M31,9.62308178 C31,10.2615137 31,11.007633 30.0374467,10.999941 C28.1747279,10.999941 28.2549407,9.60769788 28.0677775,8.55390059 C27.8984395,7.78470549 27.9697397,6.86936332 29.1907564,7.01551039 C30.9376123,7.16165746 30.696974,8.5846684 31,9.62308178 Z" id="Path"></path>
                <path d="M41.3264401,11 C40.3783259,11 39.8821166,10.5538556 40.0238907,9.84304914 C40.2631345,8.71634536 39.9175601,7.18886775 41.9555626,7.00738527 C42.9213986,6.91664402 43.0720336,7.68038283 42.9745639,8.29288622 C42.7973463,9.35909584 42.8593724,10.5689791 41.3264401,11 Z" id="Path"></path>
                <path d="M24.9916616,21.2537732 C24.8549741,18.4228245 23.0096926,16.850923 20.2000046,17.0111654 C17.5649729,17.1561466 15.9626914,18.8348763 16.0006601,21.4826909 C16.0006601,24.344162 17.8231604,25.7787129 20.6176609,26 C23.3969739,25.6642541 25.1359429,24.1381361 24.9916616,21.2537732 Z M20.6860047,23.9855243 C20.0543847,24.0740302 19.4147641,23.8924515 18.9226048,23.4849217 C18.4304454,23.0773919 18.1308135,22.4812276 18.0965355,21.8413286 C17.8763167,20.1625989 18.7647856,19.2621894 20.3746609,18.8806599 C21.7339423,19.0027493 22.7590988,19.5903047 22.9413488,21.0935309 C23.1054054,21.7892828 22.9453402,22.5222422 22.5064392,23.0850383 C22.0675382,23.6478345 21.3975408,23.9792516 20.6860047,23.9855243 L20.6860047,23.9855243 Z" id="Shape" fill-rule="nonzero"></path>
                <path d="M48.9977051,16.0231036 C47.4537243,16.0793937 46.002569,16.7758676 44.9914936,17.9458627 C43.9804181,19.1158577 43.5003995,20.6540971 43.666304,22.1924876 C44.0696425,26.4229224 41.1949393,28.6703408 37.0662202,27.3703635 C35.5995349,26.9150042 34.0595153,26.67998 32.7761657,27.3703635 C30.7228063,28.5161062 29.256121,28.3178046 27.8627699,26.3935443 C27.3787638,25.7105054 26.5867537,24.4913176 25.5454072,25.4020362 C24.5040606,26.3127548 25.457406,27.3042629 26.2274158,27.7890002 C29.5127909,29.8748396 28.0754393,32.9301536 26.7554225,34.6928347 C25.611408,36.2204917 22.7000377,36.7492961 20.4486758,35.5227638 C18.5566517,34.4871886 16.9432979,34.4578106 15.6526148,36.2572142 C15.1294507,36.8860321 14.9048616,37.7114572 15.0371644,38.5191596 C15.1694672,39.326862 15.6456098,40.0371593 16.3419569,40.4656155 C18.2633147,41.8610714 19.8106677,41.244133 21.3286869,39.4006623 C22.274608,38.3006395 23.6521939,37.6680367 25.1017349,37.6680367 C26.5512758,37.6680367 27.9288618,38.3006395 28.8747828,39.4006623 C29.54095,40.2731132 30.4059456,40.9732063 31.3974815,41.4424346 C33.142837,42.059373 34.0741822,42.9113356 33.7881785,44.8870073 C33.6855106,45.6214578 33.8321791,46.5395209 34.7048568,46.6349995 C35.9222056,46.7672006 36.0615407,45.6581803 35.9368725,44.8502848 C35.3941989,41.3910231 38.6429069,40.9430083 40.3369284,40.6125056 C41.7376128,40.3334144 43.820306,41.9712389 43.820306,44.7474617 C43.7845914,46.1896821 44.4993646,47.5469791 45.7079518,48.3319499 C46.9165391,49.1169207 48.4454724,49.2168988 49.7457146,48.5959822 C51.8944085,47.6118186 52.9724222,45.8271039 52.3197472,43.528274 C51.5864046,40.9650418 49.7090474,39.8119545 46.9736793,40.3040364 C43.5049686,40.9356638 42.0016162,39.4814518 42.3829544,35.9781231 C42.4979848,35.0132751 42.4807134,34.0372039 42.3316204,33.0770437 C41.5982777,28.7584749 43.9523076,26.2393097 48.2423621,26.8709371 C50.3622315,27.3695681 52.5762349,26.5686985 53.8886935,24.8284943 C55.2011522,23.0882901 55.3649122,20.7364556 54.3063277,18.8306547 C53.2477432,16.9248537 51.16616,15.8239748 48.9977051,16.0231036 L48.9977051,16.0231036 Z M18.1973138,39.4373848 C17.8276033,39.3870597 17.4961131,39.1832207 17.2840256,38.8757883 C17.0719382,38.568356 16.99884,38.1857219 17.082633,37.8215938 C17.0949955,37.4492173 17.2808144,37.1041418 17.5847031,36.8892232 C17.8885917,36.6743047 18.2754568,36.6143621 18.629986,36.7272625 C19.2532264,36.8663922 19.6670408,37.4593596 19.5833314,38.0933404 C19.6061338,38.4648232 19.4660999,38.8278045 19.1998244,39.0874272 C18.9335489,39.34705 18.5674918,39.4775154 18.1973138,39.4447293 L18.1973138,39.4373848 Z M48.1323607,42.3751867 C49.599046,42.4265982 50.3323887,43.2785608 50.3323887,44.6887057 C50.251721,46.1576067 49.5183783,46.9801912 48.0663599,47.0022247 C46.4236724,47.0022247 45.6023286,46.0988506 45.6903297,44.4830596 C45.8296648,42.9994696 46.709676,42.2943972 48.1323607,42.3531532 L48.1323607,42.3751867 Z M34.5728552,40.6345391 C31.3687491,40.4980342 28.8678435,37.8100939 28.9577592,34.5995082 C29.0476749,31.3889225 31.6950872,28.8456019 34.9017957,28.8891812 C38.1085042,28.9327605 40.6860352,31.5470882 40.6889328,34.7589353 C40.6843892,36.3576612 40.0295554,37.8855038 38.8754764,38.9900488 C37.7213973,40.0945938 36.1677334,40.6804582 34.5728552,40.6125056 L34.5728552,40.6345391 Z M48.8877037,24.8365093 C46.7243428,24.6822747 45.6463292,23.3235413 45.8076645,21.1642569 C45.8059754,20.2992954 46.1739663,19.4749587 46.8186988,18.8994377 C47.4634313,18.3239167 48.3232638,18.0522359 49.1810407,18.15301 C51.3810687,18.197077 52.3930815,19.5117434 52.5177498,21.6783723 C52.2170793,23.7862451 51.0583979,25.0127774 48.8877037,24.8365093 Z" id="Shape" fill-rule="nonzero"></path>
                <path d="M33.3591893,49.003143 C31.1351604,49.064825 29.9308127,50.2299286 30.0030735,52.100948 C30.0753344,53.9719674 31.4563198,54.9177574 33.5920298,55 C35.8401457,54.7943935 37.0766094,53.7320931 36.9963195,51.8610737 C36.9160297,49.9900544 35.5511022,48.9346075 33.3591893,49.003143 Z M33.7686675,53.1495413 C33.3712907,53.220648 32.957422,53.1379747 32.6382731,52.9237369 C32.3191242,52.7094991 32.1274284,52.3856698 32.1146966,52.039266 C32.0468678,51.4386788 32.5401149,50.8973465 33.2387545,50.8056269 C34.1460298,50.6342881 34.6679138,51.2031329 34.9248414,51.9090486 C34.9332308,52.504378 34.4501386,53.0227017 33.7686675,53.1495413 L33.7686675,53.1495413 Z" id="Shape" fill-rule="nonzero"></path>
            </g>
        </g>
    </g>
</svg>