<?xml version="1.0" encoding="UTF-8"?>
<svg width="454px" height="73px" viewBox="0 0 454 73" version="1.1" xmlns="http://www.w3.org/2000/svg" xmlns:xlink="http://www.w3.org/1999/xlink">
    <!-- Generator: Sketch 54.1 (76490) - https://sketchapp.com -->
    <title>Group 118</title>
    <desc>Created with Sketch.</desc>
    <g id="Page-1" stroke="none" stroke-width="1" fill="none" fill-rule="evenodd">
        <g id="Version-1" transform="translate(-473.000000, -13036.000000)">
            <g id="Group-118" transform="translate(477.000000, 13038.000000)">
                <path d="M390,69 L56,69 L2.98619074e-14,34.5 L56,1.71450552e-15 L390,0 L446,34.5 L390,69 Z" id="Combined-Shape" stroke="#FFFFFF" stroke-width="4" fill="#F3CE18" fill-rule="nonzero"></path>
                <path d="M84.5322266,41.6699219 L80.5507812,41.6699219 L80.5507812,33.6542969 L71.9814453,33.6542969 L71.9814453,41.6699219 L68,41.6699219 L68,22.6459961 L71.9814453,22.6459961 L71.9814453,30.371582 L80.5507812,30.371582 L80.5507812,22.6459961 L84.5322266,22.6459961 L84.5322266,41.6699219 Z M88.5919662,41.6699219 L88.5919662,27.5371094 L92.4415756,27.5371094 L92.4415756,41.6699219 L88.5919662,41.6699219 Z M90.5167709,25.9814453 C89.3566146,25.9814453 88.4601303,25.0981445 88.4601303,23.9907227 C88.4601303,22.8701172 89.3566146,22 90.5167709,22 C91.6769271,22 92.5734115,22.8701172 92.5734115,23.9907227 C92.5734115,25.0981445 91.6769271,25.9814453 90.5167709,25.9814453 Z M102.684421,38.6640625 C104.609225,38.6640625 105.8353,37.1347656 105.8353,34.5771484 C105.8353,32.0327148 104.609225,30.3979492 102.684421,30.3979492 C100.785983,30.3979492 99.5862761,32.0063477 99.5862761,34.5771484 C99.5862761,37.1611328 100.7728,38.6640625 102.684421,38.6640625 Z M102.618503,46.9960938 C98.9007293,46.9960938 96.3826628,45.1899414 96.0794402,42.671875 L99.849948,42.671875 C100.153171,43.6474609 101.260593,44.3198242 102.723971,44.3198242 C104.714694,44.3198242 105.822116,43.2124023 105.822116,41.5776367 L105.822116,39.0991211 L105.743014,39.0991211 C105.083835,40.6020508 103.422702,41.6303711 101.379245,41.6303711 C97.9251433,41.6303711 95.6443816,38.9672852 95.6443816,34.5507812 C95.6443816,30.0683594 97.8592253,27.3129883 101.445163,27.3129883 C103.475436,27.3129883 105.070651,28.3808594 105.808932,30.0024414 L105.87485,30.0024414 L105.87485,27.5371094 L109.671725,27.5371094 L109.671725,41.472168 C109.671725,44.847168 106.850436,46.9960938 102.618503,46.9960938 Z M113.428242,41.6699219 L113.428242,22.6459961 L117.211934,22.6459961 L117.211934,30.0551758 L117.291035,30.0551758 C118.0425,28.2753906 119.584981,27.2734375 121.733906,27.2734375 C124.871602,27.2734375 126.66457,29.3037109 126.66457,32.5732422 L126.66457,41.6699219 L122.814961,41.6699219 L122.814961,33.390625 C122.814961,31.5712891 121.918477,30.4638672 120.165059,30.4638672 C118.345723,30.4638672 117.277852,31.7426758 117.277852,33.6015625 L117.277852,41.6699219 L113.428242,41.6699219 Z M139.320013,35.6186523 L130.658392,35.6186523 L130.658392,32.2568359 L139.320013,32.2568359 L139.320013,35.6186523 Z M147.677604,41.6699219 L143.696159,41.6699219 L143.696159,22.6459961 L156.154655,22.6459961 L156.154655,25.9287109 L147.677604,25.9287109 L147.677604,31.0307617 L155.416374,31.0307617 L155.416374,34.1816406 L147.677604,34.1816406 L147.677604,41.6699219 Z M159.397012,41.6699219 L159.397012,27.5371094 L163.246621,27.5371094 L163.246621,41.6699219 L159.397012,41.6699219 Z M161.321817,25.9814453 C160.16166,25.9814453 159.265176,25.0981445 159.265176,23.9907227 C159.265176,22.8701172 160.16166,22 161.321817,22 C162.481973,22 163.378457,22.8701172 163.378457,23.9907227 C163.378457,25.0981445 162.481973,25.9814453 161.321817,25.9814453 Z M172.210658,41.894043 C168.677455,41.894043 166.449427,39.0991211 166.449427,34.5771484 C166.449427,30.0947266 168.690638,27.3129883 172.237025,27.3129883 C174.280482,27.3129883 175.862513,28.394043 176.54806,29.9628906 L176.627162,29.9628906 L176.627162,22.6459961 L180.476771,22.6459961 L180.476771,41.6699219 L176.679896,41.6699219 L176.679896,39.2441406 L176.613978,39.2441406 C175.928431,40.7998047 174.293666,41.894043 172.210658,41.894043 Z M173.515834,30.3979492 C171.577845,30.3979492 170.391322,32.0195312 170.391322,34.6035156 C170.391322,37.2006836 171.577845,38.7958984 173.515834,38.7958984 C175.427455,38.7958984 176.653529,37.1875 176.653529,34.6035156 C176.653529,32.0327148 175.427455,30.3979492 173.515834,30.3979492 Z M190.548229,30.081543 C188.860729,30.081543 187.647839,31.3603516 187.516003,33.1269531 L193.514538,33.1269531 C193.435437,31.3208008 192.262097,30.081543 190.548229,30.081543 Z M193.567272,37.3457031 L197.100476,37.3457031 C196.678601,40.1142578 194.147351,41.9731445 190.653698,41.9731445 C186.303112,41.9731445 183.692761,39.1914062 183.692761,34.6694336 C183.692761,30.1606445 186.329479,27.2338867 190.508679,27.2338867 C194.62196,27.2338867 197.219128,30.015625 197.219128,34.3134766 L197.219128,35.4868164 L187.476452,35.4868164 L187.476452,35.7241211 C187.476452,37.7412109 188.755261,39.1254883 190.719616,39.1254883 C192.130261,39.1254883 193.211315,38.4267578 193.567272,37.3457031 Z M200.448301,41.6699219 L200.448301,22.6459961 L204.297911,22.6459961 L204.297911,41.6699219 L200.448301,41.6699219 Z M208.120345,41.6699219 L208.120345,27.5371094 L211.969955,27.5371094 L211.969955,41.6699219 L208.120345,41.6699219 Z M210.04515,25.9814453 C208.884994,25.9814453 207.98851,25.0981445 207.98851,23.9907227 C207.98851,22.8701172 208.884994,22 210.04515,22 C211.205306,22 212.101791,22.8701172 212.101791,23.9907227 C212.101791,25.0981445 211.205306,25.9814453 210.04515,25.9814453 Z M216.715241,24.2807617 L220.564851,24.2807617 L220.564851,27.5371094 L223.175202,27.5371094 L223.175202,30.4375 L220.564851,30.4375 L220.564851,37.2006836 C220.564851,38.2817383 221.092194,38.7958984 222.225984,38.7958984 C222.568757,38.7958984 222.924714,38.7695312 223.162019,38.7299805 L223.162019,41.5644531 C222.766511,41.6567383 222.107331,41.7226562 221.329499,41.7226562 C218.007234,41.7226562 216.715241,40.6152344 216.715241,37.8598633 L216.715241,30.4375 L214.724519,30.4375 L214.724519,27.5371094 L216.715241,27.5371094 L216.715241,24.2807617 Z M228.250079,46.9038086 C228.118243,46.9038086 226.918536,46.890625 226.799883,46.8642578 L226.799883,43.8979492 C226.918536,43.9243164 227.617266,43.9243164 227.762286,43.9243164 C229.17293,43.9243164 229.871661,43.4760742 230.135333,42.3554688 C230.135333,42.3027344 230.280352,41.7358398 230.253985,41.6831055 L225.336504,27.5371094 L229.568438,27.5371094 L232.574297,38.5849609 L232.640215,38.5849609 L235.646075,27.5371094 L239.706622,27.5371094 L234.841875,41.9863281 C233.628985,45.6118164 231.862383,46.9038086 228.250079,46.9038086 Z M249.091726,22.6459961 L256.830495,22.6459961 C260.732839,22.6459961 263.422292,25.2431641 263.422292,29.1586914 C263.422292,33.0610352 260.640554,35.6713867 256.632741,35.6713867 L253.073171,35.6713867 L253.073171,41.6699219 L249.091726,41.6699219 L249.091726,22.6459961 Z M253.073171,25.796875 L253.073171,32.5600586 L255.762624,32.5600586 C258.043386,32.5600586 259.374929,31.347168 259.374929,29.171875 C259.374929,27.0097656 258.05657,25.796875 255.775808,25.796875 L253.073171,25.796875 Z M266.598731,41.6699219 L266.598731,27.5371094 L270.316505,27.5371094 L270.316505,30.081543 L270.395606,30.081543 C270.896583,28.2885742 272.09629,27.3129883 273.757422,27.3129883 C274.205665,27.3129883 274.587989,27.3789062 274.851661,27.4580078 L274.851661,30.8461914 C274.535255,30.7143555 274.007911,30.6220703 273.4542,30.6220703 C271.555762,30.6220703 270.44834,31.7822266 270.44834,33.7729492 L270.44834,41.6699219 L266.598731,41.6699219 Z M283.60476,41.9731445 C279.333275,41.9731445 276.604271,39.230957 276.604271,34.590332 C276.604271,30.015625 279.372826,27.2338867 283.60476,27.2338867 C287.836693,27.2338867 290.605248,30.0024414 290.605248,34.590332 C290.605248,39.2441406 287.876244,41.9731445 283.60476,41.9731445 Z M283.60476,39.0332031 C285.490014,39.0332031 286.689721,37.4379883 286.689721,34.6035156 C286.689721,31.7954102 285.47683,30.1738281 283.60476,30.1738281 C281.732689,30.1738281 280.506615,31.7954102 280.506615,34.6035156 C280.506615,37.4379883 281.706322,39.0332031 283.60476,39.0332031 Z M294.770456,24.2807617 L298.620066,24.2807617 L298.620066,27.5371094 L301.230417,27.5371094 L301.230417,30.4375 L298.620066,30.4375 L298.620066,37.2006836 C298.620066,38.2817383 299.14741,38.7958984 300.281199,38.7958984 C300.623972,38.7958984 300.979929,38.7695312 301.217234,38.7299805 L301.217234,41.5644531 C300.821726,41.6567383 300.162546,41.7226562 299.384714,41.7226562 C296.062449,41.7226562 294.770456,40.6152344 294.770456,37.8598633 L294.770456,30.4375 L292.779734,30.4375 L292.779734,27.5371094 L294.770456,27.5371094 L294.770456,24.2807617 Z M310.787716,41.9731445 C306.516231,41.9731445 303.787227,39.230957 303.787227,34.590332 C303.787227,30.015625 306.555782,27.2338867 310.787716,27.2338867 C315.019649,27.2338867 317.788204,30.0024414 317.788204,34.590332 C317.788204,39.2441406 315.0592,41.9731445 310.787716,41.9731445 Z M310.787716,39.0332031 C312.672969,39.0332031 313.872677,37.4379883 313.872677,34.6035156 C313.872677,31.7954102 312.659786,30.1738281 310.787716,30.1738281 C308.915645,30.1738281 307.689571,31.7954102 307.689571,34.6035156 C307.689571,37.4379883 308.889278,39.0332031 310.787716,39.0332031 Z M321.953412,24.2807617 L325.803022,24.2807617 L325.803022,27.5371094 L328.413373,27.5371094 L328.413373,30.4375 L325.803022,30.4375 L325.803022,37.2006836 C325.803022,38.2817383 326.330365,38.7958984 327.464154,38.7958984 C327.806928,38.7958984 328.162885,38.7695312 328.40019,38.7299805 L328.40019,41.5644531 C328.004682,41.6567383 327.345502,41.7226562 326.56767,41.7226562 C323.245404,41.7226562 321.953412,40.6152344 321.953412,37.8598633 L321.953412,30.4375 L319.96269,30.4375 L319.96269,27.5371094 L321.953412,27.5371094 L321.953412,24.2807617 Z M333.48825,46.9038086 C333.356414,46.9038086 332.156707,46.890625 332.038054,46.8642578 L332.038054,43.8979492 C332.156707,43.9243164 332.855437,43.9243164 333.000457,43.9243164 C334.411101,43.9243164 335.109832,43.4760742 335.373503,42.3554688 C335.373503,42.3027344 335.518523,41.7358398 335.492156,41.6831055 L330.574675,27.5371094 L334.806609,27.5371094 L337.812468,38.5849609 L337.878386,38.5849609 L340.884246,27.5371094 L344.944792,27.5371094 L340.080046,41.9863281 C338.867156,45.6118164 337.100554,46.9038086 333.48825,46.9038086 Z M355.754532,27.3129883 C359.34047,27.3129883 361.54213,30.0419922 361.54213,34.6035156 C361.54213,39.1518555 359.353653,41.894043 355.82045,41.894043 C353.763809,41.894043 352.181778,40.8920898 351.430313,39.296875 L351.351212,39.296875 L351.351212,46.2841797 L347.501602,46.2841797 L347.501602,27.5371094 L351.298477,27.5371094 L351.298477,30.0024414 L351.377579,30.0024414 C352.142227,28.3413086 353.711075,27.3129883 355.754532,27.3129883 Z M354.46254,38.7958984 C356.387345,38.7958984 357.600235,37.1743164 357.600235,34.6035156 C357.600235,32.0458984 356.387345,30.3979492 354.46254,30.3979492 C352.577286,30.3979492 351.338028,32.0722656 351.338028,34.6035156 C351.338028,37.1611328 352.577286,38.7958984 354.46254,38.7958984 Z M371.020326,30.081543 C369.332826,30.081543 368.119936,31.3603516 367.9881,33.1269531 L373.986635,33.1269531 C373.907533,31.3208008 372.734194,30.081543 371.020326,30.081543 Z M374.039369,37.3457031 L377.572573,37.3457031 C377.150698,40.1142578 374.619448,41.9731445 371.125795,41.9731445 C366.775209,41.9731445 364.164858,39.1914062 364.164858,34.6694336 C364.164858,30.1606445 366.801576,27.2338867 370.980776,27.2338867 C375.094057,27.2338867 377.691225,30.015625 377.691225,34.3134766 L377.691225,35.4868164 L367.948549,35.4868164 L367.948549,35.7241211 C367.948549,37.7412109 369.227358,39.1254883 371.191713,39.1254883 C372.602358,39.1254883 373.683412,38.4267578 374.039369,37.3457031 Z" id="High-Fidelity-Protot" fill="#000000"></path>
            </g>
        </g>
    </g>
</svg>