<?xml version="1.0" encoding="UTF-8"?>
<svg width="301px" height="296px" viewBox="0 0 301 296" version="1.1" xmlns="http://www.w3.org/2000/svg" xmlns:xlink="http://www.w3.org/1999/xlink">
    <!-- Generator: Sketch 53.2 (72643) - https://sketchapp.com -->
    <title>icons</title>
    <desc>Created with Sketch.</desc>
    <defs>
        <filter x="-0.9%" y="-2.1%" width="101.7%" height="104.2%" filterUnits="objectBoundingBox" id="filter-1">
            <feOffset dx="0" dy="2" in="SourceAlpha" result="shadowOffsetOuter1"></feOffset>
            <feGaussianBlur stdDeviation="2" in="shadowOffsetOuter1" result="shadowBlurOuter1"></feGaussianBlur>
            <feColorMatrix values="0 0 0 0 0   0 0 0 0 0   0 0 0 0 0  0 0 0 0.5 0" type="matrix" in="shadowBlurOuter1" result="shadowMatrixOuter1"></feColorMatrix>
            <feMerge>
                <feMergeNode in="shadowMatrixOuter1"></feMergeNode>
                <feMergeNode in="SourceGraphic"></feMergeNode>
            </feMerge>
        </filter>
    </defs>
    <g id="Page-1" stroke="none" stroke-width="1" fill="none" fill-rule="evenodd">
        <g id="Final-Version" transform="translate(-901.000000, -5706.000000)">
            <g id="Group-110" filter="url(#filter-1)" transform="translate(-2.000000, 5650.000000)">
                <g id="Group-73">
                    <g id="icons" transform="translate(907.000000, 58.000000)">
                        <path d="M236,209 C240.277855,207.807983 244.641176,207.53936 249,207.220369 C244.614202,206.627341 240.17722,207.23474 236,209 L236,209 Z" id="Path" fill="#000000"></path>
                        <path d="M219,262.601511 C219.612075,263.13283 220.387925,263.13283 221,262.601511 C220.293006,261.611724 219.642722,262.011851 219,262.601511 Z" id="Path" fill="#000000"></path>
                        <path d="M261,212 C259.738428,210.882535 258.537137,209.681607 257,209 C258.158235,210.275116 259.389666,211.406491 261,212 Z" id="Path" fill="#000000"></path>
                        <path d="M235,262.563598 C234.342105,261.888684 233.676692,261.725398 233,262.601698 C233.616385,263.146207 234.393724,263.131399 235,262.563598 L235,262.563598 Z" id="Path" fill="#000000"></path>
                        <path d="M269,262.599311 C269.61352,263.133563 270.38648,263.133563 271,262.599311 C270.349904,261.866677 269.684512,261.736431 269,262.599311 Z" id="Path" fill="#000000"></path>
                        <path d="M281.202509,236.389499 C279.0733,235.484992 278.04167,234.645092 278.164147,232.070725 C278.550419,223.676698 275.728746,216.664281 270.551753,210.148846 C256.30678,192.187914 229.036889,194.429303 218.574559,214.969572 C216.73741,218.577662 214.513988,220.510922 210.981008,221.96708 C200.617602,226.251065 195.016652,237.139942 196.142494,249.877593 C197.051648,260.145243 205.342373,269.230075 215.649252,271.550981 C221.151279,272.788467 226.705122,272.505187 232.178885,272.14736 C237.15332,271.819352 238.505274,273.384845 238.302716,278.608127 C237.869338,288.408613 238.175529,288.329096 247.507306,287.822174 C250.022787,287.687989 250.85657,286.82821 250.950783,284.179296 C251.087392,280.312775 249.141898,275.059675 251.892911,272.96241 C254.380129,271.058969 259.086057,272.385911 262.812173,272.296454 C263.627114,272.296454 264.437343,272.296454 265.252284,272.296454 C268.347174,272.296454 271.437354,272.331243 274.532244,272.296454 C283.694437,272.172209 290.948822,265.969872 292.710601,256.795583 C294.25098,248.58047 289.530919,239.928012 281.202509,236.389499 Z M248.977025,243.625558 C246.95145,244.549945 248.034897,246.990127 247.973659,248.739504 C247.841761,253.878299 247.926553,259.027033 247.926553,264.170797 C247.926553,269.826453 247.822919,275.492049 247.973659,281.142735 C248.044319,283.79165 247.262352,284.725976 244.676211,284.745855 C241.962883,284.745855 240.997202,283.955654 241.034887,280.978731 C241.180917,270.005367 241.1291,259.027033 241.034887,248.053669 C241.034887,246.498115 241.934619,244.321333 239.909044,243.516222 C238.25561,242.865176 237.393563,244.718919 236.361933,245.717853 C234.977005,247.054735 234.044299,249.002904 231.77377,246.522964 C229.503242,244.043023 231.302706,243.009301 232.640528,241.597872 C235.622363,238.437066 238.736095,235.410445 241.590743,232.105514 C243.795322,229.536117 245.458178,229.794547 247.568544,232.21485 C250.531536,235.619177 253.692375,238.85453 256.862635,242.040186 C258.417146,243.595739 258.935317,244.733828 257.131142,246.62733 C255.468286,248.366767 254.559133,247.765419 253.21189,246.368899 C252.001256,245.131414 251.012021,242.701172 248.977025,243.625558 Z M289.709924,256.298601 C289.187043,258.142405 289.837111,262.317054 285.404399,260.20488 C284.269135,259.66317 284.193765,261.820072 283.991207,262.943252 L283.991207,262.943252 C284.269135,268.693334 279.558496,268.683395 276.538976,268.907037 C268.936004,269.523294 261.262373,269.264864 253.621716,269.105829 C249.08537,269.011403 251.468953,265.189611 250.988468,262.923372 L250.988468,262.923372 L250.988468,249.504856 C255.534235,251.845642 258.996555,250.548519 261.822939,245.81228 C262.812173,244.162299 262.105577,243.30252 261.154028,242.298616 C256.443389,237.328796 251.695064,232.358975 247.02211,227.349395 C245.293305,225.495652 243.767058,225.495652 242.033543,227.349395 C237.351167,232.368914 232.631107,237.338735 227.873361,242.258858 C226.361246,243.819381 226.271744,245.166203 227.929889,246.503085 C230.756272,248.779263 232.593422,254.867293 238.053053,248.411496 L238.053053,262.893553 L238.053053,262.893553 C239.075261,267.783857 237.398274,269.796634 232.532183,269.195286 C227.576591,268.579028 222.592734,269.274803 217.55235,268.499511 C212.695681,267.754038 210.957455,265.75617 211.932557,260.875806 L211.932557,260.875806 C211.36257,260.140273 210.354493,259.548864 209.972932,260.517979 C207.801327,265.984782 205.789884,262.505907 204.06579,260.368885 C195.586639,249.932261 198.483682,233.074629 209.81277,226.077121 C212.502545,224.417201 214.019371,224.17368 213.774417,228.243963 C213.684915,229.690181 213.345749,231.683079 215.493801,231.822234 C218.042257,231.981268 217.500533,229.739879 217.674827,228.134627 C218.21655,223.164806 219.39421,218.403718 222.493811,214.412952 L222.493811,214.412952 C232.565158,196.521597 259.307457,196.521597 269.477728,214.412952 L269.477728,214.412952 C272.991865,219.576596 276.072623,224.889334 275.31892,231.683079 C275.144627,233.203844 275.413133,234.868734 273.265082,235.062557 C272.049737,235.171893 270.226719,235.022799 270.735468,237.100184 C271.159426,238.844591 272.930626,238.163725 274.108286,238.138876 C281.471015,237.979842 286.436029,241.453747 289.182332,248.684836 C290.091485,251.274113 290.392966,253.898178 289.709924,256.298601 Z" id="Shape" fill="#000000" fill-rule="nonzero"></path>
                        <path d="M254,262.570411 C254.60859,263.143196 255.39141,263.143196 256,262.570411 C255.344383,261.734111 254.6814,261.889577 254,262.570411 Z" id="Path" fill="#000000"></path>
                        <path d="M155,108.226678 C155.904628,108.83858 156.87237,109.192211 158,108.890234 C157.129032,108.175024 156.199158,107.694244 155,108.226678 Z" id="Path" fill="#000000"></path>
                        <path d="M157,128.945474 C153.334932,128.290865 149.689054,127.391542 146,127 C149.534713,128.543157 153.269397,129.203678 157,128.945474 L157,128.945474 Z" id="Path" fill="#000000"></path>
                        <path d="M164,112 C164.5,112.526667 164.987603,113.065949 166,112.993414 C165.533136,112.472329 164.813332,112.114797 164,112 L164,112 Z" id="Path" fill="#000000"></path>
                        <path d="M150,108.424987 C149.355273,107.858338 148.644727,107.858338 148,108.424987 C148.669187,109.062691 149.338374,109.310688 150,108.424987 Z" id="Path" fill="#000000"></path>
                        <path d="M171,115 C171.194757,115.827586 171.449438,116.591133 172,117 C171.756554,116.256158 171.539326,115.487685 171,115 Z" id="Path" fill="#000000"></path>
                        <path d="M184.792922,142.071928 C179.863124,140.440533 180.580872,136.526179 179.636467,133.019675 C178.998993,130.647189 179.593968,129.672331 181.898318,130.184628 C185.81288,131.055037 185.5815,128.54826 184.849586,126.016613 C181.78499,115.457309 175.929674,107.419704 165.961472,103.112423 C158.94926,100.083399 151.66317,100.003819 144.263751,100.501196 C143.451562,100.555907 141.836629,101.645162 141.931069,100.192822 C142.228557,95.5821416 139.06952,97.3478284 137.256261,97.2632744 C132.690059,97.0394549 128.100248,97.4274086 123.562378,97.1090876 C120.256958,96.8802944 118.594804,98.2381324 117.130976,101.222392 C113.022811,109.618108 108.602992,117.84969 104.31539,126.145931 C100.740815,133.059465 100.745537,133.059465 108.418833,133.337996 C109.037419,133.337996 109.651282,133.497156 111.185942,133.711028 C107.195828,140.59472 103.706249,146.767163 100.018344,152.805314 C99.4894771,153.675723 98.4931291,154.257654 99.31004,155.252407 C99.9941958,156.069548 101.147007,156.226914 102.006318,155.620465 C103.620212,154.453949 105.169955,153.191899 106.648072,151.840403 C108.772985,149.930478 110.317088,148.826302 110.765681,153.203215 C111.044281,155.918891 112.18229,158.808649 114.326091,160.360464 C117.277358,162.494209 118.396479,165.543128 119.572264,168.731311 C122.698247,177.216555 128.577173,183.324339 135.428836,188.427423 C141.46831,192.928681 148.074428,194.196991 155.398294,191.829478 C163.043258,189.342596 168.185547,183.956008 172.628976,177.405558 C177.025185,170.914794 178.644841,162.603632 184.698481,157.207097 C185.393206,156.510595 185.983852,155.707354 186.450354,154.824663 C188.948307,150.636752 188.447772,143.275579 184.792922,142.071928 Z M107.823857,145.797278 C109.712669,142.410144 111.60148,139.027984 113.447793,135.635875 C116.144072,130.736716 116.120461,130.7019 110.614576,130.085153 L105.656446,130.085153 C110.642908,120.4261 115.393269,111.184844 120.16724,101.993325 C121.640513,99.1533053 124.133744,100.600671 126.24449,100.466379 L137.992897,100.466379 C134.720532,105.176535 131.80704,109.36942 128.884104,113.552356 C128.794386,113.681674 128.614949,113.74136 128.496898,113.855756 C126.216158,116.059134 123.061843,118.879259 123.850422,121.674516 C124.695665,124.658775 128.737722,122.495187 131.334837,122.972668 C132.595619,123.206435 133.927231,123.012459 135.844374,123.012459 C132.241467,128.712394 126.400317,130.657136 122.197712,134.675939 C117.742128,138.844013 112.92859,142.56712 107.819135,145.797278 L107.823857,145.797278 Z M183.92879,148.890961 C183.092991,153.546405 182.559402,158.465459 177.261286,160.23612 C175.443305,164.76722 174.328907,169.651458 171.273754,173.565811 L171.273754,173.565811 C167.496131,180.374896 162.646608,185.791327 155.374684,188.581609 C149.457983,190.864568 143.900155,190.227926 138.597317,186.895503 C133.294479,183.56308 129.261867,178.639052 125.493688,173.530995 C122.032441,169.437586 122.074939,163.339749 118.250096,159.450265 L118.250096,159.450265 C111.965076,154.700319 111.639256,147.334172 117.48985,142.837888 L137.034326,127.021314 L137.034326,127.021314 C138.81453,125.136256 142.662984,123.843077 141.997178,121.366142 C141.184989,118.357014 137.449864,120.371389 135.027463,119.943645 C133.892108,119.839046 132.750913,119.824083 131.613437,119.898881 C129.356307,119.898881 129.049375,118.904128 130.376265,117.108599 C131.953423,114.949985 133.497526,112.771475 135.060518,110.59794 L135.060518,110.59794 C136.661285,105.703754 140.377522,103.933094 144.825673,103.515298 C150.68571,102.968183 156.569357,103.281531 162.221626,104.927847 C172.699807,107.986713 178.654285,115.780603 181.865264,126.71294 L177.24712,127.165553 C176.859914,128.234912 176.467985,129.309246 176.076057,130.378605 L176.076057,130.378605 C177.062961,134.317828 177.695713,138.301814 177.492666,142.395223 C177.412391,144.126093 177.445445,145.827121 179.15482,146.8169 L179.15482,146.8169 C180.571428,146.289681 180.443933,142.97218 182.606622,144.235516 C183.999621,145.051214 184.245166,147.170038 183.92879,148.890961 Z" id="Shape" fill="#000000" fill-rule="nonzero"></path>
                        <path d="M167,129.041325 C167.666158,129.119395 168.336239,129.102701 169,128.991498 C168.335269,128.868683 167.661202,128.885476 167,129.041325 Z" id="Path" fill="#000000"></path>
                        <path d="M227.983315,52.0594452 L227.945781,52 C226.758789,53.010568 225.13078,52.7926024 223.695129,52.9194188 C221.968594,53.0779392 221.780928,53.8903567 222.170336,55 L223.371404,54.2985469 C230.155558,53.5059445 237.024162,54.3976222 245,53.652576 C238.642788,52.2140026 233.040934,54.2232497 227.983315,52.0594452 Z" id="Path" fill="#BADCF7"></path>
                        <path d="M236,79 C236.785507,78.6678383 236.814493,77.2179262 237,76 C236.315942,76.5799649 236.147826,77.7768014 236,79 Z" id="Path" fill="#BADCF7"></path>
                        <path d="M236.902212,40 L237.423749,39.658657 C241.14901,38.3826844 245.218859,39.6058301 249,38.3745572 C240.450524,38.025087 231.905704,37.8097158 223.360885,38.2363946 C222.445406,38.2846044 221.592379,38.6575398 221,39.2685507 C226.345751,38.8134268 231.700815,38.1226136 236.902212,40 Z" id="Path" fill="#BADCF7"></path>
                        <path d="M241.894182,32.5324675 C243.978204,32.4788961 246.16734,32.8441558 248,31.3928571 C245.874846,31.6801948 243.790824,31.5340909 241.834769,30.2727273 C241.601687,30.4334416 241.377747,30.5941558 241.140095,30.7597403 C239.239434,31.455883 237.171568,31.4318004 235.285639,30.6915584 C235.102682,30.4742164 234.934671,30.2430975 234.782914,30 L234.782914,30 C233.311303,31.461039 231.611179,31.3003247 229.860784,30.788961 C229.56556,30.5610373 229.295696,30.2979734 229.056425,30.0048701 C228.379327,30.7190783 227.317842,30.8095697 226.542802,30.2191558 C225.057479,31.1931818 222.914045,31.163961 222,33 C222.164528,32.9269481 222.324486,32.8538961 222.493584,32.7857143 C228.95131,32.288961 235.427316,32.6980519 241.894182,32.5324675 Z" id="Path" fill="#BADCF7"></path>
                        <path d="M234.457694,46.6328801 C234.359095,46.4272889 234.271215,46.2160048 234.194458,46 L234.134422,46.1137206 C230.832426,48.8529048 226.657595,46.3263288 223,48.091471 C224.690252,49.3770087 226.906977,48.407911 228.255484,50 C230.430645,48.2002472 233.012205,48.7985167 235.459838,48.7095179 C240.632195,48.5166873 245.827643,48.9715698 251,48.170581 C245.559789,46.7317676 239.842487,48.7095179 234.457694,46.6328801 Z" id="Path" fill="#BADCF7"></path>
                        <path d="M286.102008,66.7150605 C285.876566,66.4859189 286.102008,65.7187929 286.181851,65.2206591 C286.534104,62.9989823 285.383413,62.1222668 283.753659,60.8470442 C280.273407,58.132215 277.220554,54.934196 277.272217,49.5792576 C277.422512,35.2828174 277.300397,20.9813959 277.342668,6.68495566 C277.342668,4.19428664 277.300397,1.8331324 275.182187,0.209216198 L225.617944,0 C220.742773,2.86925072 217.633559,7.92530883 213.058976,11.2378986 C208.244862,14.7248353 206.86873,19.7510054 207.009631,26.0125473 C207.385366,43.2330329 207.136442,60.4634812 207.141138,77.6939295 C207.141138,85.3452648 207.967757,86.4013084 215.149007,86.4959539 C226.031253,86.6354313 236.922894,86.306663 247.795747,86.6553567 C251.92884,86.7898528 256.879159,84.1646876 260.129273,89.4997007 C260.396985,89.9430398 261.960985,89.6441595 262.886234,89.4648313 C264.074499,89.2356898 265.168829,89.1460257 266.033021,90.1921067 C268.118355,92.7176451 270.119148,92.5084289 272.171604,90.1173866 C273.200181,88.9168841 274.55283,89.2058017 275.825635,89.5544954 C278.173983,90.2070507 280.052662,89.7935996 280.771256,86.9940877 C281.240926,85.1310672 282.37283,84.1248369 284.101215,83.6615725 C285.510224,83.2829908 286.449563,82.2518538 286.219425,80.6727697 C285.627641,76.0052559 290.59205,71.3277795 286.102008,66.7150605 Z M225.073127,4.40848417 C226.233211,8.22418912 225.48174,11.8804912 225.594461,15.4620733 C225.646124,17.1856163 224.533007,17.7933395 223.062941,17.7983208 C219.592082,17.7983208 216.121223,17.7983208 211.199084,17.7983208 C216.511049,12.6675427 220.630052,8.69243489 225.073127,4.40848417 Z M247.758174,83.4523563 C236.758509,83.5171137 225.754148,83.4971883 214.749787,83.4822443 C213.495769,83.4822443 212.133727,83.860826 211.072274,82.7151183 C208.996334,78.0027725 210.447613,73.0612851 210.231565,68.2244059 L210.231565,68.2244059 L210.231565,45.4945604 L210.231565,45.4945604 C210.231565,44.4684047 210.231565,43.4422491 210.231565,42.4160935 L210.231565,42.4160935 C210.184598,36.7473308 210.278532,31.0735867 210.02491,25.4197681 C209.879313,22.1420476 211.114544,21.2205001 213.979529,21.4346976 C216.844514,21.6488952 219.80813,21.5393057 222.724779,21.4346976 C226.571374,21.3101642 228.619133,19.4421624 228.661404,15.0336782 C228.694281,11.1432532 226.937716,6.06726974 229.492719,3.67124614 C232.155746,1.18057712 236.94168,3.04857888 240.792972,2.89415741 C243.54054,2.78954931 246.297501,2.96887748 249.045069,3.02367219 L249.045069,3.02367219 C249.285072,2.8916347 249.570626,2.8916347 249.81063,3.02367219 L257.841982,3.02367219 C260.293658,2.94895212 262.247484,2.88419473 263.478018,2.83936269 C266.826763,2.71981057 267.733226,2.66999719 269.114055,2.83936269 C270.83987,3.05321219 272.531332,3.50882402 274.144217,4.19428664 L274.144217,4.19428664 L274.228758,41.3650311 L274.228758,41.3650311 C274.285118,44.2591885 274.548133,47.16829 274.332085,50.0325593 C274.158307,52.3140122 276.135617,58.4161513 270.372769,53.2056717 C269.597814,52.5082844 268.278043,52.4335643 267.695652,53.2554851 C265.464721,56.3987094 262.571556,55.1882442 259.791111,54.8843826 C258.339832,58.1919911 256.752348,61.3601221 252.905753,62.0575094 C252.717886,65.2007337 253.596168,68.4983795 250.900264,71.1783394 C249.519435,72.5531887 251.139795,73.8881873 251.891267,75.1634098 C254.728072,80.0052704 253.041958,83.4174869 247.758174,83.4523563 Z M269.236169,88.3191236 C263.933598,88.8172574 254.620048,79.0687788 254.206738,72.6079834 C253.845093,66.7449485 262.740637,56.1197544 268.766499,56.8619738 C271.584517,57.2106675 275.276121,57.9578682 277.943845,59.7959819 C282.011184,62.6054566 283.92274,67.3875411 284.660122,72.1845696 C285.641731,78.3564475 276.332878,87.6566056 269.236169,88.3191236 Z" id="Shape" fill="#000000" fill-rule="nonzero"></path>
                        <path d="M54,275.602376 C54.6128013,276.132541 55.3871987,276.132541 56,275.602376 C55.7400181,275.21786 55.3783503,275 55,275 C54.6216497,275 54.2599819,275.21786 54,275.602376 L54,275.602376 Z" id="Path" fill="#000000"></path>
                        <path d="M13.1055718,275.299026 L13,275.451561 C13.9335498,276.246699 15.1223068,276.171751 16,275.262417 C15.0938416,274.151961 14.1964809,273.072012 13.1055718,275.299026 Z" id="Path" fill="#000000"></path>
                        <path d="M29,275.602376 C29.6128013,276.132541 30.3871987,276.132541 31,275.602376 C30.7400181,275.21786 30.3783503,275 30,275 C29.6216497,275 29.2599819,275.21786 29,275.602376 L29,275.602376 Z" id="Path" fill="#000000"></path>
                        <path d="M68,275.602386 C68.6147528,276.132538 69.3852472,276.132538 70,275.602386 C69.3473282,274.857322 68.6832061,274.743115 68,275.602386 Z" id="Path" fill="#000000"></path>
                        <path d="M84.9997757,210.803482 C85.0232456,205.950686 83.2066785,203.951595 78.6206681,204.001572 C67.5898345,204.161499 56.5590009,204.056547 45.5140854,204.056547 C34.4691699,204.056547 23.4524182,204.161499 12.4075027,204.001572 C7.84965618,203.936601 5.97676145,205.880718 6.00023131,210.768497 C6.106628,233.234957 6.106628,255.698085 6.00023131,278.157881 C5.97676145,282.995683 7.73700085,285.024761 12.3370932,284.999772 C34.4081483,284.889822 56.4807681,284.889822 78.5549525,284.999772 C83.0846352,284.999772 85.0138576,283.055655 84.9903878,278.197862 C84.902767,255.731403 84.9058963,233.266609 84.9997757,210.803482 Z M81.8970604,277.593137 C82.4744189,280.706723 81.3901115,281.906178 78.310866,281.891184 C56.4432163,281.794562 34.5724373,281.794562 12.698529,281.891184 C9.63336544,281.891184 8.52558811,280.721716 9.10294663,277.598135 L9.10294663,277.598135 C9.06070089,255.48818 9.06070089,233.373228 8.91988173,211.263273 C8.91988173,208.064726 9.95724949,207.100164 12.8815939,207.115157 C34.624071,207.208448 56.3728067,207.208448 78.1278011,207.115157 C81.0474515,207.115157 82.1176771,208.049733 82.0989012,211.258275 C81.958082,233.36823 81.958082,255.478185 81.9158363,277.593137 L81.8970604,277.593137 Z" id="Shape" fill="#000000" fill-rule="nonzero"></path>
                        <path d="M90.9981113,78.6239012 C90.9981113,71.1430802 89.9854811,70.0560388 82.8122914,70.0510977 C59.6866437,70.0510977 36.5609961,70.1449785 13.4400583,70.0066278 C-1.38673167,69.9226292 0.00740105678,70.4315622 0.0545001355,83.9306394 C0.0545001355,90.7246479 1.21784738,91.9648633 7.7504896,91.9846277 C20.2882644,92.0192154 32.8260391,91.9846277 45.3638139,91.9846277 L78.0976736,91.9846277 C91.0216608,91.9945099 91.0216608,91.9945099 90.9981113,78.6239012 Z M83.0148174,88.4665666 C58.0209063,88.3084515 33.0269952,88.3084515 8.03308407,88.4665666 C3.95901376,88.4912721 2.19750822,87.320232 3.19129878,82.9572433 L3.19129878,82.9572433 C2.72030799,73.5691588 2.72030799,73.5691588 11.6361636,73.5691588 L79.4211577,73.5691588 C88.3228836,73.5691588 88.3228836,73.5691588 87.8613126,82.9572433 L87.8613126,82.9572433 C88.8551032,87.3399964 87.0794679,88.4962132 83.0148174,88.4665666 L83.0148174,88.4665666 Z" id="Shape" fill="#000000" fill-rule="nonzero"></path>
                        <path d="M233,209.997018 C238.101744,205.533082 248.838178,204.602533 253,208.252802 C251.546512,209.259772 249.908915,209.106928 248.242248,209.106928 C244.293605,209.106928 240.267442,208.657388 236.614341,210.644357 C235.243217,211.386098 234.065891,210.869127 233,209.997018 Z" id="Path" fill="#000000"></path>
                        <path d="M256,209.260026 C260.042636,208.347522 262.099225,209.901835 263,212.901309 C259.288372,213.412137 257.182946,211.901485 256,209.260026 Z" id="Path" fill="#000000"></path>
                        <path d="M271,262.457305 C270.717231,263.50036 271.17673,265.180596 269.290133,264.984205 C267.849779,264.831456 268.243004,263.404347 268,262.457305 C268.260677,261.418613 267.902798,259.838755 269.709867,260.013325 C271.092784,260.157345 270.779087,261.523355 271,262.457305 Z" id="Path" fill="#000000"></path>
                        <path d="M257,262.457305 C256.717231,263.50036 257.172312,265.180596 255.285714,264.984205 C253.845361,264.831456 254.238586,263.404347 254,262.457305 C254.256259,261.418613 253.89838,259.838755 255.705449,260.013325 C257.088365,260.157345 256.774669,261.523355 257,262.457305 Z" id="Path" fill="#000000"></path>
                        <path d="M235,262.457305 C234.717231,263.50036 235.172312,265.180596 233.285714,264.984205 C231.849779,264.831456 232.243004,263.404347 232,262.457305 C232.256259,261.418613 231.902798,259.838755 233.705449,260.013325 C235.092784,260.157345 234.77025,261.523355 235,262.457305 Z" id="Path" fill="#000000"></path>
                        <path d="M221,262.457305 C220.717231,263.50036 221.172312,265.180596 219.285714,264.984205 C217.849779,264.831456 218.243004,263.404347 218,262.457305 C218.256259,261.418613 217.902798,259.838755 219.705449,260.013325 C221.092784,260.157345 220.779087,261.523355 221,262.457305 Z" id="Path" fill="#000000"></path>
                        <path d="M227,260.681917 C226.666667,262.037037 227.440329,263.631808 226.057613,265 C224.502058,263.854031 225.341564,262.071895 225,260.681917 C225.663923,259.772694 226.33059,259.772694 227,260.681917 Z" id="Path" fill="#000000"></path>
                        <path d="M263,260.681917 C262.665979,262.037037 263.445361,263.631808 262.059794,265 C260.501031,263.854031 261.342268,262.071895 261,260.681917 C261.665292,259.772694 262.331959,259.772694 263,260.681917 Z" id="Path" fill="#000000"></path>
                        <path d="M280,260.681917 C279.666667,262.037037 280.440329,263.636166 279.057613,265 C277.502058,263.854031 278.341564,262.071895 278,260.681917 C278.66118,259.772694 279.327846,259.772694 280,260.681917 Z" id="Path" fill="#000000"></path>
                        <path d="M171,144.643905 C167.648641,145.511894 169.308491,150.553097 166.255634,151.783974 C163.202777,153.014851 162.687183,148.606251 160.244897,148.106054 C159.869509,148.027591 159.896646,146.693732 160.529831,146.43873 C163.546506,145.21766 166.59484,144.070149 169.670311,143.030524 C170.163291,142.858888 170.810044,143.413028 171,144.643905 Z" id="Path" fill="#000000"></path>
                        <path d="M142,127.854079 C142.06707,126.41469 142.99647,125.720451 144.294755,126.104596 C149.020745,127.451813 153.92154,128.140652 158.848966,128.150288 C159.883762,128.150288 160.525719,129.075941 161,129.941425 C154.316944,132.209274 148.098588,130.51533 142,127.854079 Z" id="Path" fill="#000000"></path>
                        <path d="M141.994164,147.955443 C140.493221,149.18466 138.968605,151.115576 137.041528,151.822252 C134.882444,152.608552 133.98756,150.65773 133.911803,148.492915 C133.923707,147.980761 133.831704,147.471815 133.641917,146.999939 C133.021654,145.735885 129.546287,145.113812 131.691166,143.561117 C134.14381,141.789452 137.022589,144.720662 139.768792,145.377571 C140.786781,145.646307 142.09833,145.954855 141.994164,147.955443 Z" id="Path" fill="#000000"></path>
                        <path d="M165,129.646583 C167.675208,126.732971 170.345291,125.541512 173,129.672598 C170.324792,131.446779 167.659833,131.446779 165,129.646583 Z" id="Path" fill="#000000"></path>
                        <path d="M155,108.245853 C155.303448,107.072667 155.413793,105.698496 157.193103,106.058398 C158.972414,106.4183 158.977011,107.843885 159,109.2461 C157.243678,110.662337 155.312644,112.789029 155,108.245853 Z" id="Path" fill="#000000"></path>
                        <path d="M163.054015,111.644258 C163.897877,111.329759 163.99478,109.397841 165.302969,110.188579 C166.748436,111.033232 165.468511,112.394561 165.646166,113.499798 C165.18184,114.227637 164.733664,115.337367 163.80905,114.901562 C162.484711,114.281551 163.227633,112.767466 163.054015,111.644258 Z" id="Path" fill="#000000"></path>
                        <path d="M148,108.490486 C148.226244,107.510336 147.81448,105.954982 149.357466,106.000998 C150.647059,106.037811 150.823529,107.38149 151,108.485884 C150.742081,109.447627 151.248869,111.058201 149.642534,110.99838 C148.434389,110.952363 148.158371,109.617888 148,108.490486 Z" id="Path" fill="#000000"></path>
                        <path d="M169.979618,114.713983 C170.818272,114.459656 171.681165,113.518644 172.534362,114.311298 C173.697813,115.39219 172.359845,116.350157 171.986571,117.342034 C171.147917,117.549735 170.294719,118.473791 169.460913,117.689615 C168.336244,116.634156 169.57241,115.667711 169.979618,114.713983 Z" id="Path" fill="#000000"></path>
                        <path d="M228.366687,50 C226.298705,49.9317905 224.226075,49.8976857 222.158093,49.7904994 C221.16825,49.7369062 220.141229,49.3861145 220.015756,48.2216809 C219.848459,46.6577345 221.042776,46.272838 222.204564,46.228989 C226.182526,46.1071864 230.169782,46.0682095 234.152391,46 C239.914858,46.0487211 245.681973,46.0779537 251.449088,46.1656516 C252.843233,46.1656516 254.850803,45.8002436 254.990217,47.7539586 C255.166809,50.2825822 252.912941,49.7856273 251.435147,49.8099878 C243.744111,49.8976857 236.057723,49.9220463 228.366687,50 Z" id="Path" fill="#000000"></path>
                        <path d="M237.669837,40 C231.808899,39.265131 225.829891,40.8498485 220.030349,39.0001783 C219.836716,36.8855554 220.549852,35.9707185 222.74121,36.0007131 C231.808899,36.1206917 240.871865,36.0557033 249.939554,36.0956962 C251.205252,36.0956962 252.905443,36.0007131 252.995176,37.7853949 C253.108522,40.0299947 251.200529,39.7850383 249.802594,39.8300303 C245.759916,39.9200143 241.736129,39.9450098 237.669837,40 Z" id="Path" fill="#000000"></path>
                        <path d="M226.298453,30.0247219 L229.268168,30 L235.198065,30.0296663 L242.128989,30.0296663 C245.065336,30.5636588 248.197123,29.3473424 251,31.092707 C250.933265,34.2126082 248.70717,33.9060569 246.748016,33.92089 C238.344151,33.9653894 229.945053,33.9752781 221.541188,34 C219.30556,27.7305315 224.611006,31.2163164 226.298453,30.0247219 Z" id="Path" fill="#000000"></path>
                        <path d="M222.650379,56 C221.442926,55.6634146 219.803234,55.702439 220.019354,53.7707317 C220.188492,52.2829268 221.518099,52.1853659 222.659775,52.1365854 C224.604854,52.0536585 226.549933,52.0390244 228.495012,52 C233.987276,52.0487805 239.474841,52.0829268 244.938915,52.1609756 C246.183954,52.1609756 247.842439,51.9268293 247.988085,53.7658537 C248.166619,56.0536585 246.30141,55.8097561 244.901329,55.8243902 C237.501573,55.9121951 230.073627,55.9463415 222.650379,56 Z" id="Path" fill="#000000"></path>
                        <path d="M257.025947,30 C258.599488,30.2623011 260.962134,29.4955748 260.999488,31.861329 C261.041511,34.706287 258.487426,33.8790297 256.890538,33.9143395 C255.391706,33.9597378 253.043067,34.4893842 253.001044,32.1387628 C252.940344,29.258495 255.541122,30.3934516 257.025947,30 Z" id="Path" fill="#000000"></path>
                        <path d="M215.9765,77.4756483 C216.115399,78.8169688 215.646017,79.7936585 214.027128,79.9759739 C212.068177,80.1930161 212.001123,78.8994448 212.010702,77.7143947 C212.010702,76.459891 211.732905,74.8581199 214.00797,75.0100494 C215.622069,75.0925255 216.120189,76.1082827 215.9765,77.4756483 Z" id="Path" fill="#000000"></path>
                        <path d="M237.523135,74.2123779 C238.019236,76.1438604 238.464951,78.2051065 237.023159,79.6724343 C235.930188,80.7754256 235.666635,78.7840522 235,78.2400429 C235.499976,76.5481242 234.333365,73.1143775 237.523135,74.2123779 Z" id="Path" fill="#000000"></path>
                        <path d="M222.408297,74 C223.838313,74.7014212 224.074647,75.9857802 223.982517,77.3175325 C223.890387,78.6492848 223.678087,80.3317477 222.232048,79.9431225 C221.114473,79.6445446 220.910185,77.9905177 221.030354,76.62559 C221.134501,75.4454963 221.53106,74.4691939 222.408297,74 Z" id="Path" fill="#000000"></path>
                        <path d="M230.929959,80 C229.415752,80 229.075055,79.1835139 229.070323,78.2627955 C229.070323,77.0033222 228.511959,75.3008618 230.541943,75.0142231 C231.625548,74.8578747 231.961513,76.0218017 231.961513,76.9685782 C232.013563,78.1151331 232.188644,79.3528913 230.929959,80 Z" id="Path" fill="#000000"></path>
                        <path d="M247,77.3833274 C246.816038,78.7605893 247,80.1768303 244.971698,79.9819347 C243.301887,79.8130252 243.018868,78.7432652 243,77.4049824 C243,75.9540933 243.627358,75.0359187 245.183962,75.0012706 C247.179245,74.9492985 246.735849,76.5041319 247,77.3833274 Z" id="Path" fill="#000000"></path>
                        <path d="M57.8569641,251.438777 C61.7373711,255.014724 65.6418501,258.561793 69.4789275,262.181056 C70.3984781,263.047368 71.7850255,264.221703 70.4418077,265.497108 C69.0985899,266.772513 67.9816489,265.328659 67.1198712,264.404592 C63.537957,260.554313 60.0282589,256.64628 56.4896743,252.757498 L54.9683237,253.643062 C54.9683237,256.530771 54.9683237,259.456983 54.9683237,262.363944 C54.9683237,263.374642 54.8816645,264.539351 53.6058483,264.650047 C52.3300321,264.760742 52.0315392,263.644162 52.0267248,262.619025 C51.9882096,258.287461 52.0026528,253.955897 52.0026528,249.658023 C52.0026528,248.13235 52.5563089,247.039834 54.2606068,247.025395 C58.7524427,246.996518 63.2394642,246.986892 67.7409289,247.025395 C68.776025,247.025395 69.8111212,247.347856 69.6666892,248.690641 C69.5559579,249.696526 68.6508506,249.932356 67.7987017,249.941981 C64.823402,249.970858 61.8432879,249.941981 58.8679883,249.941981 L57.8569641,251.438777 Z" id="Path" fill="#000000"></path>
                        <path d="M34.1972514,249.954187 C31.4116845,249.954187 28.6261177,249.982961 25.8405509,249.954187 C24.7051558,249.954187 23.247424,250.002144 23.3388329,248.338016 C23.4061868,247.086324 24.6281799,247.004796 25.6384891,247 C29.7951898,247 33.9518905,247 38.1134023,247 C39.8886599,247 41,247.628244 41,249.56573 C41,253.881912 41,258.198094 41,262.514276 C41,263.545364 40.7594502,264.681959 39.4941582,264.648389 C38.2288662,264.614818 38.0508593,263.468632 38.0508593,262.432749 C38.0508593,259.521724 38.0508593,256.615494 38.0508593,253.704469 L36.8432993,253.037859 C33.4756019,256.577128 30.1079046,260.164355 26.6439873,263.636484 C25.5663241,264.715529 24.2384892,266.993514 22.6845374,265.516421 C20.7601389,263.64128 23.3869429,262.360812 24.522338,261.243401 C27.9429563,257.88637 31.5415814,254.701987 35.0728527,251.455259 L34.1972514,249.954187 Z" id="Path" fill="#000000"></path>
                        <path d="M38.0463989,228.268977 C38.0463989,225.34856 38.0463989,222.423331 38.0463989,219.498103 C38.0463989,218.454066 38.2728577,217.313804 39.515972,217.304182 C40.7590864,217.294559 40.9951817,218.444443 41,219.483669 C41,223.813777 41,228.119829 41,232.440314 C41,234.393674 39.8917973,235.009512 38.1090365,234.999889 C33.9508672,234.971022 29.792698,234.999889 25.6297105,234.975833 C24.6178733,234.975833 23.3988503,234.894042 23.3265762,233.638311 C23.2302108,231.968814 24.6853291,232.036171 25.8224414,232.016926 C28.6170395,231.973625 31.4068193,232.016926 35.6372626,232.016926 C31.2140884,227.580971 27.6244753,224.049527 24.1264095,220.436293 C23.076026,219.348955 20.9174399,218.112468 22.6520181,216.457405 C24.0444988,215.129505 25.3165228,217.015508 26.2898138,218.025866 C29.8119711,221.667968 33.257036,225.391861 36.7261922,229.091698 C37.1791099,228.803024 37.6127544,228.519161 38.0463989,228.268977 Z" id="Path" fill="#000000"></path>
                        <path d="M58.8223928,232.018877 C61.6160034,232.018877 64.4144389,231.990027 67.2080495,232.018877 C68.3418983,232.018877 69.7990148,231.970794 69.702517,233.64407 C69.6301437,234.899026 68.4046219,234.97115 67.3913953,234.975959 C63.2275162,234.975959 59.0636372,234.975959 54.8949333,235 C53.1193742,235 52,234.384542 52,232.437196 C52,228.109759 52,223.806363 52,219.488543 C52,218.449958 52.2364196,217.305591 53.4908906,217.320016 C54.7453617,217.334441 54.9383573,218.469191 54.9383573,219.512584 C54.9383573,222.436008 54.9383573,225.359432 56.1445795,228.980054 C59.6522736,225.320966 63.1358433,221.637836 66.6869615,218.022022 C67.6760637,217.017095 68.9353597,215.137064 70.3345774,216.44972 C72.0811872,218.094146 69.9582361,219.373144 68.8871108,220.421346 C65.3118682,223.86887 61.6497776,227.205805 57.9828621,230.581206 L58.8223928,232.018877 Z" id="Path" fill="#000000"></path>
                        <path d="M46.6155651,244 C44.9984398,243.891962 43.9877364,242.919617 44.0001124,240.906177 C44.0001124,239.162832 44.8870561,238.067716 46.3474194,238.003876 C48.0181739,237.925302 49,239.044972 49,241.04368 C48.9917494,242.796846 48.0924296,243.754458 46.6155651,244 Z" id="Path" fill="#000000"></path>
                        <path d="M16,274.960836 C15.8369196,276.476127 15.8278596,278.168529 13.7667044,277.986497 C12.00906,277.829064 12.1947905,276.244897 12,274.960836 C12.1676104,273.681695 12.0770102,272.181164 13.7667044,272.008972 C15.7463194,271.866299 15.8459796,273.450466 16,274.960836 Z" id="Path" fill="#000000"></path>
                        <path d="M71,275.457287 C70.7172312,276.504699 71.1723122,278.180558 69.2857143,277.984169 C67.8497791,277.835785 68.2430044,276.404322 68,275.457287 C68.2562592,274.418603 67.9027982,272.838756 69.7054492,273.013325 C71.0883652,273.15298 70.7746686,274.523344 71,275.457287 Z" id="Path" fill="#000000"></path>
                        <path d="M56,275.457287 C55.7172312,276.504699 56.1723122,278.180558 54.2857143,277.984169 C52.8497791,277.835785 53.2430044,276.404322 53,275.457287 C53.2562592,274.418603 52.9027982,272.838756 54.7054492,273.013325 C56.0927835,273.15298 55.7790869,274.523344 56,275.457287 Z" id="Path" fill="#000000"></path>
                        <path d="M32,275.457287 C31.7176471,276.504699 32.1720588,278.180558 30.2882353,277.984169 C28.8544118,277.835785 29.2426471,276.404322 29,275.457287 C29.2602941,274.418603 28.9073529,272.838756 30.7073529,273.013325 C32.0926471,273.15298 31.775,274.523344 32,275.457287 Z" id="Path" fill="#000000"></path>
                        <path d="M24,273.668954 C23.7391304,275.019726 24.3022774,276.546312 23.1718427,278 C21.515528,276.795026 22.3436853,275.041166 22,273.668954 C22.6625259,272.777015 23.3291925,272.777015 24,273.668954 Z" id="Path" fill="#000000"></path>
                        <path d="M38,273.679443 C37.6673511,275.038328 38.4435318,276.632404 37.0595483,278 C35.5071869,276.85453 36.3449692,275.073171 36,273.679443 C36.678987,272.773519 37.3456537,272.773519 38,273.679443 Z" id="Path" fill="#000000"></path>
                        <path d="M48,273.679443 C47.6632444,275.038328 48.4394251,276.632404 47.0554415,278 C45.5030801,276.85453 46.3408624,275.073171 46,273.679443 C46.6652977,272.773519 47.3319644,272.773519 48,273.679443 Z" id="Path" fill="#000000"></path>
                        <path d="M62,273.679443 C61.6666667,275.038328 62.4444444,276.632404 61.0576132,278 C59.5020576,276.85453 60.3415638,275.073171 60,273.679443 C60.6666667,272.773519 61.3333333,272.773519 62,273.679443 Z" id="Path" fill="#000000"></path>
                        <path d="M79,273.678907 C78.7366255,275.023911 79.2880658,276.54398 78.1769547,278 C76.5020576,276.791631 77.3539095,275.04526 77,273.678907 C77.6625514,272.773698 78.3333333,272.773698 79,273.678907 Z" id="Path" fill="#000000"></path>
                        <path d="M46,82.0498438 C48.9281998,79.3909078 51.9281998,79.3187325 55,81.8333181 C52.0780437,84.6481527 49.0780437,84.7203279 46,82.0498438 Z" id="Path" fill="#000000"></path>
                        <path d="M40.8925842,81.1664145 C40.425559,80.1406959 39.4915086,80 38.4874045,80 L10.5266063,80 C9.52717237,80 8.59779224,80.1452345 8.12142655,81.1664145 L8.12142655,81.1664145 C8.13520159,81.4171 8.09380541,81.6677579 8,81.9016641 C8.67251628,82.2647504 9.34503255,82.9455371 10.0222191,82.9500756 C19.674073,83.0166415 29.325927,83.0166415 38.9777809,82.9500756 C39.6549674,82.9500756 40.3228135,82.2647504 41,81.9016641 C40.9106806,81.6668221 40.8740568,81.4161365 40.8925842,81.1664145 L40.8925842,81.1664145 Z" id="Path" fill="#000000"></path>
                        <path d="M77.4953464,77 C74.8241986,77 73.5537746,78.8258599 73,81.4948222 C73.5398139,84.1793017 74.8055843,85.9948167 77.5,85.9999891 C80.1944157,86.0051615 81.4462254,84.1637845 82,81.4948222 C81.4369183,78.8362047 80.1711479,77 77.4953464,77 Z M77.6489142,83.5689576 C76.4250259,83.4861991 75.4477766,82.9482687 75.4710445,81.4430981 C75.4710445,80.2534443 76.3179938,79.5913762 77.3324716,79.5344797 C78.5842813,79.4724108 79.524302,80.134479 79.5103413,81.6034427 C79.5149948,82.8293033 78.6773526,83.3879233 77.6489142,83.5689576 Z" id="Shape" fill="#000000" fill-rule="nonzero"></path>
                        <path d="M88.8477827,0 L2.16308203,0 C-0.193889551,1.78458701 0.00409606188,4.41397852 0.00409606188,7.03337234 C0.029237092,24.319372 0.029237092,41.6037054 0.00409606188,58.8863726 C0.00409606188,66.8595274 0.805466398,67.859296 8.32891967,67.9342787 C20.2269122,68.0542509 32.1249047,67.9742694 44.0276112,67.9692706 C57.226652,67.9692706 70.4256929,68.0692475 83.6247337,67.8892891 C90.0215546,67.8043088 90.9737711,66.5446003 90.978485,59.9261319 C90.978485,42.2968784 90.978485,24.6659585 90.978485,7.03337234 C91.0209105,4.40398083 91.2094682,1.77458933 88.8477827,0 Z M87.9049941,7.0983573 C87.9049941,25.404121 87.9049941,43.7098847 87.9049941,62.0156484 C86.2268303,63.8402261 84.0489886,63.620277 81.941856,63.620277 C57.6619061,63.620277 33.3819562,63.620277 9.10200635,63.620277 C6.99487376,63.620277 4.81703202,63.8402261 3.13886826,62.0156484 L3.13886826,7.0983573 L3.13886826,7.0983573 C2.37520947,3.54417981 3.61026258,2.12950719 7.13157811,2.13950488 C32.6245827,2.23948174 58.1191586,2.23948174 83.6153058,2.13950488 C86.9857752,2.14950256 88.4470975,3.50418906 87.9049941,7.0983573 L87.9049941,7.0983573 Z" id="Shape" fill="#000000" fill-rule="nonzero"></path>
                        <path d="M81.9840293,14.0713795 C82.0355007,10.2693455 80.9031297,8.97556333 77.276735,9.00034843 C56.0861117,9.13914498 34.8970482,9.13914498 13.7095445,9.00034843 C10.0784705,9.00034843 8.9507787,10.2792595 9.00225011,14.0713795 C9.18006043,27.2669658 9.18006043,40.4608997 9.00225011,53.6531813 C8.94142026,57.6683672 10.1018666,59.0761608 13.9575431,58.9968484 C24.467069,58.7737826 34.9859534,58.9175361 45.5001586,58.9175361 C56.0143637,58.9175361 66.5285689,58.7737826 77.0380948,58.9968484 C80.8984505,59.0761608 82.0542176,57.6634102 81.998067,53.6531813 C81.8077788,40.457595 81.8030995,27.2636611 81.9840293,14.0713795 Z M75.0260306,55.1303731 C65.1715954,55.0064476 55.3124809,55.0808029 45.4580456,55.0808029 C35.6036103,55.0808029 25.7444958,54.9965336 15.8900605,55.1353301 C12.9749071,55.1749863 11.9080451,54.1885394 11.9454789,51.0210039 C12.0811762,39.7289131 12.0671386,28.4269084 11.9454789,17.1298606 C11.9174036,14.1804339 12.6005695,12.8222106 15.6888541,12.8420386 C35.5630571,12.9510931 55.43726,12.9510931 75.311463,12.8420386 C78.0020139,12.8420386 79.0220837,13.7739583 78.9940084,16.6886859 C78.8910656,28.1542723 78.8629902,39.6248157 78.9940084,51.0953591 C79.0829135,54.3570781 77.8522789,55.1650723 75.0260306,55.1303731 L75.0260306,55.1303731 Z" id="Shape" fill="#000000" fill-rule="nonzero"></path>
                        <path d="M70,17.5433595 C69.9472079,18.5954687 70,20.021759 68.5602157,19.9997483 C66.7556861,19.9689334 67.010048,18.3753621 67.0148473,17.2176018 C67.0148473,16.1698947 67.0868365,14.8360492 68.6562013,15.0165365 C70.1103835,15.1486005 69.9328101,16.5088588 70,17.5433595 Z" id="Path" fill="#000000"></path>
                        <path d="M39,17.0641349 C38.9135787,18.3727822 39.1104273,19.7935992 37.6652703,19.9805488 C36.0904814,20.1815196 36.028066,18.7840713 36.0184636,17.6857424 C36.0088612,16.5874134 35.7736031,15.2367025 37.3003802,15.0263842 C39.0192047,14.7833497 38.7647419,16.2789466 39,17.0641349 Z" id="Path" fill="#000000"></path>
                        <path d="M55,17.4791474 C55,18.60519 54.9273195,20 53.4930919,20 C52.0588643,20 51.9910292,18.6098239 52.0007199,17.4791474 C52.0104106,16.3484708 51.9668023,15 53.4930919,15 C55.0193815,15 54.9660825,16.3716404 55,17.4791474 Z" id="Path" fill="#000000"></path>
                        <path d="M77,17.7617919 C76.8446866,18.814716 76.6239782,19.9424925 75.5940054,19.9973843 C74.2697548,20.0672465 74,18.7248931 74,17.5023035 C74,16.2797139 74.273842,14.8874589 75.5858311,15.0072228 C76.8201635,15.1718981 76.9550409,16.5092614 77,17.7617919 Z" id="Path" fill="#000000"></path>
                        <path d="M23.5076943,15 C25.0884524,15.3530904 25.0192942,16.5987148 24.989655,17.7854909 C24.989655,18.8545701 24.7476014,20.0658664 23.5076943,19.9972099 C21.9071767,19.9138413 22.0010342,18.4671515 22.0010342,17.2754714 C22.0059741,16.2112962 22.2183885,15.2304896 23.5076943,15 Z" id="Path" fill="#000000"></path>
                        <path d="M16,17.6266101 C15.9179123,18.823636 15.8487858,20.1183783 14.3841679,19.991347 C12.91955,19.8643157 12.9886766,18.525601 13.0059582,17.3725475 C13.0232398,16.219494 13.1442112,14.8856651 14.6001882,15.0078106 C16.0561653,15.1299561 15.9438347,16.4442417 16,17.6266101 Z" id="Path" fill="#000000"></path>
                        <path d="M31.1517328,20 C30.3715565,19.9497901 29.9220264,19.3765602 30.0111894,18.6652531 C30.1337885,17.6819755 29.7288398,16.1965988 31.1257269,16.0083117 C31.9244788,15.8995235 31.9579149,16.882801 31.9690603,17.5438983 C31.9802057,18.4895184 32.2216888,19.5481108 31.1517328,20 Z" id="Path" fill="#000000"></path>
                        <path d="M61,18.4126043 C60.8551671,19.1198289 60.8833291,20.1125789 60.0062854,19.9895833 C58.6746274,19.8006973 59.0528022,18.4960656 59.0407328,17.5648134 C59.0407328,16.8751596 59.1211955,15.8911949 59.994216,16.0097978 C61.3379434,16.1942912 60.851144,17.5208864 61,18.4126043 Z" id="Path" fill="#000000"></path>
                        <path d="M46.1977097,21 C44.7229184,19.0470913 44.7308903,17.5800047 45.567934,16.0840573 C45.8953745,15.9345371 46.2626195,15.9865707 46.5524568,16.2235508 C47.3057962,17.6184856 47.0546831,19.0086103 46.1977097,21 Z" id="Path" fill="#000000"></path>
                    </g>
                </g>
            </g>
        </g>
    </g>
</svg>