<?xml version="1.0" encoding="UTF-8"?>
<svg width="454px" height="73px" viewBox="0 0 454 73" version="1.1" xmlns="http://www.w3.org/2000/svg" xmlns:xlink="http://www.w3.org/1999/xlink">
    <!-- Generator: Sketch 54.1 (76490) - https://sketchapp.com -->
    <title>Group 142</title>
    <desc>Created with Sketch.</desc>
    <g id="Page-1" stroke="none" stroke-width="1" fill="none" fill-rule="evenodd">
        <g id="Version-1" transform="translate(-473.000000, -8004.000000)" fill-rule="nonzero">
            <g id="Group-67" transform="translate(477.000000, 8006.000000)">
                <g id="Group-142" transform="translate(0.000000, 0.000000)">
                    <path d="M390,69 L56,69 L-1.97511768e-13,34.5 L56,1.71450552e-15 L390,0 L446,34.5 L390,69 Z" id="Combined-Shape" stroke="#FFFFFF" stroke-width="4" fill="#F3CE18"></path>
                    <path d="M62.5634766,45 L58.5820312,45 L58.5820312,25.9760742 L62.5634766,25.9760742 L62.5634766,45 Z M66.5572982,45 L66.5572982,30.8671875 L70.2750717,30.8671875 L70.2750717,33.3852539 L70.3541732,33.3852539 C71.1056381,31.6318359 72.5953842,30.6035156 74.7706771,30.6035156 C77.9083724,30.6035156 79.674974,32.5810547 79.674974,35.8901367 L79.674974,45 L75.8253646,45 L75.8253646,36.6943359 C75.8253646,34.8486328 74.9552474,33.7939453 73.2281967,33.7939453 C71.5011459,33.7939453 70.4069076,35.0595703 70.4069076,36.8920898 L70.4069076,45 L66.5572982,45 Z M84.3016082,45 L84.3016082,33.7675781 L82.3768035,33.7675781 L82.3768035,30.9331055 L84.3016082,30.9331055 L84.3016082,29.8652344 C84.3016082,27.0966797 85.6067839,25.8046875 88.9554167,25.8046875 C89.6673308,25.8046875 90.47153,25.8837891 90.9197722,25.9760742 L90.9197722,28.5205078 C90.6429167,28.4677734 90.2605925,28.4414062 89.8782683,28.4414062 C88.6126433,28.4414062 88.0589324,28.9951172 88.0589324,29.9970703 L88.0589324,30.9331055 L90.8670378,30.9331055 L90.8670378,33.7675781 L88.1512175,33.7675781 L88.1512175,45 L84.3016082,45 Z M100.134297,45.3032227 C95.8628126,45.3032227 93.1338087,42.5610352 93.1338087,37.9204102 C93.1338087,33.3457031 95.9023634,30.5639648 100.134297,30.5639648 C104.366231,30.5639648 107.134785,33.3325195 107.134785,37.9204102 C107.134785,42.5742188 104.405781,45.3032227 100.134297,45.3032227 Z M100.134297,42.3632812 C102.019551,42.3632812 103.219258,40.7680664 103.219258,37.9335938 C103.219258,35.1254883 102.006367,33.5039062 100.134297,33.5039062 C98.2622267,33.5039062 97.0361525,35.1254883 97.0361525,37.9335938 C97.0361525,40.7680664 98.2358595,42.3632812 100.134297,42.3632812 Z M110.271673,45 L110.271673,30.8671875 L113.989447,30.8671875 L113.989447,33.4116211 L114.068548,33.4116211 C114.569525,31.6186523 115.769232,30.6430664 117.430365,30.6430664 C117.878607,30.6430664 118.260931,30.7089844 118.524603,30.7880859 L118.524603,34.1762695 C118.208197,34.0444336 117.680853,33.9521484 117.127142,33.9521484 C115.228705,33.9521484 114.121283,35.1123047 114.121283,37.1030273 L114.121283,45 L110.271673,45 Z M121.2528,45 L121.2528,30.8671875 L124.970573,30.8671875 L124.970573,33.4248047 L125.049675,33.4248047 C125.642936,31.7241211 127.15905,30.6035156 129.083854,30.6035156 C131.127311,30.6035156 132.55114,31.6582031 133.025749,33.5039062 L133.10485,33.5039062 C133.737663,31.7241211 135.425163,30.6035156 137.494987,30.6035156 C140.263542,30.6035156 142.122429,32.5019531 142.122429,35.3496094 L142.122429,45 L138.272819,45 L138.272819,36.3120117 C138.272819,34.6772461 137.455436,33.7807617 135.96569,33.7807617 C134.502311,33.7807617 133.539909,34.8486328 133.539909,36.4174805 L133.539909,45 L129.835319,45 L129.835319,36.1933594 C129.835319,34.6772461 128.978386,33.7807617 127.554557,33.7807617 C126.091179,33.7807617 125.102409,34.8881836 125.102409,36.4702148 L125.102409,45 L121.2528,45 Z M151.17875,42.4423828 C152.853067,42.4423828 154.237344,41.3481445 154.237344,39.8188477 L154.237344,38.7905273 L151.257852,38.9750977 C149.82084,39.0805664 149.003457,39.7265625 149.003457,40.7285156 C149.003457,41.7832031 149.873574,42.4423828 151.17875,42.4423828 Z M149.913125,45.2241211 C147.223672,45.2241211 145.180215,43.4838867 145.180215,40.9394531 C145.180215,38.3686523 147.157754,36.8789062 150.677774,36.6679688 L154.237344,36.4570312 L154.237344,35.5209961 C154.237344,34.2026367 153.314492,33.4379883 151.864297,33.4379883 C150.427285,33.4379883 149.517617,34.1499023 149.333047,35.1914062 L145.813028,35.1914062 C145.958047,32.4492188 148.291543,30.5639648 152.035684,30.5639648 C155.661172,30.5639648 158.021035,32.4360352 158.021035,35.2836914 L158.021035,45 L154.303262,45 L154.303262,42.8378906 L154.22416,42.8378906 C153.433145,44.3408203 151.679727,45.2241211 149.913125,45.2241211 Z M162.68722,27.6108398 L166.53683,27.6108398 L166.53683,30.8671875 L169.147181,30.8671875 L169.147181,33.7675781 L166.53683,33.7675781 L166.53683,40.5307617 C166.53683,41.6118164 167.064173,42.1259766 168.197963,42.1259766 C168.540736,42.1259766 168.896693,42.0996094 169.133998,42.0600586 L169.133998,44.8945312 C168.73849,44.9868164 168.07931,45.0527344 167.301478,45.0527344 C163.979213,45.0527344 162.68722,43.9453125 162.68722,41.1899414 L162.68722,33.7675781 L160.696498,33.7675781 L160.696498,30.8671875 L162.68722,30.8671875 L162.68722,27.6108398 Z M172.481823,45 L172.481823,30.8671875 L176.331433,30.8671875 L176.331433,45 L172.481823,45 Z M174.406628,29.3115234 C173.246472,29.3115234 172.349987,28.4282227 172.349987,27.3208008 C172.349987,26.2001953 173.246472,25.3300781 174.406628,25.3300781 C175.566784,25.3300781 176.463269,26.2001953 176.463269,27.3208008 C176.463269,28.4282227 175.566784,29.3115234 174.406628,29.3115234 Z M186.534727,45.3032227 C182.263243,45.3032227 179.534239,42.5610352 179.534239,37.9204102 C179.534239,33.3457031 182.302793,30.5639648 186.534727,30.5639648 C190.766661,30.5639648 193.535215,33.3325195 193.535215,37.9204102 C193.535215,42.5742188 190.806211,45.3032227 186.534727,45.3032227 Z M186.534727,42.3632812 C188.419981,42.3632812 189.619688,40.7680664 189.619688,37.9335938 C189.619688,35.1254883 188.406797,33.5039062 186.534727,33.5039062 C184.662657,33.5039062 183.436582,35.1254883 183.436582,37.9335938 C183.436582,40.7680664 184.636289,42.3632812 186.534727,42.3632812 Z M196.672103,45 L196.672103,30.8671875 L200.389877,30.8671875 L200.389877,33.3852539 L200.468978,33.3852539 C201.220443,31.6318359 202.710189,30.6035156 204.885482,30.6035156 C208.023177,30.6035156 209.789779,32.5810547 209.789779,35.8901367 L209.789779,45 L205.94017,45 L205.94017,36.6943359 C205.94017,34.8486328 205.070052,33.7939453 203.343002,33.7939453 C201.615951,33.7939453 200.521713,35.0595703 200.521713,36.8920898 L200.521713,45 L196.672103,45 Z M232.674883,45 L231.224688,40.3857422 L224.540606,40.3857422 L223.090411,45 L219.003497,45 L225.608477,25.9760742 L230.288653,25.9760742 L236.906817,45 L232.674883,45 Z M227.836504,29.6147461 L225.39754,37.40625 L230.367754,37.40625 L227.92879,29.6147461 L227.836504,29.6147461 Z M239.674564,45 L239.674564,30.8671875 L243.392338,30.8671875 L243.392338,33.4116211 L243.471439,33.4116211 C243.972416,31.6186523 245.172123,30.6430664 246.833256,30.6430664 C247.281498,30.6430664 247.663822,30.7089844 247.927494,30.7880859 L247.927494,34.1762695 C247.611088,34.0444336 247.083744,33.9521484 246.530033,33.9521484 C244.631596,33.9521484 243.524174,35.1123047 243.524174,37.1030273 L243.524174,45 L239.674564,45 Z M263.035085,36.1274414 L259.462331,36.1274414 C259.23821,34.6376953 258.249441,33.5830078 256.667409,33.5830078 C254.768972,33.5830078 253.582448,35.1914062 253.582448,37.9204102 C253.582448,40.7021484 254.768972,42.2841797 256.680593,42.2841797 C258.223073,42.2841797 259.225027,41.3613281 259.462331,39.8188477 L263.048269,39.8188477 C262.850515,43.1542969 260.358816,45.3032227 256.641042,45.3032227 C252.382741,45.3032227 249.680105,42.534668 249.680105,37.9204102 C249.680105,33.3852539 252.382741,30.5639648 256.614675,30.5639648 C260.437917,30.5639648 262.863698,32.9238281 263.035085,36.1274414 Z M266.15879,45 L266.15879,25.9760742 L269.942481,25.9760742 L269.942481,33.3852539 L270.021583,33.3852539 C270.773047,31.6054688 272.315528,30.6035156 274.464454,30.6035156 C277.602149,30.6035156 279.395118,32.6337891 279.395118,35.9033203 L279.395118,45 L275.545508,45 L275.545508,36.7207031 C275.545508,34.9013672 274.649024,33.7939453 272.895606,33.7939453 C271.07627,33.7939453 270.008399,35.0727539 270.008399,36.9316406 L270.008399,45 L266.15879,45 Z M283.072533,45 L283.072533,30.8671875 L286.922143,30.8671875 L286.922143,45 L283.072533,45 Z M284.997338,29.3115234 C283.837182,29.3115234 282.940697,28.4282227 282.940697,27.3208008 C282.940697,26.2001953 283.837182,25.3300781 284.997338,25.3300781 C286.157494,25.3300781 287.053979,26.2001953 287.053979,27.3208008 C287.053979,28.4282227 286.157494,29.3115234 284.997338,29.3115234 Z M291.667429,27.6108398 L295.517038,27.6108398 L295.517038,30.8671875 L298.12739,30.8671875 L298.12739,33.7675781 L295.517038,33.7675781 L295.517038,40.5307617 C295.517038,41.6118164 296.044382,42.1259766 297.178171,42.1259766 C297.520945,42.1259766 297.876902,42.0996094 298.114206,42.0600586 L298.114206,44.8945312 C297.718699,44.9868164 297.059519,45.0527344 296.281687,45.0527344 C292.959421,45.0527344 291.667429,43.9453125 291.667429,41.1899414 L291.667429,33.7675781 L289.676706,33.7675781 L289.676706,30.8671875 L291.667429,30.8671875 L291.667429,27.6108398 Z M307.539669,33.4116211 C305.852169,33.4116211 304.639278,34.6904297 304.507442,36.4570312 L310.505977,36.4570312 C310.426876,34.6508789 309.253536,33.4116211 307.539669,33.4116211 Z M310.558712,40.6757812 L314.091915,40.6757812 C313.67004,43.4443359 311.13879,45.3032227 307.645137,45.3032227 C303.294552,45.3032227 300.6842,42.5214844 300.6842,37.9995117 C300.6842,33.4907227 303.320919,30.5639648 307.500118,30.5639648 C311.613399,30.5639648 314.210567,33.3457031 314.210567,37.6435547 L314.210567,38.8168945 L304.467891,38.8168945 L304.467891,39.0541992 C304.467891,41.0712891 305.7467,42.4555664 307.711055,42.4555664 C309.1217,42.4555664 310.202755,41.7568359 310.558712,40.6757812 Z M330.188276,36.1274414 L326.615522,36.1274414 C326.391401,34.6376953 325.402631,33.5830078 323.8206,33.5830078 C321.922162,33.5830078 320.735639,35.1914062 320.735639,37.9204102 C320.735639,40.7021484 321.922162,42.2841797 323.833783,42.2841797 C325.376264,42.2841797 326.378217,41.3613281 326.615522,39.8188477 L330.201459,39.8188477 C330.003705,43.1542969 327.512006,45.3032227 323.794233,45.3032227 C319.535932,45.3032227 316.833295,42.534668 316.833295,37.9204102 C316.833295,33.3852539 319.535932,30.5639648 323.767865,30.5639648 C327.591108,30.5639648 330.016889,32.9238281 330.188276,36.1274414 Z M334.248015,27.6108398 L338.097625,27.6108398 L338.097625,30.8671875 L340.707976,30.8671875 L340.707976,33.7675781 L338.097625,33.7675781 L338.097625,40.5307617 C338.097625,41.6118164 338.624968,42.1259766 339.758757,42.1259766 C340.101531,42.1259766 340.457488,42.0996094 340.694792,42.0600586 L340.694792,44.8945312 C340.299285,44.9868164 339.640105,45.0527344 338.862273,45.0527344 C335.540007,45.0527344 334.248015,43.9453125 334.248015,41.1899414 L334.248015,33.7675781 L332.257292,33.7675781 L332.257292,30.8671875 L334.248015,30.8671875 L334.248015,27.6108398 Z M357.028458,30.8671875 L357.028458,45 L353.310684,45 L353.310684,42.4555664 L353.231583,42.4555664 C352.532852,44.2353516 351.135391,45.2636719 348.999649,45.2636719 C345.941056,45.2636719 343.910782,43.2729492 343.910782,39.9770508 L343.910782,30.8671875 L347.760391,30.8671875 L347.760391,39.1728516 C347.760391,41.0581055 348.696427,42.0600586 350.39711,42.0600586 C352.110977,42.0600586 353.178849,40.8339844 353.178849,38.9619141 L353.178849,30.8671875 L357.028458,30.8671875 Z M360.69269,45 L360.69269,30.8671875 L364.410463,30.8671875 L364.410463,33.4116211 L364.489565,33.4116211 C364.990541,31.6186523 366.190248,30.6430664 367.851381,30.6430664 C368.299623,30.6430664 368.681948,30.7089844 368.945619,30.7880859 L368.945619,34.1762695 C368.629213,34.0444336 368.101869,33.9521484 367.548158,33.9521484 C365.649721,33.9521484 364.542299,35.1123047 364.542299,37.1030273 L364.542299,45 L360.69269,45 Z M377.553699,33.4116211 C375.866199,33.4116211 374.653308,34.6904297 374.521472,36.4570312 L380.520007,36.4570312 C380.440906,34.6508789 379.267566,33.4116211 377.553699,33.4116211 Z M380.572742,40.6757812 L384.105945,40.6757812 C383.68407,43.4443359 381.15282,45.3032227 377.659168,45.3032227 C373.308582,45.3032227 370.69823,42.5214844 370.69823,37.9995117 C370.69823,33.4907227 373.334949,30.5639648 377.514148,30.5639648 C381.627429,30.5639648 384.224597,33.3457031 384.224597,37.6435547 L384.224597,38.8168945 L374.481922,38.8168945 L374.481922,39.0541992 C374.481922,41.0712891 375.76073,42.4555664 377.725086,42.4555664 C379.13573,42.4555664 380.216785,41.7568359 380.572742,40.6757812 Z" id="InformationArchitecture" fill="#000000"></path>
                </g>
            </g>
        </g>
    </g>
</svg>