<?xml version="1.0" encoding="UTF-8"?>
<svg width="293px" height="228px" viewBox="0 0 293 228" version="1.1" xmlns="http://www.w3.org/2000/svg" xmlns:xlink="http://www.w3.org/1999/xlink">
    <!-- Generator: Sketch 53.2 (72643) - https://sketchapp.com -->
    <title>Combined Shape</title>
    <desc>Created with Sketch.</desc>
    <g id="Page-1" stroke="none" stroke-width="1" fill="none" fill-rule="evenodd">
        <g id="Prefference-Test" transform="translate(-211.000000, -947.000000)" fill="#FFFFFF" fill-rule="nonzero">
            <g id="Group-3" transform="translate(24.000000, 727.000000)">
                <path d="M320.738916,309.871751 L267,220 L305.059574,220 L346.438298,289.308571 L387.817021,220 L423,220 L367.670659,312.601092 L367.670659,364.874286 L436.353293,292 L476.233533,292 L411.982036,361.531429 L480,448 L438.125749,448 L388.497006,386.714286 L367.670659,408.554286 L367.670659,448 L332,448 L327.479087,448 L327.309447,376 L326.965957,376 L326.965957,354.896631 L281.828897,431.508571 L265.730038,431.508571 L220.520913,356.405714 L220.520913,448 L187,448 L187,292 L216.551331,292 L274.330798,388.942857 L320.738916,309.871751 Z" id="MYK-logo"></path>
            </g>
        </g>
    </g>
</svg>