<?xml version="1.0" encoding="UTF-8"?>
<svg width="220px" height="73px" viewBox="0 0 220 73" version="1.1" xmlns="http://www.w3.org/2000/svg" xmlns:xlink="http://www.w3.org/1999/xlink">
    <!-- Generator: Sketch 53.2 (72643) - https://sketchapp.com -->
    <title>Group 77</title>
    <desc>Created with Sketch.</desc>
    <g id="Page-1" stroke="none" stroke-width="1" fill="none" fill-rule="evenodd">
        <g id="Version-1" transform="translate(-590.000000, -2560.000000)">
            <g id="Group-77" transform="translate(594.000000, 2562.000000)">
                <path d="M156,69 L56,69 L1.44019795e-15,34.5 L56,1.71450552e-15 L156,0 L212,34.5 L156,69 Z" id="Combined-Shape" stroke="#FFFFFF" stroke-width="4" fill="#F3CE18" fill-rule="nonzero"></path>
                <path d="M54.1757812,25.3164062 C59.8051758,25.3164062 63.3515625,29.1000977 63.3515625,35.1645508 C63.3515625,41.2158203 59.8051758,44.9995117 54.1757812,44.9995117 C48.5332031,44.9995117 45,41.2158203 45,35.1645508 C45,29.1000977 48.5332031,25.3164062 54.1757812,25.3164062 Z M54.1757812,28.6386719 C51.0644531,28.6386719 49.0605469,31.1699219 49.0605469,35.1645508 C49.0605469,39.1459961 51.0512695,41.6640625 54.1757812,41.6640625 C57.2871094,41.6640625 59.277832,39.1459961 59.277832,35.1645508 C59.277832,31.1699219 57.2871094,28.6386719 54.1757812,28.6386719 Z M79.6582317,30.5371094 L74.8066692,44.6699219 L70.4560833,44.6699219 L65.56497,30.5371094 L69.6914348,30.5371094 L72.6313763,41.2685547 L72.7104778,41.2685547 L75.6372356,30.5371094 L79.6582317,30.5371094 Z M88.0942955,33.081543 C86.4067955,33.081543 85.1939048,34.3603516 85.0620689,36.1269531 L91.0606041,36.1269531 C90.9815025,34.3208008 89.8081627,33.081543 88.0942955,33.081543 Z M91.1133384,40.3457031 L94.6465416,40.3457031 C94.2246666,43.1142578 91.6934166,44.9731445 88.1997642,44.9731445 C83.8491783,44.9731445 81.2388267,42.1914062 81.2388267,37.6694336 C81.2388267,33.1606445 83.8755455,30.2338867 88.0547447,30.2338867 C92.1680259,30.2338867 94.7651939,33.015625 94.7651939,37.3134766 L94.7651939,38.4868164 L85.0225181,38.4868164 L85.0225181,38.7241211 C85.0225181,40.7412109 86.3013267,42.1254883 88.2656822,42.1254883 C89.6763267,42.1254883 90.7573814,41.4267578 91.1133384,40.3457031 Z M97.901453,44.6699219 L97.901453,30.5371094 L101.619226,30.5371094 L101.619226,33.081543 L101.698328,33.081543 C102.199305,31.2885742 103.399012,30.3129883 105.060144,30.3129883 C105.508387,30.3129883 105.890711,30.3789062 106.154383,30.4580078 L106.154383,33.8461914 C105.837976,33.7143555 105.310633,33.6220703 104.756922,33.6220703 C102.858484,33.6220703 101.751062,34.7822266 101.751062,36.7729492 L101.751062,44.6699219 L97.901453,44.6699219 Z M121.801872,30.5371094 L116.95031,44.6699219 L112.599724,44.6699219 L107.70861,30.5371094 L111.835075,30.5371094 L114.775017,41.2685547 L114.854118,41.2685547 L117.780876,30.5371094 L121.801872,30.5371094 Z M124.358053,44.6699219 L124.358053,30.5371094 L128.207662,30.5371094 L128.207662,44.6699219 L124.358053,44.6699219 Z M126.282858,28.9814453 C125.122702,28.9814453 124.226217,28.0981445 124.226217,26.9907227 C124.226217,25.8701172 125.122702,25 126.282858,25 C127.443014,25 128.339498,25.8701172 128.339498,26.9907227 C128.339498,28.0981445 127.443014,28.9814453 126.282858,28.9814453 Z M138.265308,33.081543 C136.577808,33.081543 135.364918,34.3603516 135.233082,36.1269531 L141.231617,36.1269531 C141.152515,34.3208008 139.979175,33.081543 138.265308,33.081543 Z M141.284351,40.3457031 L144.817554,40.3457031 C144.395679,43.1142578 141.864429,44.9731445 138.370777,44.9731445 C134.020191,44.9731445 131.40984,42.1914062 131.40984,37.6694336 C131.40984,33.1606445 134.046558,30.2338867 138.225757,30.2338867 C142.339039,30.2338867 144.936207,33.015625 144.936207,37.3134766 L144.936207,38.4868164 L135.193531,38.4868164 L135.193531,38.7241211 C135.193531,40.7412109 136.47234,42.1254883 138.436695,42.1254883 C139.84734,42.1254883 140.928394,41.4267578 141.284351,40.3457031 Z M167.834673,30.5371094 L164.090532,44.6699219 L159.990435,44.6699219 L157.432817,34.6767578 L157.353716,34.6767578 L154.809282,44.6699219 L150.761919,44.6699219 L147.004595,30.5371094 L150.880571,30.5371094 L153.016313,41.0180664 L153.095415,41.0180664 L155.600298,30.5371094 L159.291704,30.5371094 L161.80977,41.0180664 L161.888872,41.0180664 L164.037798,30.5371094 L167.834673,30.5371094 Z" id="Overview" fill="#000000"></path>
            </g>
        </g>
    </g>
</svg>