<?xml version="1.0" encoding="UTF-8"?>
<svg width="69px" height="77px" viewBox="0 0 69 77" version="1.1" xmlns="http://www.w3.org/2000/svg" xmlns:xlink="http://www.w3.org/1999/xlink">
    <!-- Generator: Sketch 53.2 (72643) - https://sketchapp.com -->
    <title>Group 84</title>
    <desc>Created with Sketch.</desc>
    <g id="Page-1" stroke="none" stroke-width="1" fill="none" fill-rule="evenodd">
        <g id="Version-1" transform="translate(-666.000000, -2741.000000)">
            <g id="Group-84" transform="translate(663.000000, 2744.000000)">
                <polygon id="Polygon" stroke="#FFFFFF" stroke-width="4" fill="#F3CE18" fill-rule="nonzero" points="37.5 0 69.9759526 17.75 69.9759526 53.25 37.5 71 5.02404736 53.25 5.02404736 17.75"></polygon>
                <g id="Group-57" transform="translate(3.000000, 18.000000)">
                    <path d="M63.15,1.20082683 L38.049559,1.20082683 L26.6109317,34.2008268 L0.2,34.2008268" id="Path-21" stroke="#000000" stroke-width="4" stroke-dasharray="4,5" fill-rule="nonzero"></path>
                    <g id="Group-56" transform="translate(12.000000, 0.000000)" fill="#000000">
                        <path d="M0,0 L8.765625,0 C13.25,0 16.359375,3.046875 16.359375,7.546875 C16.359375,12.046875 13.15625,15.09375 8.59375,15.09375 L4.03125,15.09375 L4.03125,22.546875 L0,22.546875 L0,0 Z M4.03125,3.296875 L4.03125,11.84375 L7.6875,11.84375 C10.578125,11.84375 12.265625,10.28125 12.265625,7.546875 C12.265625,4.84375 10.59375,3.296875 7.703125,3.296875 L4.03125,3.296875 Z" id="P"></path>
                        <path d="M27,31.578125 L30.90625,31.578125 C31.15625,33.65625 33.234375,35.015625 35.984375,35.015625 C38.703125,35.015625 40.59375,33.671875 40.59375,31.796875 C40.59375,30.171875 39.4375,29.234375 36.59375,28.5625 L33.671875,27.875 C29.515625,26.921875 27.546875,24.921875 27.546875,21.703125 C27.546875,17.703125 31.03125,15 35.9375,15 C40.90625,15 44.1875,17.6875 44.28125,21.65625 L40.4375,21.65625 C40.25,19.546875 38.484375,18.28125 35.90625,18.28125 C33.359375,18.28125 31.640625,19.53125 31.640625,21.40625 C31.640625,22.90625 32.78125,23.78125 35.546875,24.4375 L38.140625,25.03125 C42.71875,26.078125 44.65625,27.96875 44.65625,31.328125 C44.65625,35.609375 41.21875,38.296875 35.765625,38.296875 C30.578125,38.296875 27.171875,35.734375 27,31.578125 Z" id="S"></path>
                    </g>
                </g>
            </g>
        </g>
    </g>
</svg>