<?xml version="1.0" encoding="UTF-8"?>
<svg width="70px" height="77px" viewBox="0 0 70 77" version="1.1" xmlns="http://www.w3.org/2000/svg" xmlns:xlink="http://www.w3.org/1999/xlink">
    <!-- Generator: Sketch 55.2 (78181) - https://sketchapp.com -->
    <title>Group 121</title>
    <desc>Created with Sketch.</desc>
    <g id="Page-1" stroke="none" stroke-width="1" fill="none" fill-rule="evenodd">
        <g id="4" transform="translate(-665.000000, -2741.000000)">
            <g id="Group-86" transform="translate(596.000000, 2632.000000)">
                <g id="Group-85">
                    <g id="Group-84">
                        <g id="Group-121" transform="translate(67.000000, 112.000000)">
                            <polygon id="Polygon" stroke="#FFFFFF" stroke-width="4" fill="#50E298" fill-rule="nonzero" points="37.5 0 69.9759526 17.75 69.9759526 53.25 37.5 71 5.02404736 53.25 5.02404736 17.75"></polygon>
                            <g id="Group-57" transform="translate(2.000000, 18.000000)">
                                <path d="M66,1 L39.6834137,1 L27.6905718,35 L0,35" id="Path-21" stroke="#000000" stroke-width="4" stroke-dasharray="4,5" fill-rule="nonzero"></path>
                                <g id="Group-56" transform="translate(13.000000, 0.000000)" fill="#000000">
                                    <path d="M0,0 L9.15520833,0 C13.8388889,0 17.0864583,3.125 17.0864583,7.74038462 C17.0864583,12.3557692 13.7409722,15.4807692 8.97569444,15.4807692 L4.21041667,15.4807692 L4.21041667,23.125 L0,23.125 L0,0 Z M4.21041667,3.38141026 L4.21041667,12.1474359 L8.02916667,12.1474359 C11.0482639,12.1474359 12.8107639,10.5448718 12.8107639,7.74038462 C12.8107639,4.96794872 11.0645833,3.38141026 8.04548611,3.38141026 L4.21041667,3.38141026 Z" id="P"></path>
                                    <path d="M28.2,32.3878205 L32.2798611,32.3878205 C32.5409722,34.5192308 34.7114583,35.9134615 37.5836806,35.9134615 C40.4232639,35.9134615 42.3979167,34.5352564 42.3979167,32.6121795 C42.3979167,30.9455128 41.1902778,29.9839744 38.2201389,29.2948718 L35.1684028,28.5897436 C30.8274306,27.6121795 28.7711806,25.5608974 28.7711806,22.2596154 C28.7711806,18.1570513 32.4104167,15.3846154 37.5347222,15.3846154 C42.7243056,15.3846154 46.1513889,18.1410256 46.2493056,22.2115385 L42.2347222,22.2115385 C42.0388889,20.0480769 40.1947917,18.75 37.5020833,18.75 C34.8420139,18.75 33.046875,20.0320513 33.046875,21.9551282 C33.046875,23.4935897 34.2381944,24.3910256 37.1267361,25.0641026 L39.8357639,25.6730769 C44.6173611,26.7467949 46.6409722,28.6858974 46.6409722,32.1314103 C46.6409722,36.5224359 43.0506944,39.2788462 37.3552083,39.2788462 C31.9371528,39.2788462 28.3795139,36.650641 28.2,32.3878205 Z" id="S"></path>
                                </g>
                            </g>
                        </g>
                    </g>
                </g>
            </g>
        </g>
    </g>
</svg>