<?xml version="1.0" encoding="UTF-8"?>
<svg width="69px" height="77px" viewBox="0 0 69 77" version="1.1" xmlns="http://www.w3.org/2000/svg" xmlns:xlink="http://www.w3.org/1999/xlink">
    <!-- Generator: Sketch 54.1 (76490) - https://sketchapp.com -->
    <title>Group 137</title>
    <desc>Created with Sketch.</desc>
    <g id="Page-1" stroke="none" stroke-width="1" fill="none" fill-rule="evenodd">
        <g id="Version-1" transform="translate(-802.000000, -8206.000000)" fill-rule="nonzero">
            <g id="Group-100" transform="translate(526.000000, 8209.000000)">
                <g id="Group-96" transform="translate(273.000000, 0.000000)">
                    <g id="Group-137">
                        <polygon id="Polygon" stroke="#FFFFFF" stroke-width="4" fill="#F3CE18" points="37.5 0 69.9759526 17.75 69.9759526 53.25 37.5 71 5.02404736 53.25 5.02404736 17.75"></polygon>
                        <path d="M13.765625,40.9375 L17.234375,40.9375 C17.53125,43.078125 19.625,44.4375 22.640625,44.4375 C25.453125,44.4375 27.515625,42.984375 27.515625,40.984375 C27.515625,39.265625 26.203125,38.234375 23.21875,37.53125 L20.3125,36.828125 C16.234375,35.875 14.375,33.90625 14.375,30.59375 C14.375,26.578125 17.65625,23.90625 22.578125,23.90625 C27.15625,23.90625 30.5,26.578125 30.703125,30.375 L27.296875,30.375 C26.96875,28.296875 25.15625,27 22.53125,27 C19.765625,27 17.921875,28.328125 17.921875,30.359375 C17.921875,31.96875 19.109375,32.890625 22.046875,33.578125 L24.53125,34.1875 C29.15625,35.265625 31.0625,37.140625 31.0625,40.53125 C31.0625,44.84375 27.71875,47.546875 22.375,47.546875 C17.375,47.546875 14.015625,44.96875 13.765625,40.9375 Z M38.475,47.265625 C37.1625,47.265625 36.178125,46.25 36.178125,44.9375 C36.178125,43.625 37.1625,42.609375 38.475,42.609375 C39.803125,42.609375 40.771875,43.625 40.771875,44.9375 C40.771875,46.25 39.803125,47.265625 38.475,47.265625 Z M50.434375,47 L46.934375,47 L46.934375,24.453125 L61.0125,24.453125 L61.0125,27.640625 L50.434375,27.640625 L50.434375,34.5625 L60.121875,34.5625 L60.121875,37.65625 L50.434375,37.65625 L50.434375,47 Z" id="S.F" fill="#000000"></path>
                    </g>
                </g>
            </g>
        </g>
    </g>
</svg>