<?xml version="1.0" encoding="UTF-8"?>
<svg width="769px" height="108px" viewBox="0 0 769 108" version="1.1" xmlns="http://www.w3.org/2000/svg" xmlns:xlink="http://www.w3.org/1999/xlink">
    <!-- Generator: Sketch 54.1 (76490) - https://sketchapp.com -->
    <title>Group 145</title>
    <desc>Created with Sketch.</desc>
    <g id="Page-1" stroke="none" stroke-width="1" fill="none" fill-rule="evenodd">
        <g id="Version-1" transform="translate(-317.000000, -1922.000000)" fill-rule="nonzero">
            <g id="Group-121" transform="translate(318.000000, 1925.000000)">
                <g id="Group-85" transform="translate(-0.000000, 0.000000)">
                    <g id="Group-145">
                        <polygon id="Polygon" stroke="#FFFFFF" stroke-width="4" fill="#F3CE18" points="382.5 0 414.975953 17.75 414.975953 53.25 382.5 71 350.024047 53.25 350.024047 17.75"></polygon>
                        <path d="M354.901318,38.5943481 L356.993115,38.5943481 C357.125928,39.6651489 358.188428,40.3541137 359.707471,40.3541137 C361.118603,40.3541137 362.1396,39.6319458 362.1396,38.6275512 C362.1396,37.76427 361.483838,37.2579223 359.948193,36.9009887 L358.395947,36.5440552 C356.221143,36.0543091 355.200146,34.9752075 355.200146,33.1905395 C355.200146,31.0157348 356.976514,29.5713989 359.657666,29.5713989 C362.172803,29.5713989 363.990674,31.0157348 364.090283,33.0743286 L362.03999,33.0743286 C361.890576,32.0201294 360.960889,31.3560669 359.649365,31.3560669 C358.271435,31.3560669 357.35835,32.0201294 357.35835,33.0411255 C357.35835,33.8463012 357.964307,34.3194458 359.450146,34.6597778 L360.828076,34.9752075 C363.260205,35.5230591 364.281201,36.5357544 364.281201,38.3619262 C364.281201,40.6944458 362.479932,42.1470825 359.574658,42.1470825 C356.8271,42.1470825 355.009228,40.7691528 354.901318,38.5943481 Z M372.41001,41.8482544 L370.268408,41.8482544 L370.268408,31.7213012 L366.582861,31.7213012 L366.582861,29.870227 L376.103857,29.870227 L376.103857,31.7213012 L372.41001,31.7213012 L372.41001,41.8482544 Z M385.344971,41.8482544 L384.332275,38.7852661 L379.924561,38.7852661 L378.895264,41.8482544 L376.72876,41.8482544 L380.97876,29.870227 L383.385986,29.870227 L387.644287,41.8482544 L385.344971,41.8482544 Z M382.066162,32.1529419 L380.422607,37.0919067 L383.834229,37.0919067 L382.207275,32.1529419 L382.066162,32.1529419 Z M392.444482,31.6465942 L392.444482,35.6558716 L394.918115,35.6558716 C396.279443,35.6558716 397.059717,34.9254028 397.059717,33.6553833 C397.059717,32.4102661 396.229639,31.6465942 394.868311,31.6465942 L392.444482,31.6465942 Z M392.444482,37.3575317 L392.444482,41.8482544 L390.302881,41.8482544 L390.302881,29.870227 L395.167139,29.870227 C397.682275,29.870227 399.259424,31.314563 399.259424,33.6138794 C399.259424,35.1910278 398.429346,36.510852 397.001611,37.0255005 L399.616357,41.8482544 L397.167627,41.8482544 L394.818506,37.3575317 L392.444482,37.3575317 Z M407.57085,41.8482544 L405.429248,41.8482544 L405.429248,31.7213012 L401.743701,31.7213012 L401.743701,29.870227 L411.264697,29.870227 L411.264697,31.7213012 L407.57085,31.7213012 L407.57085,41.8482544 Z" id="START" fill="#000000"></path>
                        <path d="M259.775,53.5 L351.949121,53.5" id="Path-15" stroke="#FFFFFF" stroke-width="4"></path>
                        <polyline id="Path-16" stroke="#FFFFFF" stroke-width="4" points="261.053482 53.4929974 92.707463 53.4929974 9.09494702e-13 102.647428"></polyline>
                        <path d="M415.775,53.5 L507.949121,53.5" id="Path-15" stroke="#FFFFFF" stroke-width="4" transform="translate(461.500000, 53.500000) scale(-1, 1) translate(-461.500000, -53.500000) "></path>
                        <polyline id="Path-16" stroke="#FFFFFF" stroke-width="4" transform="translate(636.473259, 78.070212) scale(-1, 1) translate(-636.473259, -78.070212) " points="767 53.4929974 598.653981 53.4929974 505.946518 102.647428"></polyline>
                        <path d="M381.948265,70 L382.273684,102.848254" id="Path-19" stroke="#FFFFFF" stroke-width="4"></path>
                    </g>
                </g>
            </g>
        </g>
    </g>
</svg>