<?xml version="1.0" encoding="UTF-8"?>
<svg width="69px" height="77px" viewBox="0 0 69 77" version="1.1" xmlns="http://www.w3.org/2000/svg" xmlns:xlink="http://www.w3.org/1999/xlink">
    <!-- Generator: Sketch 54.1 (76490) - https://sketchapp.com -->
    <title>Group 136</title>
    <desc>Created with Sketch.</desc>
    <g id="Page-1" stroke="none" stroke-width="1" fill="none" fill-rule="evenodd">
        <g id="Version-1" transform="translate(-666.000000, -6815.000000)" fill-rule="nonzero">
            <g id="Group-96" transform="translate(663.000000, 6818.000000)">
                <g id="Group-136">
                    <polygon id="Polygon" stroke="#FFFFFF" stroke-width="4" fill="#F3CE18" points="37.5 0 69.9759526 17.75 69.9759526 53.25 37.5 71 5.02404736 53.25 5.02404736 17.75"></polygon>
                    <path d="M16.390625,24.453125 L16.390625,38.921875 C16.390625,42.078125 18.4375,44.265625 22.015625,44.265625 C25.609375,44.265625 27.65625,42.078125 27.65625,38.921875 L27.65625,24.453125 L31.15625,24.453125 L31.15625,39.234375 C31.15625,44.125 27.671875,47.546875 22.015625,47.546875 C16.359375,47.546875 12.890625,44.125 12.890625,39.234375 L12.890625,24.453125 L16.390625,24.453125 Z M38.7875,47.265625 C37.475,47.265625 36.490625,46.25 36.490625,44.9375 C36.490625,43.625 37.475,42.609375 38.7875,42.609375 C40.115625,42.609375 41.084375,43.625 41.084375,44.9375 C41.084375,46.25 40.115625,47.265625 38.7875,47.265625 Z M47.246875,24.453125 L56.075,24.453125 C60.48125,24.453125 63.5125,27.5 63.5125,31.96875 C63.5125,36.375 60.3875,39.40625 55.965625,39.40625 L50.746875,39.40625 L50.746875,47 L47.246875,47 L47.246875,24.453125 Z M50.746875,27.546875 L50.746875,36.328125 L55.153125,36.328125 C58.16875,36.328125 59.934375,34.765625 59.934375,31.96875 C59.934375,29.109375 58.23125,27.546875 55.153125,27.546875 L50.746875,27.546875 Z" id="U.P" fill="#000000"></path>
                </g>
            </g>
        </g>
    </g>
</svg>