<?xml version="1.0" encoding="UTF-8"?>
<svg width="69px" height="77px" viewBox="0 0 69 77" version="1.1" xmlns="http://www.w3.org/2000/svg" xmlns:xlink="http://www.w3.org/1999/xlink">
    <!-- Generator: Sketch 54.1 (76490) - https://sketchapp.com -->
    <title>Group 138</title>
    <desc>Created with Sketch.</desc>
    <g id="Page-1" stroke="none" stroke-width="1" fill="none" fill-rule="evenodd">
        <g id="Version-1" transform="translate(-665.000000, -9301.000000)" fill-rule="nonzero">
            <g id="Group-96" transform="translate(662.000000, 9304.000000)">
                <g id="Group-138">
                    <polygon id="Polygon" stroke="#FFFFFF" stroke-width="4" fill="#F3CE18" points="37.5 0 69.9759526 17.75 69.9759526 53.25 37.5 71 5.02404736 53.25 5.02404736 17.75"></polygon>
                    <path d="M23.609375,30.453125 L18.78125,47 L15.46875,47 L9.390625,24.453125 L13.03125,24.453125 L17.171875,41.71875 L17.390625,41.71875 L22.09375,24.453125 L25.34375,24.453125 L30.078125,41.71875 L30.296875,41.71875 L34.421875,24.453125 L38.0625,24.453125 L31.96875,47 L28.671875,47 L23.828125,30.453125 L23.609375,30.453125 Z M41.865625,47.265625 C40.553125,47.265625 39.56875,46.25 39.56875,44.9375 C39.56875,43.625 40.553125,42.609375 41.865625,42.609375 C43.19375,42.609375 44.1625,43.625 44.1625,44.9375 C44.1625,46.25 43.19375,47.265625 41.865625,47.265625 Z M49.2625,40.9375 L52.73125,40.9375 C53.028125,43.078125 55.121875,44.4375 58.1375,44.4375 C60.95,44.4375 63.0125,42.984375 63.0125,40.984375 C63.0125,39.265625 61.7,38.234375 58.715625,37.53125 L55.809375,36.828125 C51.73125,35.875 49.871875,33.90625 49.871875,30.59375 C49.871875,26.578125 53.153125,23.90625 58.075,23.90625 C62.653125,23.90625 65.996875,26.578125 66.2,30.375 L62.79375,30.375 C62.465625,28.296875 60.653125,27 58.028125,27 C55.2625,27 53.41875,28.328125 53.41875,30.359375 C53.41875,31.96875 54.60625,32.890625 57.54375,33.578125 L60.028125,34.1875 C64.653125,35.265625 66.559375,37.140625 66.559375,40.53125 C66.559375,44.84375 63.215625,47.546875 57.871875,47.546875 C52.871875,47.546875 49.5125,44.96875 49.2625,40.9375 Z" id="W.S" fill="#000000"></path>
                </g>
            </g>
        </g>
    </g>
</svg>